<?xml version="1.0" encoding="us-ascii" standalone="no"?><svg xmlns="http://www.w3.org/2000/svg" xmlns:xlink="http://www.w3.org/1999/xlink" contentStyleType="text/css" height="1145px" preserveAspectRatio="none" style="width:2117px;height:1145px;background:#FFFFFF;" version="1.1" viewBox="0 0 2117 1145" width="2117px" zoomAndPan="magnify"><defs/><g><!--cluster rubrica--><g id="cluster_rubrica"><path d="M8.5,6.602 L58.5,6.602 A3.75,3.75 0 0 1 61,9.102 L68,31.6699 L2107.5,31.6699 A2.5,2.5 0 0 1 2110,34.1699 L2110,1135.752 A2.5,2.5 0 0 1 2107.5,1138.252 L8.5,1138.252 A2.5,2.5 0 0 1 6,1135.752 L6,9.102 A2.5,2.5 0 0 1 8.5,6.602 " fill="none" style="stroke:#000000;stroke-width:1.5;"/><line style="stroke:#000000;stroke-width:1.5;" x1="6" x2="68" y1="31.6699" y2="31.6699"/><text fill="#000000" font-family="sans-serif" font-size="14" font-weight="bold" lengthAdjust="spacing" textLength="49" x="10" y="23.5679">rubrica</text></g><!--cluster controllers--><g id="cluster_controllers"><path d="M558.5,398.952 L634.5,398.952 A3.75,3.75 0 0 1 637,401.452 L644,424.0199 L1293.5,424.0199 A2.5,2.5 0 0 1 1296,426.5199 L1296,1064.082 A2.5,2.5 0 0 1 1293.5,1066.582 L558.5,1066.582 A2.5,2.5 0 0 1 556,1064.082 L556,401.452 A2.5,2.5 0 0 1 558.5,398.952 " fill="none" style="stroke:#000000;stroke-width:1.5;"/><line style="stroke:#000000;stroke-width:1.5;" x1="556" x2="644" y1="424.0199" y2="424.0199"/><text fill="#000000" font-family="sans-serif" font-size="14" font-weight="bold" lengthAdjust="spacing" textLength="75" x="560" y="415.9179">controllers</text></g><!--cluster models--><g id="cluster_models"><path d="M32.5,52.602 L84.5,52.602 A3.75,3.75 0 0 1 87,55.102 L94,77.6699 L529.5,77.6699 A2.5,2.5 0 0 1 532,80.1699 L532,1111.752 A2.5,2.5 0 0 1 529.5,1114.252 L32.5,1114.252 A2.5,2.5 0 0 1 30,1111.752 L30,55.102 A2.5,2.5 0 0 1 32.5,52.602 " fill="none" style="stroke:#000000;stroke-width:1.5;"/><line style="stroke:#000000;stroke-width:1.5;" x1="30" x2="94" y1="77.6699" y2="77.6699"/><text fill="#000000" font-family="sans-serif" font-size="14" font-weight="bold" lengthAdjust="spacing" textLength="51" x="34" y="69.5679">models</text></g><!--cluster gestoreIO--><g id="cluster_gestoreIO"><path d="M1322.5,418.022 L1392.5,418.022 A3.75,3.75 0 0 1 1395,420.522 L1402,443.0899 L1916.5,443.0899 A2.5,2.5 0 0 1 1919,445.5899 L1919,612.862 A2.5,2.5 0 0 1 1916.5,615.362 L1322.5,615.362 A2.5,2.5 0 0 1 1320,612.862 L1320,420.522 A2.5,2.5 0 0 1 1322.5,418.022 " fill="none" style="stroke:#000000;stroke-width:1.5;"/><line style="stroke:#000000;stroke-width:1.5;" x1="1320" x2="1402" y1="443.0899" y2="443.0899"/><text fill="#000000" font-family="sans-serif" font-size="14" font-weight="bold" lengthAdjust="spacing" textLength="69" x="1324" y="434.9879">gestoreIO</text></g><!--class App--><g id="elem_App"><rect codeLine="36" fill="#F1F1F1" height="124.2717" id="App" rx="2.5" ry="2.5" style="stroke:#181818;stroke-width:0.5;" width="155" x="1938.5" y="465.552"/><ellipse cx="1998.25" cy="481.552" fill="#ADD1B2" rx="11" ry="11" style="stroke:#181818;stroke-width:1.0;"/><path d="M1997.7188,488.4739 Q1995.9688,488.4739 1994.8281,487.7395 Q1993.7031,486.9895 1993.1406,485.6457 Q1992.5938,484.2864 1992.5938,482.4895 Q1992.5938,480.4582 1993.25,479.0051 Q1993.9063,477.552 1995.1875,476.7707 Q1996.4688,475.9895 1998.3438,475.9895 Q1999.2344,475.9895 1999.9063,476.177 Q2000.5781,476.3489 2001.2656,476.6926 L2000.4531,478.7082 Q1999.8281,478.3957 1999.2813,478.2707 Q1998.75,478.1457 1998.2656,478.1457 Q1997.0938,478.1457 1996.3906,478.677 Q1995.6875,479.2082 1995.3906,480.1614 Q1995.0938,481.1145 1995.0938,482.3801 Q1995.0938,484.3957 1995.8125,485.3645 Q1996.5313,486.3176 1998.125,486.3176 Q1998.7188,486.3176 1999.3438,486.1614 Q1999.9688,486.0051 2000.7969,485.6301 L2000.7969,487.8489 Q2000.0625,488.1614 1999.2656,488.3176 Q1998.4844,488.4739 1997.7188,488.4739 Z " fill="#000000"/><text fill="#000000" font-family="sans-serif" font-size="14" lengthAdjust="spacing" textLength="27" x="2018.75" y="486.984">App</text><line style="stroke:#181818;stroke-width:0.5;" x1="1939.5" x2="2092.5" y1="497.552" y2="497.552"/><rect fill="none" height="6" style="stroke:#C82930;stroke-width:1.0;" width="6" x="1946.5" y="509.5859"/><text fill="#000000" font-family="sans-serif" font-size="14" lengthAdjust="spacing" textLength="79" x="1958.5" y="516.5179">root: Parent</text><rect fill="none" height="6" style="stroke:#C82930;stroke-width:1.0;" width="6" x="1946.5" y="528.6539"/><text fill="#000000" font-family="sans-serif" font-size="14" lengthAdjust="spacing" textLength="87" x="1958.5" y="535.5858">scene: Scene</text><line style="stroke:#181818;stroke-width:0.5;" x1="1939.5" x2="2092.5" y1="543.6878" y2="543.6878"/><ellipse cx="1949.5" cy="558.7218" fill="#84BE84" rx="3" ry="3" style="stroke:#038048;stroke-width:1.0;"/><text fill="#000000" font-family="sans-serif" font-size="14" lengthAdjust="spacing" textLength="113" x="1958.5" y="562.6538">start(Stage): void</text><ellipse cx="1949.5" cy="577.7897" fill="#84BE84" rx="3" ry="3" style="stroke:#038048;stroke-width:1.0;"/><text fill="#000000" font-family="sans-serif" font-size="14" lengthAdjust="spacing" textLength="129" x="1958.5" y="581.7217">main(String[]): void</text></g><!--class GenericController--><g id="elem_GenericController"><rect codeLine="4" fill="#F1F1F1" height="181.4754" id="GenericController" rx="2.5" ry="2.5" style="stroke:#181818;stroke-width:0.5;" width="369" x="572.5" y="436.952"/><ellipse cx="693.25" cy="452.952" fill="#ADD1B2" rx="11" ry="11" style="stroke:#181818;stroke-width:1.0;"/><path d="M692.7188,459.8739 Q690.9688,459.8739 689.8281,459.1395 Q688.7031,458.3895 688.1406,457.0457 Q687.5938,455.6864 687.5938,453.8895 Q687.5938,451.8582 688.25,450.4051 Q688.9063,448.952 690.1875,448.1707 Q691.4688,447.3895 693.3438,447.3895 Q694.2344,447.3895 694.9063,447.577 Q695.5781,447.7489 696.2656,448.0926 L695.4531,450.1082 Q694.8281,449.7957 694.2813,449.6707 Q693.75,449.5457 693.2656,449.5457 Q692.0938,449.5457 691.3906,450.077 Q690.6875,450.6082 690.3906,451.5614 Q690.0938,452.5145 690.0938,453.7801 Q690.0938,455.7957 690.8125,456.7645 Q691.5313,457.7176 693.125,457.7176 Q693.7188,457.7176 694.3438,457.5614 Q694.9688,457.4051 695.7969,457.0301 L695.7969,459.2489 Q695.0625,459.5614 694.2656,459.7176 Q693.4844,459.8739 692.7188,459.8739 Z " fill="#000000"/><text fill="#000000" font-family="sans-serif" font-size="14" lengthAdjust="spacing" textLength="119" x="713.75" y="458.384">GenericController</text><line style="stroke:#181818;stroke-width:0.5;" x1="573.5" x2="940.5" y1="468.952" y2="468.952"/><rect fill="none" height="6" style="stroke:#C82930;stroke-width:1.0;" width="6" x="580.5" y="480.9859"/><text fill="#000000" font-family="sans-serif" font-size="14" lengthAdjust="spacing" textLength="305" x="592.5" y="487.9179">listaContatti: ObservableList&lt;ContattoEsteso&gt;</text><rect fill="none" height="6" style="stroke:#C82930;stroke-width:1.0;" width="6" x="580.5" y="500.0539"/><text fill="#000000" font-family="sans-serif" font-size="14" lengthAdjust="spacing" textLength="109" x="592.5" y="506.9858">rubrica: Rubrica</text><line style="stroke:#181818;stroke-width:0.5;" x1="573.5" x2="940.5" y1="515.0878" y2="515.0878"/><ellipse cx="583.5" cy="530.1218" fill="#84BE84" rx="3" ry="3" style="stroke:#038048;stroke-width:1.0;"/><text fill="#000000" font-family="sans-serif" font-size="14" lengthAdjust="spacing" textLength="131" x="592.5" y="534.0538">GenericController():</text><ellipse cx="583.5" cy="549.1897" fill="#84BE84" rx="3" ry="3" style="stroke:#038048;stroke-width:1.0;"/><text fill="#000000" font-family="sans-serif" font-size="14" lengthAdjust="spacing" textLength="296" x="592.5" y="553.1217">mostraDialog(AlertType, String, String): void</text><ellipse cx="583.5" cy="568.2576" fill="#84BE84" rx="3" ry="3" style="stroke:#038048;stroke-width:1.0;"/><text fill="#000000" font-family="sans-serif" font-size="14" lengthAdjust="spacing" textLength="343" x="592.5" y="572.1896">controllaCampiObbligatori(String, String) : boolean</text><ellipse cx="583.5" cy="587.3255" fill="#84BE84" rx="3" ry="3" style="stroke:#038048;stroke-width:1.0;"/><text fill="#000000" font-family="sans-serif" font-size="14" lengthAdjust="spacing" textLength="236" x="592.5" y="591.2575">controllaTelelfono(String) : boolean</text><ellipse cx="583.5" cy="606.3934" fill="#84BE84" rx="3" ry="3" style="stroke:#038048;stroke-width:1.0;"/><text fill="#000000" font-family="sans-serif" font-size="14" lengthAdjust="spacing" textLength="211" x="592.5" y="610.3254">controllaEmail(String) : boolean</text></g><!--class RubricaController--><g id="elem_RubricaController"><rect codeLine="15" fill="#F1F1F1" height="238.6792" id="RubricaController" rx="2.5" ry="2.5" style="stroke:#181818;stroke-width:0.5;" width="394" x="886" y="811.902"/><ellipse cx="1019.25" cy="827.902" fill="#ADD1B2" rx="11" ry="11" style="stroke:#181818;stroke-width:1.0;"/><path d="M1018.7188,834.8239 Q1016.9688,834.8239 1015.8281,834.0895 Q1014.7031,833.3395 1014.1406,831.9957 Q1013.5938,830.6364 1013.5938,828.8395 Q1013.5938,826.8082 1014.25,825.3551 Q1014.9063,823.902 1016.1875,823.1207 Q1017.4688,822.3395 1019.3438,822.3395 Q1020.2344,822.3395 1020.9063,822.527 Q1021.5781,822.6989 1022.2656,823.0426 L1021.4531,825.0582 Q1020.8281,824.7457 1020.2813,824.6207 Q1019.75,824.4957 1019.2656,824.4957 Q1018.0938,824.4957 1017.3906,825.027 Q1016.6875,825.5582 1016.3906,826.5114 Q1016.0938,827.4645 1016.0938,828.7301 Q1016.0938,830.7457 1016.8125,831.7145 Q1017.5313,832.6676 1019.125,832.6676 Q1019.7188,832.6676 1020.3438,832.5114 Q1020.9688,832.3551 1021.7969,831.9801 L1021.7969,834.1989 Q1021.0625,834.5114 1020.2656,834.6676 Q1019.4844,834.8239 1018.7188,834.8239 Z " fill="#000000"/><text fill="#000000" font-family="sans-serif" font-size="14" lengthAdjust="spacing" textLength="119" x="1039.75" y="833.334">RubricaController</text><line style="stroke:#181818;stroke-width:0.5;" x1="887" x2="1279" y1="843.902" y2="843.902"/><rect fill="none" height="6" style="stroke:#C82930;stroke-width:1.0;" width="6" x="894" y="855.9359"/><text fill="#000000" font-family="sans-serif" font-size="14" lengthAdjust="spacing" textLength="240" x="906" y="862.8679">contattoSelezionato: ContattoEsteso</text><rect fill="none" height="6" style="stroke:#C82930;stroke-width:1.0;" width="6" x="894" y="875.0039"/><text fill="#000000" font-family="sans-serif" font-size="14" lengthAdjust="spacing" textLength="346" x="906" y="881.9358">contattiFiltratiPreferiti: FilteredList&lt;ContattoEsteso&gt;</text><rect fill="none" height="6" style="stroke:#C82930;stroke-width:1.0;" width="6" x="894" y="894.0718"/><text fill="#000000" font-family="sans-serif" font-size="14" lengthAdjust="spacing" textLength="300" x="906" y="901.0038">filteredContatti: FilteredList&lt;ContattoEsteso&gt;</text><rect fill="none" height="6" style="stroke:#C82930;stroke-width:1.0;" width="6" x="894" y="913.1397"/><text fill="#000000" font-family="sans-serif" font-size="14" lengthAdjust="spacing" textLength="368" x="906" y="920.0717">contattiFiltratiEmergenza: FilteredList&lt;ContattoEsteso&gt;</text><line style="stroke:#181818;stroke-width:0.5;" x1="887" x2="1279" y1="928.1736" y2="928.1736"/><ellipse cx="897" cy="943.2076" fill="#84BE84" rx="3" ry="3" style="stroke:#038048;stroke-width:1.0;"/><text fill="#000000" font-family="sans-serif" font-size="14" lengthAdjust="spacing" textLength="127" x="906" y="947.1396">RubricaController()</text><ellipse cx="897" cy="962.2755" fill="#84BE84" rx="3" ry="3" style="stroke:#038048;stroke-width:1.0;"/><text fill="#000000" font-family="sans-serif" font-size="14" lengthAdjust="spacing" textLength="245" x="906" y="966.2075">initialize(URL, ResourceBundle): void</text><rect fill="#F24D5C" height="6" style="stroke:#C82930;stroke-width:1.0;" width="6" x="894" y="978.3434"/><text fill="#000000" font-family="sans-serif" font-size="14" lengthAdjust="spacing" textLength="170" x="906" y="985.2754">filtraContatti(String): void</text><rect fill="#F24D5C" height="6" style="stroke:#C82930;stroke-width:1.0;" width="6" x="894" y="997.4114"/><text fill="#000000" font-family="sans-serif" font-size="14" lengthAdjust="spacing" textLength="305" x="906" y="1004.3433">mostraDettaglioContatti(ContattoEsteso): void</text><rect fill="#F24D5C" height="6" style="stroke:#C82930;stroke-width:1.0;" width="6" x="894" y="1016.4793"/><text fill="#000000" font-family="sans-serif" font-size="14" lengthAdjust="spacing" textLength="190" x="906" y="1023.4113">setEditableAll(boolean): void</text><rect fill="#F24D5C" height="6" style="stroke:#C82930;stroke-width:1.0;" width="6" x="894" y="1035.5472"/><text fill="#000000" font-family="sans-serif" font-size="14" lengthAdjust="spacing" textLength="183" x="906" y="1042.4792">openWebpage(String): void</text></g><!--class CreaContattoController--><g id="elem_CreaContattoController"><rect codeLine="29" fill="#F1F1F1" height="86.1358" id="CreaContattoController" rx="2.5" ry="2.5" style="stroke:#181818;stroke-width:0.5;" width="279" x="572.5" y="888.172"/><ellipse cx="630.25" cy="904.172" fill="#ADD1B2" rx="11" ry="11" style="stroke:#181818;stroke-width:1.0;"/><path d="M629.7188,911.0939 Q627.9688,911.0939 626.8281,910.3595 Q625.7031,909.6095 625.1406,908.2657 Q624.5938,906.9064 624.5938,905.1095 Q624.5938,903.0782 625.25,901.6251 Q625.9063,900.172 627.1875,899.3907 Q628.4688,898.6095 630.3438,898.6095 Q631.2344,898.6095 631.9063,898.797 Q632.5781,898.9689 633.2656,899.3126 L632.4531,901.3282 Q631.8281,901.0157 631.2813,900.8907 Q630.75,900.7657 630.2656,900.7657 Q629.0938,900.7657 628.3906,901.297 Q627.6875,901.8282 627.3906,902.7814 Q627.0938,903.7345 627.0938,905.0001 Q627.0938,907.0157 627.8125,907.9845 Q628.5313,908.9376 630.125,908.9376 Q630.7188,908.9376 631.3438,908.7814 Q631.9688,908.6251 632.7969,908.2501 L632.7969,910.4689 Q632.0625,910.7814 631.2656,910.9376 Q630.4844,911.0939 629.7188,911.0939 Z " fill="#000000"/><text fill="#000000" font-family="sans-serif" font-size="14" lengthAdjust="spacing" textLength="155" x="650.75" y="909.604">CreaContattoController</text><line style="stroke:#181818;stroke-width:0.5;" x1="573.5" x2="850.5" y1="920.172" y2="920.172"/><line style="stroke:#181818;stroke-width:0.5;" x1="573.5" x2="850.5" y1="928.172" y2="928.172"/><ellipse cx="583.5" cy="943.2059" fill="#84BE84" rx="3" ry="3" style="stroke:#038048;stroke-width:1.0;"/><text fill="#000000" font-family="sans-serif" font-size="14" lengthAdjust="spacing" textLength="163" x="592.5" y="947.1379">CreaContattoController()</text><ellipse cx="583.5" cy="962.2739" fill="#84BE84" rx="3" ry="3" style="stroke:#038048;stroke-width:1.0;"/><text fill="#000000" font-family="sans-serif" font-size="14" lengthAdjust="spacing" textLength="253" x="592.5" y="966.2058">initialize (URL, ResourceBundle) : void</text></g><!--class Rubrica--><g id="elem_Rubrica"><rect codeLine="45" fill="#F1F1F1" height="200.5433" id="Rubrica" rx="2.5" ry="2.5" style="stroke:#181818;stroke-width:0.5;" width="372" x="121" y="90.602"/><ellipse cx="276.75" cy="106.602" fill="#ADD1B2" rx="11" ry="11" style="stroke:#181818;stroke-width:1.0;"/><path d="M276.2188,113.5239 Q274.4688,113.5239 273.3281,112.7895 Q272.2031,112.0395 271.6406,110.6957 Q271.0938,109.3364 271.0938,107.5395 Q271.0938,105.5082 271.75,104.0551 Q272.4063,102.602 273.6875,101.8207 Q274.9688,101.0395 276.8438,101.0395 Q277.7344,101.0395 278.4063,101.227 Q279.0781,101.3989 279.7656,101.7426 L278.9531,103.7582 Q278.3281,103.4457 277.7813,103.3207 Q277.25,103.1957 276.7656,103.1957 Q275.5938,103.1957 274.8906,103.727 Q274.1875,104.2582 273.8906,105.2114 Q273.5938,106.1645 273.5938,107.4301 Q273.5938,109.4457 274.3125,110.4145 Q275.0313,111.3676 276.625,111.3676 Q277.2188,111.3676 277.8438,111.2114 Q278.4688,111.0551 279.2969,110.6801 L279.2969,112.8989 Q278.5625,113.2114 277.7656,113.3676 Q276.9844,113.5239 276.2188,113.5239 Z " fill="#000000"/><text fill="#000000" font-family="sans-serif" font-size="14" lengthAdjust="spacing" textLength="52" x="297.25" y="112.034">Rubrica</text><line style="stroke:#181818;stroke-width:0.5;" x1="122" x2="492" y1="122.602" y2="122.602"/><rect fill="none" height="6" style="stroke:#C82930;stroke-width:1.0;" width="6" x="129" y="134.6359"/><text fill="#000000" font-family="sans-serif" font-size="14" lengthAdjust="spacing" textLength="261" x="141" y="141.5679">rubrica: Map&lt;Integer, ContattoEsteso&gt;</text><line style="stroke:#181818;stroke-width:0.5;" x1="122" x2="492" y1="149.6699" y2="149.6699"/><ellipse cx="132" cy="164.7039" fill="#84BE84" rx="3" ry="3" style="stroke:#038048;stroke-width:1.0;"/><text fill="#000000" font-family="sans-serif" font-size="14" lengthAdjust="spacing" textLength="64" x="141" y="168.6358">Rubrica():</text><ellipse cx="132" cy="183.7718" fill="#84BE84" rx="3" ry="3" style="stroke:#038048;stroke-width:1.0;"/><text fill="#000000" font-family="sans-serif" font-size="14" lengthAdjust="spacing" textLength="319" x="141" y="187.7038">ricercaContatto(ContattoEsteso): ContattoEsteso</text><ellipse cx="132" cy="202.8397" fill="#84BE84" rx="3" ry="3" style="stroke:#038048;stroke-width:1.0;"/><text fill="#000000" font-family="sans-serif" font-size="14" lengthAdjust="spacing" textLength="324" x="141" y="206.7717">rimuoviContatto(ContattoEsteso): ContattoEsteso</text><ellipse cx="132" cy="221.9076" fill="#84BE84" rx="3" ry="3" style="stroke:#038048;stroke-width:1.0;"/><text fill="#000000" font-family="sans-serif" font-size="14" lengthAdjust="spacing" textLength="288" x="141" y="225.8396">aggiornaContatto(ContattoEsteso): Boolean</text><ellipse cx="132" cy="240.9755" fill="#84BE84" rx="3" ry="3" style="stroke:#038048;stroke-width:1.0;"/><text fill="#000000" font-family="sans-serif" font-size="14" lengthAdjust="spacing" textLength="111" x="141" y="244.9075">toString(): String</text><ellipse cx="132" cy="260.0434" fill="#84BE84" rx="3" ry="3" style="stroke:#038048;stroke-width:1.0;"/><text fill="#000000" font-family="sans-serif" font-size="14" lengthAdjust="spacing" textLength="334" x="141" y="263.9754">aggiungiContatto(ContattoEsteso): ContattoEsteso</text><ellipse cx="132" cy="279.1114" fill="#84BE84" rx="3" ry="3" style="stroke:#038048;stroke-width:1.0;"/><text fill="#000000" font-family="sans-serif" font-size="14" lengthAdjust="spacing" textLength="346" x="141" y="283.0433">aggiungiContattoEVerifica(ContattoEsteso): Boolean</text></g><!--class Contatto--><g id="elem_Contatto"><rect codeLine="57" fill="#F1F1F1" height="353.0867" id="Contatto" rx="2.5" ry="2.5" style="stroke:#181818;stroke-width:0.5;" width="456" x="56" y="351.142"/><ellipse cx="251.25" cy="367.142" fill="#ADD1B2" rx="11" ry="11" style="stroke:#181818;stroke-width:1.0;"/><path d="M250.7188,374.0639 Q248.9688,374.0639 247.8281,373.3295 Q246.7031,372.5795 246.1406,371.2357 Q245.5938,369.8764 245.5938,368.0795 Q245.5938,366.0482 246.25,364.5951 Q246.9063,363.142 248.1875,362.3607 Q249.4688,361.5795 251.3438,361.5795 Q252.2344,361.5795 252.9063,361.767 Q253.5781,361.9389 254.2656,362.2826 L253.4531,364.2982 Q252.8281,363.9857 252.2813,363.8607 Q251.75,363.7357 251.2656,363.7357 Q250.0938,363.7357 249.3906,364.267 Q248.6875,364.7982 248.3906,365.7514 Q248.0938,366.7045 248.0938,367.9701 Q248.0938,369.9857 248.8125,370.9545 Q249.5313,371.9076 251.125,371.9076 Q251.7188,371.9076 252.3438,371.7514 Q252.9688,371.5951 253.7969,371.2201 L253.7969,373.4389 Q253.0625,373.7514 252.2656,373.9076 Q251.4844,374.0639 250.7188,374.0639 Z " fill="#000000"/><text fill="#000000" font-family="sans-serif" font-size="14" lengthAdjust="spacing" textLength="57" x="271.75" y="372.574">Contatto</text><line style="stroke:#181818;stroke-width:0.5;" x1="57" x2="511" y1="383.142" y2="383.142"/><rect fill="none" height="6" style="stroke:#C82930;stroke-width:1.0;" width="6" x="64" y="395.1759"/><text fill="#000000" font-family="sans-serif" font-size="14" lengthAdjust="spacing" textLength="111" x="76" y="402.1079">cognome: String</text><rect fill="none" height="6" style="stroke:#C82930;stroke-width:1.0;" width="6" x="64" y="414.2439"/><text fill="#000000" font-family="sans-serif" font-size="14" lengthAdjust="spacing" textLength="121" x="76" y="421.1758">preferito: Boolean</text><rect fill="none" height="6" style="stroke:#C82930;stroke-width:1.0;" width="6" x="64" y="433.3118"/><text fill="#000000" font-family="sans-serif" font-size="14" lengthAdjust="spacing" textLength="112" x="76" y="440.2438">telefono3: String</text><rect fill="none" height="6" style="stroke:#C82930;stroke-width:1.0;" width="6" x="64" y="452.3797"/><text fill="#000000" font-family="sans-serif" font-size="14" lengthAdjust="spacing" textLength="87" x="76" y="459.3117">nome: String</text><rect fill="none" height="6" style="stroke:#C82930;stroke-width:1.0;" width="6" x="64" y="471.4476"/><text fill="#000000" font-family="sans-serif" font-size="14" lengthAdjust="spacing" textLength="112" x="76" y="478.3796">telefono2: String</text><rect fill="none" height="6" style="stroke:#C82930;stroke-width:1.0;" width="6" x="64" y="490.5155"/><text fill="#000000" font-family="sans-serif" font-size="14" lengthAdjust="spacing" textLength="112" x="76" y="497.4475">telefono1: String</text><rect fill="none" height="6" style="stroke:#C82930;stroke-width:1.0;" width="6" x="64" y="509.5834"/><text fill="#000000" font-family="sans-serif" font-size="14" lengthAdjust="spacing" textLength="138" x="76" y="516.5154">emergenza: Boolean</text><rect fill="none" height="6" style="stroke:#C82930;stroke-width:1.0;" width="6" x="64" y="528.6514"/><text fill="#000000" font-family="sans-serif" font-size="14" lengthAdjust="spacing" textLength="71" x="76" y="535.5833">id: Integer</text><line style="stroke:#181818;stroke-width:0.5;" x1="57" x2="511" y1="543.6853" y2="543.6853"/><ellipse cx="67" cy="558.7193" fill="#84BE84" rx="3" ry="3" style="stroke:#038048;stroke-width:1.0;"/><text fill="#000000" font-family="sans-serif" font-size="14" lengthAdjust="spacing" textLength="69" x="76" y="562.6513">Contatto():</text><ellipse cx="67" cy="577.7872" fill="#84BE84" rx="3" ry="3" style="stroke:#038048;stroke-width:1.0;"/><text fill="#000000" font-family="sans-serif" font-size="14" lengthAdjust="spacing" textLength="430" x="76" y="581.7192">Contatto(String, String, String, String, String, Boolean, Boolean):</text><ellipse cx="67" cy="596.8551" fill="#84BE84" rx="3" ry="3" style="stroke:#038048;stroke-width:1.0;"/><text fill="#000000" font-family="sans-serif" font-size="14" lengthAdjust="spacing" textLength="111" x="76" y="600.7871">toString(): String</text><ellipse cx="67" cy="615.923" fill="#84BE84" rx="3" ry="3" style="stroke:#038048;stroke-width:1.0;"/><text fill="#000000" font-family="sans-serif" font-size="14" lengthAdjust="spacing" textLength="214" x="76" y="619.855">isEmergenza(): BooleanProperty</text><ellipse cx="67" cy="634.9909" fill="#84BE84" rx="3" ry="3" style="stroke:#038048;stroke-width:1.0;"/><text fill="#000000" font-family="sans-serif" font-size="14" lengthAdjust="spacing" textLength="101" x="76" y="638.9229">hashCode(): int</text><ellipse cx="67" cy="654.0589" fill="#84BE84" rx="3" ry="3" style="stroke:#038048;stroke-width:1.0;"/><text fill="#000000" font-family="sans-serif" font-size="14" lengthAdjust="spacing" textLength="159" x="76" y="657.9908">equals(Object): boolean</text><ellipse cx="67" cy="673.1268" fill="#84BE84" rx="3" ry="3" style="stroke:#038048;stroke-width:1.0;"/><text fill="#000000" font-family="sans-serif" font-size="14" lengthAdjust="spacing" textLength="196" x="76" y="677.0588">isPreferito(): BooleanProperty</text><ellipse cx="67" cy="692.1947" fill="#84BE84" rx="3" ry="3" style="stroke:#038048;stroke-width:1.0;"/><text fill="#000000" font-family="sans-serif" font-size="14" lengthAdjust="spacing" textLength="132" x="76" y="696.1267">generaId() : Integer</text></g><!--class ContattoEsteso--><g id="elem_ContattoEsteso"><rect codeLine="76" fill="#F1F1F1" height="334.0188" id="ContattoEsteso" rx="2.5" ry="2.5" style="stroke:#181818;stroke-width:0.5;" width="469" x="46.5" y="764.232"/><ellipse cx="226.75" cy="780.232" fill="#ADD1B2" rx="11" ry="11" style="stroke:#181818;stroke-width:1.0;"/><path d="M226.2188,787.1539 Q224.4688,787.1539 223.3281,786.4195 Q222.2031,785.6695 221.6406,784.3257 Q221.0938,782.9664 221.0938,781.1695 Q221.0938,779.1382 221.75,777.6851 Q222.4063,776.232 223.6875,775.4507 Q224.9688,774.6695 226.8438,774.6695 Q227.7344,774.6695 228.4063,774.857 Q229.0781,775.0289 229.7656,775.3726 L228.9531,777.3882 Q228.3281,777.0757 227.7813,776.9507 Q227.25,776.8257 226.7656,776.8257 Q225.5938,776.8257 224.8906,777.357 Q224.1875,777.8882 223.8906,778.8414 Q223.5938,779.7945 223.5938,781.0601 Q223.5938,783.0757 224.3125,784.0445 Q225.0313,784.9976 226.625,784.9976 Q227.2188,784.9976 227.8438,784.8414 Q228.4688,784.6851 229.2969,784.3101 L229.2969,786.5289 Q228.5625,786.8414 227.7656,786.9976 Q226.9844,787.1539 226.2188,787.1539 Z " fill="#000000"/><text fill="#000000" font-family="sans-serif" font-size="14" lengthAdjust="spacing" textLength="100" x="247.25" y="785.664">ContattoEsteso</text><line style="stroke:#181818;stroke-width:0.5;" x1="47.5" x2="514.5" y1="796.232" y2="796.232"/><rect fill="none" height="6" style="stroke:#C82930;stroke-width:1.0;" width="6" x="54.5" y="808.2659"/><text fill="#000000" font-family="sans-serif" font-size="14" lengthAdjust="spacing" textLength="94" x="66.5" y="815.1979">email3: String</text><rect fill="none" height="6" style="stroke:#C82930;stroke-width:1.0;" width="6" x="54.5" y="827.3339"/><text fill="#000000" font-family="sans-serif" font-size="14" lengthAdjust="spacing" textLength="94" x="66.5" y="834.2658">email2: String</text><rect fill="none" height="6" style="stroke:#C82930;stroke-width:1.0;" width="6" x="54.5" y="846.4018"/><text fill="#000000" font-family="sans-serif" font-size="14" lengthAdjust="spacing" textLength="94" x="66.5" y="853.3338">email1: String</text><rect fill="none" height="6" style="stroke:#C82930;stroke-width:1.0;" width="6" x="54.5" y="865.4697"/><text fill="#000000" font-family="sans-serif" font-size="14" lengthAdjust="spacing" textLength="176" x="66.5" y="872.4017">indirizzoResidenza: String</text><rect fill="none" height="6" style="stroke:#C82930;stroke-width:1.0;" width="6" x="54.5" y="884.5376"/><text fill="#000000" font-family="sans-serif" font-size="14" lengthAdjust="spacing" textLength="103" x="66.5" y="891.4696">sitoWeb: String</text><rect fill="none" height="6" style="stroke:#C82930;stroke-width:1.0;" width="6" x="54.5" y="903.6055"/><text fill="#000000" font-family="sans-serif" font-size="14" lengthAdjust="spacing" textLength="156" x="66.5" y="910.5375">compleanno: LocalDate</text><rect fill="none" height="6" style="stroke:#C82930;stroke-width:1.0;" width="6" x="54.5" y="922.6734"/><text fill="#000000" font-family="sans-serif" font-size="14" lengthAdjust="spacing" textLength="79" x="66.5" y="929.6054">note: String</text><rect fill="none" height="6" style="stroke:#C82930;stroke-width:1.0;" width="6" x="54.5" y="941.7414"/><text fill="#000000" font-family="sans-serif" font-size="14" lengthAdjust="spacing" textLength="81" x="66.5" y="948.6733">img : Image</text><line style="stroke:#181818;stroke-width:0.5;" x1="47.5" x2="514.5" y1="956.7753" y2="956.7753"/><ellipse cx="57.5" cy="971.8093" fill="#84BE84" rx="3" ry="3" style="stroke:#038048;stroke-width:1.0;"/><text fill="#000000" font-family="sans-serif" font-size="14" lengthAdjust="spacing" textLength="112" x="66.5" y="975.7413">ContattoEsteso():</text><ellipse cx="57.5" cy="990.8772" fill="#84BE84" rx="3" ry="3" style="stroke:#038048;stroke-width:1.0;"/><text fill="#000000" font-family="sans-serif" font-size="14" lengthAdjust="spacing" textLength="443" x="66.5" y="994.8092">ContattoEsteso(String, String, String, String, String, String, String,</text><text fill="#000000" font-family="sans-serif" font-size="14" lengthAdjust="spacing" textLength="440" x="66.5" y="1013.8771">String, LocalDate, String, String, String, Boolean, Boolean, Image)</text><ellipse cx="57.5" cy="1029.013" fill="#84BE84" rx="3" ry="3" style="stroke:#038048;stroke-width:1.0;"/><text fill="#000000" font-family="sans-serif" font-size="14" lengthAdjust="spacing" textLength="111" x="66.5" y="1032.945">toString(): String</text><ellipse cx="57.5" cy="1048.0809" fill="#84BE84" rx="3" ry="3" style="stroke:#038048;stroke-width:1.0;"/><text fill="#000000" font-family="sans-serif" font-size="14" lengthAdjust="spacing" textLength="101" x="66.5" y="1052.0129">hashCode(): int</text><rect fill="#F24D5C" height="6" style="stroke:#C82930;stroke-width:1.0;" width="6" x="54.5" y="1064.1489"/><text fill="#000000" font-family="sans-serif" font-size="14" lengthAdjust="spacing" textLength="128" x="66.5" y="1071.0808">generaId(): Integer</text><ellipse cx="57.5" cy="1086.2168" fill="#84BE84" rx="3" ry="3" style="stroke:#038048;stroke-width:1.0;"/><text fill="#000000" font-family="sans-serif" font-size="14" lengthAdjust="spacing" textLength="159" x="66.5" y="1090.1488">equals(Object): boolean</text></g><!--class Export--><g id="elem_Export"><rect codeLine="100" fill="#F1F1F1" height="143.3396" id="Export" rx="2.5" ry="2.5" style="stroke:#181818;stroke-width:0.5;" width="278" x="1336" y="456.022"/><ellipse cx="1449.25" cy="472.022" fill="#ADD1B2" rx="11" ry="11" style="stroke:#181818;stroke-width:1.0;"/><path d="M1448.7188,478.9439 Q1446.9688,478.9439 1445.8281,478.2095 Q1444.7031,477.4595 1444.1406,476.1157 Q1443.5938,474.7564 1443.5938,472.9595 Q1443.5938,470.9282 1444.25,469.4751 Q1444.9063,468.022 1446.1875,467.2407 Q1447.4688,466.4595 1449.3438,466.4595 Q1450.2344,466.4595 1450.9063,466.647 Q1451.5781,466.8189 1452.2656,467.1626 L1451.4531,469.1782 Q1450.8281,468.8657 1450.2813,468.7407 Q1449.75,468.6157 1449.2656,468.6157 Q1448.0938,468.6157 1447.3906,469.147 Q1446.6875,469.6782 1446.3906,470.6314 Q1446.0938,471.5845 1446.0938,472.8501 Q1446.0938,474.8657 1446.8125,475.8345 Q1447.5313,476.7876 1449.125,476.7876 Q1449.7188,476.7876 1450.3438,476.6314 Q1450.9688,476.4751 1451.7969,476.1001 L1451.7969,478.3189 Q1451.0625,478.6314 1450.2656,478.7876 Q1449.4844,478.9439 1448.7188,478.9439 Z " fill="#000000"/><text fill="#000000" font-family="sans-serif" font-size="14" lengthAdjust="spacing" textLength="43" x="1469.75" y="477.454">Export</text><line style="stroke:#181818;stroke-width:0.5;" x1="1337" x2="1613" y1="488.022" y2="488.022"/><rect fill="none" height="6" style="stroke:#C82930;stroke-width:1.0;" width="6" x="1344" y="500.0559"/><text fill="#000000" font-family="sans-serif" font-size="14" lengthAdjust="spacing" textLength="80" x="1356" y="506.9879">path: String</text><line style="stroke:#181818;stroke-width:0.5;" x1="1337" x2="1613" y1="515.0899" y2="515.0899"/><ellipse cx="1347" cy="530.1239" fill="#84BE84" rx="3" ry="3" style="stroke:#038048;stroke-width:1.0;"/><text fill="#000000" font-family="sans-serif" font-size="14" lengthAdjust="spacing" textLength="55" x="1356" y="534.0558">Export():</text><ellipse cx="1347" cy="549.1918" fill="#84BE84" rx="3" ry="3" style="stroke:#038048;stroke-width:1.0;"/><text fill="#000000" font-family="sans-serif" font-size="14" lengthAdjust="spacing" textLength="217" x="1356" y="553.1238">getVcard(ContattoEsteso): String</text><ellipse cx="1347" cy="568.2597" fill="#84BE84" rx="3" ry="3" style="stroke:#038048;stroke-width:1.0;"/><text fill="#000000" font-family="sans-serif" font-size="14" lengthAdjust="spacing" textLength="199" x="1356" y="572.1917">esportaRubrica(Rubrica): void</text><ellipse cx="1347" cy="587.3276" fill="#84BE84" rx="3" ry="3" style="stroke:#038048;stroke-width:1.0;"/><text fill="#000000" font-family="sans-serif" font-size="14" lengthAdjust="spacing" textLength="252" x="1356" y="591.2596">esportaContatto(ContattoEsteso): void</text></g><!--class Import--><g id="elem_Import"><rect codeLine="108" fill="#F1F1F1" height="105.2038" id="Import" rx="2.5" ry="2.5" style="stroke:#181818;stroke-width:0.5;" width="254" x="1649" y="475.092"/><ellipse cx="1748.75" cy="491.092" fill="#ADD1B2" rx="11" ry="11" style="stroke:#181818;stroke-width:1.0;"/><path d="M1748.2188,498.0139 Q1746.4688,498.0139 1745.3281,497.2795 Q1744.2031,496.5295 1743.6406,495.1857 Q1743.0938,493.8264 1743.0938,492.0295 Q1743.0938,489.9982 1743.75,488.5451 Q1744.4063,487.092 1745.6875,486.3107 Q1746.9688,485.5295 1748.8438,485.5295 Q1749.7344,485.5295 1750.4063,485.717 Q1751.0781,485.8889 1751.7656,486.2326 L1750.9531,488.2482 Q1750.3281,487.9357 1749.7813,487.8107 Q1749.25,487.6857 1748.7656,487.6857 Q1747.5938,487.6857 1746.8906,488.217 Q1746.1875,488.7482 1745.8906,489.7014 Q1745.5938,490.6545 1745.5938,491.9201 Q1745.5938,493.9357 1746.3125,494.9045 Q1747.0313,495.8576 1748.625,495.8576 Q1749.2188,495.8576 1749.8438,495.7014 Q1750.4688,495.5451 1751.2969,495.1701 L1751.2969,497.3889 Q1750.5625,497.7014 1749.7656,497.8576 Q1748.9844,498.0139 1748.2188,498.0139 Z " fill="#000000"/><text fill="#000000" font-family="sans-serif" font-size="14" lengthAdjust="spacing" textLength="46" x="1769.25" y="496.524">Import</text><line style="stroke:#181818;stroke-width:0.5;" x1="1650" x2="1902" y1="507.092" y2="507.092"/><rect fill="none" height="6" style="stroke:#C82930;stroke-width:1.0;" width="6" x="1657" y="519.1259"/><text fill="#000000" font-family="sans-serif" font-size="14" lengthAdjust="spacing" textLength="80" x="1669" y="526.0579">path: String</text><line style="stroke:#181818;stroke-width:0.5;" x1="1650" x2="1902" y1="534.1599" y2="534.1599"/><ellipse cx="1660" cy="549.1939" fill="#84BE84" rx="3" ry="3" style="stroke:#038048;stroke-width:1.0;"/><text fill="#000000" font-family="sans-serif" font-size="14" lengthAdjust="spacing" textLength="58" x="1669" y="553.1258">Import():</text><ellipse cx="1660" cy="568.2618" fill="#84BE84" rx="3" ry="3" style="stroke:#038048;stroke-width:1.0;"/><text fill="#000000" font-family="sans-serif" font-size="14" lengthAdjust="spacing" textLength="228" x="1669" y="572.1938">importVcard(Rubrica, String): void</text></g><!--reverse link Rubrica to Contatto--><g id="link_Rubrica_Contatto"><path codeLine="116" d="M299.3385,303.3938 C298.0485,322.1938 297.49,330.382 296.09,350.722 " fill="none" id="Rubrica-backto-Contatto" style="stroke:#181818;stroke-width:1.0;"/><polygon fill="none" points="300.16,291.422,295.7586,297.1341,299.3385,303.3938,303.7399,297.6817,300.16,291.422" style="stroke:#181818;stroke-width:1.0;"/><text fill="#000000" font-family="sans-serif" font-size="13" lengthAdjust="spacing" textLength="7" x="292.433" y="313.0113">1</text><text fill="#000000" font-family="sans-serif" font-size="13" lengthAdjust="spacing" textLength="20" x="276.1847" y="339.2312">0..*</text></g><!--reverse link Contatto to ContattoEsteso--><g id="link_Contatto_ContattoEsteso"><path codeLine="117" d="M282.5531,722.5215 C282.4031,742.2415 282.39,744.282 282.24,763.882 " fill="none" id="Contatto-backto-ContattoEsteso" style="stroke:#181818;stroke-width:1.0;"/><polygon fill="none" points="282.69,704.522,276.5533,722.4758,288.5529,722.5671,282.69,704.522" style="stroke:#181818;stroke-width:1.0;"/></g><!--reverse link GenericController to RubricaController--><g id="link_GenericController_RubricaController"><path codeLine="118" d="M841.5043,632.7772 C887.6843,689.6672 936.51,749.802 986.57,811.462 " fill="none" id="GenericController-backto-RubricaController" style="stroke:#181818;stroke-width:1.0;"/><polygon fill="none" points="830.16,618.802,836.8459,636.5586,846.1627,628.9958,830.16,618.802" style="stroke:#181818;stroke-width:1.0;"/></g><!--reverse link GenericController to CreaContattoController--><g id="link_GenericController_CreaContattoController"><path codeLine="119" d="M744.8947,636.6899 C735.4847,720.6299 723.88,824.202 716.76,887.792 " fill="none" id="GenericController-backto-CreaContattoController" style="stroke:#181818;stroke-width:1.0;"/><polygon fill="none" points="746.9,618.802,738.932,636.0215,750.8573,637.3584,746.9,618.802" style="stroke:#181818;stroke-width:1.0;"/></g><!--link Rubrica to GenericController--><g id="link_Rubrica_GenericController"><path codeLine="120" d="M449.95,291.562 C477.35,311.092 505.69,331.592 532,351.142 C568.68,378.412 608.14,408.822 643.62,436.572 " fill="none" id="Rubrica-GenericController" style="stroke:#181818;stroke-width:1.0;"/></g><!--link Import to RubricaController--><g id="link_Import_RubricaController"><path codeLine="121" d="M1743.32,580.682 C1716.95,619.112 1676.8,670.432 1631,704.232 C1525.94,781.772 1390.42,837.962 1280.43,874.922 " fill="none" id="Import-RubricaController" style="stroke:#181818;stroke-width:1.0;"/></g><!--link Export to RubricaController--><g id="link_Export_RubricaController"><path codeLine="122" d="M1405.82,599.552 C1348.56,658.212 1266,742.782 1198.71,811.712 " fill="none" id="Export-RubricaController" style="stroke:#181818;stroke-width:1.0;"/></g><!--link App to RubricaController--><g id="link_App_RubricaController"><path codeLine="123" d="M1996.09,590.252 C1980.76,628.342 1955.85,675.332 1919,704.232 C1733.99,849.312 1469.0391,900.8738 1286.1991,919.5038 " fill="none" id="App-to-RubricaController" style="stroke:#181818;stroke-width:1.0;"/><polygon fill="#181818" points="1280.23,920.112,1289.5891,923.1791,1285.2042,919.6051,1288.7782,915.2203,1280.23,920.112" style="stroke:#181818;stroke-width:1.0;"/></g><!--SRC=[dLVVRzCm47xFNs7jAQKBOl0MJKXZ55HfQDCsu07nu2QtpE3OmNOdAEn_vzmwFnmxfSDxSEQxi-_EtttdDhJuJYiWQhrIhA3aTv8G78rRBgGmId8EIl_U2d0Kd6fDteC0j3Zl53hvTin3XNIMUoePuKmRQXMeCImdboiDwe6kE5oWuDG9v48RqFBroDOvd9FhtSVez5fge-XRHhciqZCytTp-Qk2Ot1Z5HDNEivmyI5QERDkWwJcj6tQvMd5MKICLIqVM92ShAJbGCRN3BN3WTrB8z62JHKqPZwXlzH-Jpcnt3IxwwMi85DBPA9E5o_CD-hfXKc2eEV6J7xTWxnZ791jsfU0ExzhUeLq21UK1DtZdL7i0FC5uxCAY1bM1sD0dx38dJA3JbBCDf1-lBux9DUgiLG5lrgBa44F7pctLeJQT1bBMWX2CeHLdihFndOhRQZ2BaXbR3MUSfmu5SLtPWFWCgmOhTey_fFllCHclxC1qhg0DJFQ08MD8nTL6k1ecbqIpIqO-Fav0_AnfV1Um-AKqERcY2eJn9Rf0sid9ZPqIpnsa6cKmFPYaI7QGCIWJBdjVlixYlhMqMCiIk7PSwHNYqD6k-7pc6t3N1zgSBeM12jGncORgdA0wgABBUeYWoNgrjlLQFh3_igLLnQGIUmv-4x3Pd22NRFE8SJkg33PTY-h_FHeQBpuXyzpP9F_JjI7ianxqpio_kSutx-e6wtuhc9wT4zt720g5h8Ii8PAdZ3IELcKionanoDUsjRoA6a_ksfgzt2izYKgXPzcOHwpCYOFpK_30TCVUQNzjLmffJPbVdkezrVVdM7nMZtcrFoVmOqsvJYzNtw0mirYVjKUrlKh-wwZAlb_eiamjKRceGY8DSRI3tv2nvYEPXwb0U2YmnhFFzUrefHUoeFmjDN0uKe_9ihPacNW0mCT9171Eyd9ISXAJC54onJORYPs1bJjSXLeQBmkxMqnKoBgnhWeiaIx2nAi20z6JwyhUgeqlEH2eUy2N3S0IgO1zq1n2gMz_RP-fGEEx4vQNnEirYv-DL6O0iRbR6Y8B-OEQ-o0E2sppgQ2g30apK0LjTwLj6tFpk3bsUjE4tkaZ1_SbiwozEEPkeOyY6WDMyLPj5uJpQVoYVzp-9KvgpOvEZeZCCdBquldpPqUuq3gPj1_RtK__e4u_Hfqe-57J6GJlx3swyGTKvopg1BQ9onNAmfCS7g8o-thAijUXv2y0]--></g></svg>