<?xml version="1.0" encoding="us-ascii" standalone="no"?><svg xmlns="http://www.w3.org/2000/svg" xmlns:xlink="http://www.w3.org/1999/xlink" contentStyleType="text/css" height="1221px" preserveAspectRatio="none" style="width:2225px;height:1221px;background:#FFFFFF;" version="1.1" viewBox="0 0 2225 1221" width="2225px" zoomAndPan="magnify"><defs/><g><!--cluster rubrica--><g id="cluster_rubrica"><path d="M8.5,6.602 L58.5,6.602 A3.75,3.75 0 0 1 61,9.102 L68,31.6699 L2215.5,31.6699 A2.5,2.5 0 0 1 2218,34.1699 L2218,1212.022 A2.5,2.5 0 0 1 2215.5,1214.522 L8.5,1214.522 A2.5,2.5 0 0 1 6,1212.022 L6,9.102 A2.5,2.5 0 0 1 8.5,6.602 " fill="none" style="stroke:#000000;stroke-width:1.5;"/><line style="stroke:#000000;stroke-width:1.5;" x1="6" x2="68" y1="31.6699" y2="31.6699"/><text fill="#000000" font-family="sans-serif" font-size="14" font-weight="bold" lengthAdjust="spacing" textLength="49" x="10" y="23.5679">rubrica</text></g><!--cluster controllers--><g id="cluster_controllers"><path d="M558.5,360.812 L634.5,360.812 A3.75,3.75 0 0 1 637,363.312 L644,385.8799 L1287.5,385.8799 A2.5,2.5 0 0 1 1290,388.3799 L1290,1188.022 A2.5,2.5 0 0 1 1287.5,1190.522 L558.5,1190.522 A2.5,2.5 0 0 1 556,1188.022 L556,363.312 A2.5,2.5 0 0 1 558.5,360.812 " fill="none" style="stroke:#000000;stroke-width:1.5;"/><line style="stroke:#000000;stroke-width:1.5;" x1="556" x2="644" y1="385.8799" y2="385.8799"/><text fill="#000000" font-family="sans-serif" font-size="14" font-weight="bold" lengthAdjust="spacing" textLength="75" x="560" y="377.7779">controllers</text></g><!--cluster models--><g id="cluster_models"><path d="M32.5,52.602 L84.5,52.602 A3.75,3.75 0 0 1 87,55.102 L94,77.6699 L529.5,77.6699 A2.5,2.5 0 0 1 532,80.1699 L532,1102.212 A2.5,2.5 0 0 1 529.5,1104.712 L32.5,1104.712 A2.5,2.5 0 0 1 30,1102.212 L30,55.102 A2.5,2.5 0 0 1 32.5,52.602 " fill="none" style="stroke:#000000;stroke-width:1.5;"/><line style="stroke:#000000;stroke-width:1.5;" x1="30" x2="94" y1="77.6699" y2="77.6699"/><text fill="#000000" font-family="sans-serif" font-size="14" font-weight="bold" lengthAdjust="spacing" textLength="51" x="34" y="69.5679">models</text></g><!--cluster gestoreIO--><g id="cluster_gestoreIO"><path d="M1316.5,389.412 L1386.5,389.412 A3.75,3.75 0 0 1 1389,391.912 L1396,414.4799 L2024.5,414.4799 A2.5,2.5 0 0 1 2027,416.9799 L2027,546.122 A2.5,2.5 0 0 1 2024.5,548.622 L1316.5,548.622 A2.5,2.5 0 0 1 1314,546.122 L1314,391.912 A2.5,2.5 0 0 1 1316.5,389.412 " fill="none" style="stroke:#000000;stroke-width:1.5;"/><line style="stroke:#000000;stroke-width:1.5;" x1="1314" x2="1396" y1="414.4799" y2="414.4799"/><text fill="#000000" font-family="sans-serif" font-size="14" font-weight="bold" lengthAdjust="spacing" textLength="69" x="1318" y="406.3779">gestoreIO</text></g><!--class App--><g id="elem_App"><rect codeLine="44" fill="#F1F1F1" height="124.2717" id="App" rx="2.5" ry="2.5" style="stroke:#181818;stroke-width:0.5;" width="155" x="2046.5" y="417.882"/><ellipse cx="2106.25" cy="433.882" fill="#ADD1B2" rx="11" ry="11" style="stroke:#181818;stroke-width:1.0;"/><path d="M2105.7188,440.8039 Q2103.9688,440.8039 2102.8281,440.0695 Q2101.7031,439.3195 2101.1406,437.9757 Q2100.5938,436.6164 2100.5938,434.8195 Q2100.5938,432.7882 2101.25,431.3351 Q2101.9063,429.882 2103.1875,429.1007 Q2104.4688,428.3195 2106.3438,428.3195 Q2107.2344,428.3195 2107.9063,428.507 Q2108.5781,428.6789 2109.2656,429.0226 L2108.4531,431.0382 Q2107.8281,430.7257 2107.2813,430.6007 Q2106.75,430.4757 2106.2656,430.4757 Q2105.0938,430.4757 2104.3906,431.007 Q2103.6875,431.5382 2103.3906,432.4914 Q2103.0938,433.4445 2103.0938,434.7101 Q2103.0938,436.7257 2103.8125,437.6945 Q2104.5313,438.6476 2106.125,438.6476 Q2106.7188,438.6476 2107.3438,438.4914 Q2107.9688,438.3351 2108.7969,437.9601 L2108.7969,440.1789 Q2108.0625,440.4914 2107.2656,440.6476 Q2106.4844,440.8039 2105.7188,440.8039 Z " fill="#000000"/><text fill="#000000" font-family="sans-serif" font-size="14" lengthAdjust="spacing" textLength="27" x="2126.75" y="439.314">App</text><line style="stroke:#181818;stroke-width:0.5;" x1="2047.5" x2="2200.5" y1="449.882" y2="449.882"/><rect fill="none" height="6" style="stroke:#C82930;stroke-width:1.0;" width="6" x="2054.5" y="461.9159"/><text fill="#000000" font-family="sans-serif" font-size="14" lengthAdjust="spacing" textLength="79" x="2066.5" y="468.8479">root: Parent</text><rect fill="none" height="6" style="stroke:#C82930;stroke-width:1.0;" width="6" x="2054.5" y="480.9839"/><text fill="#000000" font-family="sans-serif" font-size="14" lengthAdjust="spacing" textLength="87" x="2066.5" y="487.9158">scene: Scene</text><line style="stroke:#181818;stroke-width:0.5;" x1="2047.5" x2="2200.5" y1="496.0178" y2="496.0178"/><ellipse cx="2057.5" cy="511.0518" fill="#84BE84" rx="3" ry="3" style="stroke:#038048;stroke-width:1.0;"/><text fill="#000000" font-family="sans-serif" font-size="14" lengthAdjust="spacing" textLength="113" x="2066.5" y="514.9838">start(Stage): void</text><ellipse cx="2057.5" cy="530.1197" fill="#84BE84" rx="3" ry="3" style="stroke:#038048;stroke-width:1.0;"/><text fill="#000000" font-family="sans-serif" font-size="14" lengthAdjust="spacing" textLength="129" x="2066.5" y="534.0517">main(String[]): void</text></g><!--class GenericController--><g id="elem_GenericController"><rect codeLine="4" fill="#F1F1F1" height="162.4075" id="GenericController" rx="2.5" ry="2.5" style="stroke:#181818;stroke-width:0.5;" width="369" x="572.5" y="398.812"/><ellipse cx="697.25" cy="414.812" fill="#A9DCDF" rx="11" ry="11" style="stroke:#181818;stroke-width:1.0;"/><path d="M692.4219,420.562 L695.7656,408.3745 L698.9063,408.3745 L702.2813,420.562 L699.8125,420.562 L699.0781,417.5464 L695.5625,417.5464 L694.8125,420.562 L692.4219,420.562 Z M696.8281,412.5151 L696.0781,415.5151 L698.5938,415.5151 L697.875,412.5151 Q697.7344,411.937 697.6094,411.3901 Q697.4844,410.8276 697.3438,410.2495 Q697.2344,410.8276 697.0938,411.3901 Q696.9531,411.937 696.8281,412.5151 Z " fill="#000000"/><text fill="#000000" font-family="sans-serif" font-size="14" font-style="italic" lengthAdjust="spacing" textLength="111" x="717.75" y="420.244">GenericController</text><line style="stroke:#181818;stroke-width:0.5;" x1="573.5" x2="940.5" y1="430.812" y2="430.812"/><rect fill="none" height="6" style="stroke:#C82930;stroke-width:1.0;" width="6" x="580.5" y="442.8459"/><text fill="#000000" font-family="sans-serif" font-size="14" lengthAdjust="spacing" textLength="262" x="592.5" y="449.7779">listaContatti: ObservableList&lt;Contatto&gt;</text><rect fill="none" height="6" style="stroke:#C82930;stroke-width:1.0;" width="6" x="580.5" y="461.9139"/><text fill="#000000" font-family="sans-serif" font-size="14" lengthAdjust="spacing" textLength="109" x="592.5" y="468.8458">rubrica: Rubrica</text><line style="stroke:#181818;stroke-width:0.5;" x1="573.5" x2="940.5" y1="476.9478" y2="476.9478"/><ellipse cx="583.5" cy="491.9818" fill="#84BE84" rx="3" ry="3" style="stroke:#038048;stroke-width:1.0;"/><text fill="#000000" font-family="sans-serif" font-size="14" lengthAdjust="spacing" textLength="296" x="592.5" y="495.9138">mostraDialog(AlertType, String, String): void</text><polygon fill="#FFFF44" points="583.5,506.0497,587.5,510.0497,583.5,514.0497,579.5,510.0497" style="stroke:#B38D22;stroke-width:1.0;"/><text fill="#000000" font-family="sans-serif" font-size="14" lengthAdjust="spacing" textLength="343" x="592.5" y="514.9817">controllaCampiObbligatori(String, String) : boolean</text><polygon fill="#FFFF44" points="583.5,525.1176,587.5,529.1176,583.5,533.1176,579.5,529.1176" style="stroke:#B38D22;stroke-width:1.0;"/><text fill="#000000" font-family="sans-serif" font-size="14" lengthAdjust="spacing" textLength="236" x="592.5" y="534.0496">controllaTelelfono(String) : boolean</text><polygon fill="#FFFF44" points="583.5,544.1855,587.5,548.1855,583.5,552.1855,579.5,548.1855" style="stroke:#B38D22;stroke-width:1.0;"/><text fill="#000000" font-family="sans-serif" font-size="14" lengthAdjust="spacing" textLength="211" x="592.5" y="553.1175">controllaEmail(String) : boolean</text></g><!--class RubricaController--><g id="elem_RubricaController"><rect codeLine="14" fill="#F1F1F1" height="467.4942" id="RubricaController" rx="2.5" ry="2.5" style="stroke:#181818;stroke-width:0.5;" width="351" x="922.5" y="707.032"/><ellipse cx="1034.25" cy="723.032" fill="#ADD1B2" rx="11" ry="11" style="stroke:#181818;stroke-width:1.0;"/><path d="M1033.7188,729.9539 Q1031.9688,729.9539 1030.8281,729.2195 Q1029.7031,728.4695 1029.1406,727.1257 Q1028.5938,725.7664 1028.5938,723.9695 Q1028.5938,721.9382 1029.25,720.4851 Q1029.9063,719.032 1031.1875,718.2507 Q1032.4688,717.4695 1034.3438,717.4695 Q1035.2344,717.4695 1035.9063,717.657 Q1036.5781,717.8289 1037.2656,718.1726 L1036.4531,720.1882 Q1035.8281,719.8757 1035.2813,719.7507 Q1034.75,719.6257 1034.2656,719.6257 Q1033.0938,719.6257 1032.3906,720.157 Q1031.6875,720.6882 1031.3906,721.6414 Q1031.0938,722.5945 1031.0938,723.8601 Q1031.0938,725.8757 1031.8125,726.8445 Q1032.5313,727.7976 1034.125,727.7976 Q1034.7188,727.7976 1035.3438,727.6414 Q1035.9688,727.4851 1036.7969,727.1101 L1036.7969,729.3289 Q1036.0625,729.6414 1035.2656,729.7976 Q1034.4844,729.9539 1033.7188,729.9539 Z " fill="#000000"/><text fill="#000000" font-family="sans-serif" font-size="14" lengthAdjust="spacing" textLength="119" x="1054.75" y="728.464">RubricaController</text><line style="stroke:#181818;stroke-width:0.5;" x1="923.5" x2="1272.5" y1="739.032" y2="739.032"/><rect fill="none" height="6" style="stroke:#C82930;stroke-width:1.0;" width="6" x="930.5" y="751.0659"/><text fill="#000000" font-family="sans-serif" font-size="14" lengthAdjust="spacing" textLength="197" x="942.5" y="757.9979">contattoSelezionato: Contatto</text><rect fill="none" height="6" style="stroke:#C82930;stroke-width:1.0;" width="6" x="930.5" y="770.1339"/><text fill="#000000" font-family="sans-serif" font-size="14" lengthAdjust="spacing" textLength="257" x="942.5" y="777.0658">filteredContatti: FilteredList&lt;Contatto&gt;</text><rect fill="none" height="6" style="stroke:#C82930;stroke-width:1.0;" width="6" x="930.5" y="789.2018"/><text fill="#000000" font-family="sans-serif" font-size="14" lengthAdjust="spacing" textLength="303" x="942.5" y="796.1338">contattiFiltratiPreferiti: FilteredList&lt;Contatto&gt;</text><rect fill="none" height="6" style="stroke:#C82930;stroke-width:1.0;" width="6" x="930.5" y="808.2697"/><text fill="#000000" font-family="sans-serif" font-size="14" lengthAdjust="spacing" textLength="325" x="942.5" y="815.2017">contattiFiltratiEmergenza: FilteredList&lt;Contatto&gt;</text><line style="stroke:#181818;stroke-width:0.5;" x1="923.5" x2="1272.5" y1="823.3036" y2="823.3036"/><ellipse cx="933.5" cy="838.3376" fill="#84BE84" rx="3" ry="3" style="stroke:#038048;stroke-width:1.0;"/><text fill="#000000" font-family="sans-serif" font-size="14" lengthAdjust="spacing" textLength="245" x="942.5" y="842.2696">initialize(URL, ResourceBundle): void</text><ellipse cx="933.5" cy="857.4055" fill="#84BE84" rx="3" ry="3" style="stroke:#038048;stroke-width:1.0;"/><text fill="#000000" font-family="sans-serif" font-size="14" lengthAdjust="spacing" textLength="187" x="942.5" y="861.3375">handleNuovoContatto():void</text><rect fill="#F24D5C" height="6" style="stroke:#C82930;stroke-width:1.0;" width="6" x="930.5" y="873.4734"/><text fill="#000000" font-family="sans-serif" font-size="14" lengthAdjust="spacing" textLength="170" x="942.5" y="880.4054">filtraContatti(String): void</text><rect fill="#F24D5C" height="6" style="stroke:#C82930;stroke-width:1.0;" width="6" x="930.5" y="892.5414"/><text fill="#000000" font-family="sans-serif" font-size="14" lengthAdjust="spacing" textLength="262" x="942.5" y="899.4733">mostraDettaglioContatti(Contatto): void</text><rect fill="#F24D5C" height="6" style="stroke:#C82930;stroke-width:1.0;" width="6" x="930.5" y="911.6093"/><text fill="#000000" font-family="sans-serif" font-size="14" lengthAdjust="spacing" textLength="183" x="942.5" y="918.5413">openWebpage(String): void</text><rect fill="#F24D5C" height="6" style="stroke:#C82930;stroke-width:1.0;" width="6" x="930.5" y="930.6772"/><text fill="#000000" font-family="sans-serif" font-size="14" lengthAdjust="spacing" textLength="190" x="942.5" y="937.6092">setEditableAll(boolean): void</text><ellipse cx="933.5" cy="952.7451" fill="#84BE84" rx="3" ry="3" style="stroke:#038048;stroke-width:1.0;"/><text fill="#000000" font-family="sans-serif" font-size="14" lengthAdjust="spacing" textLength="198" x="942.5" y="956.6771">handleEliminaContatto(): void</text><ellipse cx="933.5" cy="971.813" fill="#84BE84" rx="3" ry="3" style="stroke:#038048;stroke-width:1.0;"/><text fill="#000000" font-family="sans-serif" font-size="14" lengthAdjust="spacing" textLength="206" x="942.5" y="975.745">handleModificaContatto(): void</text><rect fill="#F24D5C" height="6" style="stroke:#C82930;stroke-width:1.0;" width="6" x="930.5" y="987.8809"/><text fill="#000000" font-family="sans-serif" font-size="14" lengthAdjust="spacing" textLength="200" x="942.5" y="994.8129">gestioneSalvaModifiche():void</text><rect fill="#F24D5C" height="6" style="stroke:#C82930;stroke-width:1.0;" width="6" x="930.5" y="1006.9489"/><text fill="#000000" font-family="sans-serif" font-size="14" lengthAdjust="spacing" textLength="127" x="942.5" y="1013.8808">showRubrica():void</text><rect fill="#F24D5C" height="6" style="stroke:#C82930;stroke-width:1.0;" width="6" x="930.5" y="1026.0168"/><text fill="#000000" font-family="sans-serif" font-size="14" lengthAdjust="spacing" textLength="129" x="942.5" y="1032.9488">showPreferiti():void</text><rect fill="#F24D5C" height="6" style="stroke:#C82930;stroke-width:1.0;" width="6" x="930.5" y="1045.0847"/><text fill="#000000" font-family="sans-serif" font-size="14" lengthAdjust="spacing" textLength="151" x="942.5" y="1052.0167">showEmergenza():void</text><rect fill="#F24D5C" height="6" style="stroke:#C82930;stroke-width:1.0;" width="6" x="930.5" y="1064.1526"/><text fill="#000000" font-family="sans-serif" font-size="14" lengthAdjust="spacing" textLength="159" x="942.5" y="1071.0846">toggleEmergenza():void</text><rect fill="#F24D5C" height="6" style="stroke:#C82930;stroke-width:1.0;" width="6" x="930.5" y="1083.2205"/><text fill="#000000" font-family="sans-serif" font-size="14" lengthAdjust="spacing" textLength="141" x="942.5" y="1090.1525">togglePreferiti(): void</text><rect fill="#F24D5C" height="6" style="stroke:#C82930;stroke-width:1.0;" width="6" x="930.5" y="1102.2884"/><text fill="#000000" font-family="sans-serif" font-size="14" lengthAdjust="spacing" textLength="93" x="942.5" y="1109.2204">openGit():void</text><ellipse cx="933.5" cy="1124.3564" fill="#84BE84" rx="3" ry="3" style="stroke:#038048;stroke-width:1.0;"/><text fill="#000000" font-family="sans-serif" font-size="14" lengthAdjust="spacing" textLength="185" x="942.5" y="1128.2883">handleImportRubrica():void</text><ellipse cx="933.5" cy="1143.4243" fill="#84BE84" rx="3" ry="3" style="stroke:#038048;stroke-width:1.0;"/><text fill="#000000" font-family="sans-serif" font-size="14" lengthAdjust="spacing" textLength="186" x="942.5" y="1147.3563">handleExportRubrica(): void</text><ellipse cx="933.5" cy="1162.4922" fill="#84BE84" rx="3" ry="3" style="stroke:#038048;stroke-width:1.0;"/><text fill="#000000" font-family="sans-serif" font-size="14" lengthAdjust="spacing" textLength="191" x="942.5" y="1166.4242">handleExportContatto(): void</text></g><!--class CreaContattoController--><g id="elem_CreaContattoController"><rect codeLine="39" fill="#F1F1F1" height="67.0679" id="CreaContattoController" rx="2.5" ry="2.5" style="stroke:#181818;stroke-width:0.5;" width="315" x="572.5" y="907.242"/><ellipse cx="648.25" cy="923.242" fill="#ADD1B2" rx="11" ry="11" style="stroke:#181818;stroke-width:1.0;"/><path d="M647.7188,930.1639 Q645.9688,930.1639 644.8281,929.4295 Q643.7031,928.6795 643.1406,927.3357 Q642.5938,925.9764 642.5938,924.1795 Q642.5938,922.1482 643.25,920.6951 Q643.9063,919.242 645.1875,918.4607 Q646.4688,917.6795 648.3438,917.6795 Q649.2344,917.6795 649.9063,917.867 Q650.5781,918.0389 651.2656,918.3826 L650.4531,920.3982 Q649.8281,920.0857 649.2813,919.9607 Q648.75,919.8357 648.2656,919.8357 Q647.0938,919.8357 646.3906,920.367 Q645.6875,920.8982 645.3906,921.8514 Q645.0938,922.8045 645.0938,924.0701 Q645.0938,926.0857 645.8125,927.0545 Q646.5313,928.0076 648.125,928.0076 Q648.7188,928.0076 649.3438,927.8514 Q649.9688,927.6951 650.7969,927.3201 L650.7969,929.5389 Q650.0625,929.8514 649.2656,930.0076 Q648.4844,930.1639 647.7188,930.1639 Z " fill="#000000"/><text fill="#000000" font-family="sans-serif" font-size="14" lengthAdjust="spacing" textLength="155" x="668.75" y="928.674">CreaContattoController</text><line style="stroke:#181818;stroke-width:0.5;" x1="573.5" x2="886.5" y1="939.242" y2="939.242"/><line style="stroke:#181818;stroke-width:0.5;" x1="573.5" x2="886.5" y1="947.242" y2="947.242"/><ellipse cx="583.5" cy="962.2759" fill="#84BE84" rx="3" ry="3" style="stroke:#038048;stroke-width:1.0;"/><text fill="#000000" font-family="sans-serif" font-size="14" lengthAdjust="spacing" textLength="289" x="592.5" y="966.2079">handleAggiungiContatto(ActionEvent): void</text></g><!--class Rubrica--><g id="elem_Rubrica"><rect codeLine="53" fill="#F1F1F1" height="162.4075" id="Rubrica" rx="2.5" ry="2.5" style="stroke:#181818;stroke-width:0.5;" width="274" x="194" y="90.602"/><ellipse cx="300.75" cy="106.602" fill="#ADD1B2" rx="11" ry="11" style="stroke:#181818;stroke-width:1.0;"/><path d="M300.2188,113.5239 Q298.4688,113.5239 297.3281,112.7895 Q296.2031,112.0395 295.6406,110.6957 Q295.0938,109.3364 295.0938,107.5395 Q295.0938,105.5082 295.75,104.0551 Q296.4063,102.602 297.6875,101.8207 Q298.9688,101.0395 300.8438,101.0395 Q301.7344,101.0395 302.4063,101.227 Q303.0781,101.3989 303.7656,101.7426 L302.9531,103.7582 Q302.3281,103.4457 301.7813,103.3207 Q301.25,103.1957 300.7656,103.1957 Q299.5938,103.1957 298.8906,103.727 Q298.1875,104.2582 297.8906,105.2114 Q297.5938,106.1645 297.5938,107.4301 Q297.5938,109.4457 298.3125,110.4145 Q299.0313,111.3676 300.625,111.3676 Q301.2188,111.3676 301.8438,111.2114 Q302.4688,111.0551 303.2969,110.6801 L303.2969,112.8989 Q302.5625,113.2114 301.7656,113.3676 Q300.9844,113.5239 300.2188,113.5239 Z " fill="#000000"/><text fill="#000000" font-family="sans-serif" font-size="14" lengthAdjust="spacing" textLength="52" x="321.25" y="112.034">Rubrica</text><line style="stroke:#181818;stroke-width:0.5;" x1="195" x2="467" y1="122.602" y2="122.602"/><rect fill="none" height="6" style="stroke:#C82930;stroke-width:1.0;" width="6" x="202" y="134.6359"/><text fill="#000000" font-family="sans-serif" font-size="14" lengthAdjust="spacing" textLength="218" x="214" y="141.5679">rubrica: Map&lt;Integer, Contatto&gt;</text><line style="stroke:#181818;stroke-width:0.5;" x1="195" x2="467" y1="149.6699" y2="149.6699"/><ellipse cx="205" cy="164.7039" fill="#84BE84" rx="3" ry="3" style="stroke:#038048;stroke-width:1.0;"/><text fill="#000000" font-family="sans-serif" font-size="14" lengthAdjust="spacing" textLength="248" x="214" y="168.6358">aggiungiContatto(Contatto): Contatto</text><ellipse cx="205" cy="183.7718" fill="#84BE84" rx="3" ry="3" style="stroke:#038048;stroke-width:1.0;"/><text fill="#000000" font-family="sans-serif" font-size="14" lengthAdjust="spacing" textLength="233" x="214" y="187.7038">ricercaContatto(Contatto): Contatto</text><ellipse cx="205" cy="202.8397" fill="#84BE84" rx="3" ry="3" style="stroke:#038048;stroke-width:1.0;"/><text fill="#000000" font-family="sans-serif" font-size="14" lengthAdjust="spacing" textLength="238" x="214" y="206.7717">rimuoviContatto(Contatto): Contatto</text><ellipse cx="205" cy="221.9076" fill="#84BE84" rx="3" ry="3" style="stroke:#038048;stroke-width:1.0;"/><text fill="#000000" font-family="sans-serif" font-size="14" lengthAdjust="spacing" textLength="245" x="214" y="225.8396">aggiornaContatto(Contatto): Boolean</text><ellipse cx="205" cy="240.9755" fill="#84BE84" rx="3" ry="3" style="stroke:#038048;stroke-width:1.0;"/><text fill="#000000" font-family="sans-serif" font-size="14" lengthAdjust="spacing" textLength="111" x="214" y="244.9075">toString(): String</text></g><!--class Contatto--><g id="elem_Contatto"><rect codeLine="64" fill="#F1F1F1" height="334.0188" id="Contatto" rx="2.5" ry="2.5" style="stroke:#181818;stroke-width:0.5;" width="456" x="56" y="313.012"/><ellipse cx="252.25" cy="329.012" fill="#A9DCDF" rx="11" ry="11" style="stroke:#181818;stroke-width:1.0;"/><path d="M247.4219,334.762 L250.7656,322.5745 L253.9063,322.5745 L257.2813,334.762 L254.8125,334.762 L254.0781,331.7464 L250.5625,331.7464 L249.8125,334.762 L247.4219,334.762 Z M251.8281,326.7151 L251.0781,329.7151 L253.5938,329.7151 L252.875,326.7151 Q252.7344,326.137 252.6094,325.5901 Q252.4844,325.0276 252.3438,324.4495 Q252.2344,325.0276 252.0938,325.5901 Q251.9531,326.137 251.8281,326.7151 Z " fill="#000000"/><text fill="#000000" font-family="sans-serif" font-size="14" font-style="italic" lengthAdjust="spacing" textLength="55" x="272.75" y="334.444">Contatto</text><line style="stroke:#181818;stroke-width:0.5;" x1="57" x2="511" y1="345.012" y2="345.012"/><rect fill="none" height="6" style="stroke:#C82930;stroke-width:1.0;" width="6" x="64" y="357.0459"/><text fill="#000000" font-family="sans-serif" font-size="14" lengthAdjust="spacing" textLength="138" x="76" y="363.9779">emergenza: Boolean</text><rect fill="none" height="6" style="stroke:#C82930;stroke-width:1.0;" width="6" x="64" y="376.1139"/><text fill="#000000" font-family="sans-serif" font-size="14" lengthAdjust="spacing" textLength="87" x="76" y="383.0458">nome: String</text><rect fill="none" height="6" style="stroke:#C82930;stroke-width:1.0;" width="6" x="64" y="395.1818"/><text fill="#000000" font-family="sans-serif" font-size="14" lengthAdjust="spacing" textLength="111" x="76" y="402.1138">cognome: String</text><rect fill="none" height="6" style="stroke:#C82930;stroke-width:1.0;" width="6" x="64" y="414.2497"/><text fill="#000000" font-family="sans-serif" font-size="14" lengthAdjust="spacing" textLength="112" x="76" y="421.1817">telefono1: String</text><rect fill="none" height="6" style="stroke:#C82930;stroke-width:1.0;" width="6" x="64" y="433.3176"/><text fill="#000000" font-family="sans-serif" font-size="14" lengthAdjust="spacing" textLength="112" x="76" y="440.2496">telefono2: String</text><rect fill="none" height="6" style="stroke:#C82930;stroke-width:1.0;" width="6" x="64" y="452.3855"/><text fill="#000000" font-family="sans-serif" font-size="14" lengthAdjust="spacing" textLength="112" x="76" y="459.3175">telefono3: String</text><rect fill="none" height="6" style="stroke:#C82930;stroke-width:1.0;" width="6" x="64" y="471.4534"/><text fill="#000000" font-family="sans-serif" font-size="14" lengthAdjust="spacing" textLength="121" x="76" y="478.3854">preferito: Boolean</text><rect fill="none" height="6" style="stroke:#C82930;stroke-width:1.0;" width="6" x="64" y="490.5214"/><text fill="#000000" font-family="sans-serif" font-size="14" lengthAdjust="spacing" textLength="71" x="76" y="497.4533">id: Integer</text><line style="stroke:#181818;stroke-width:0.5;" x1="57" x2="511" y1="505.5553" y2="505.5553"/><ellipse cx="67" cy="520.5893" fill="#84BE84" rx="3" ry="3" style="stroke:#038048;stroke-width:1.0;"/><text fill="#000000" font-family="sans-serif" font-size="14" lengthAdjust="spacing" textLength="430" x="76" y="524.5213">Contatto(String, String, String, String, String, Boolean, Boolean):</text><ellipse cx="67" cy="539.6572" fill="#84BE84" rx="3" ry="3" style="stroke:#038048;stroke-width:1.0;"/><text fill="#000000" font-family="sans-serif" font-size="14" lengthAdjust="spacing" textLength="111" x="76" y="543.5892">toString(): String</text><ellipse cx="67" cy="558.7251" fill="#84BE84" rx="3" ry="3" style="stroke:#038048;stroke-width:1.0;"/><text fill="#000000" font-family="sans-serif" font-size="14" lengthAdjust="spacing" textLength="214" x="76" y="562.6571">isEmergenza(): BooleanProperty</text><ellipse cx="67" cy="577.793" fill="#84BE84" rx="3" ry="3" style="stroke:#038048;stroke-width:1.0;"/><text fill="#000000" font-family="sans-serif" font-size="14" lengthAdjust="spacing" textLength="101" x="76" y="581.725">hashCode(): int</text><ellipse cx="67" cy="596.8609" fill="#84BE84" rx="3" ry="3" style="stroke:#038048;stroke-width:1.0;"/><text fill="#000000" font-family="sans-serif" font-size="14" lengthAdjust="spacing" textLength="159" x="76" y="600.7929">equals(Object): boolean</text><ellipse cx="67" cy="615.9289" fill="#84BE84" rx="3" ry="3" style="stroke:#038048;stroke-width:1.0;"/><text fill="#000000" font-family="sans-serif" font-size="14" lengthAdjust="spacing" textLength="196" x="76" y="619.8608">isPreferito(): BooleanProperty</text><polygon fill="#FFFF44" points="67,629.9968,71,633.9968,67,637.9968,63,633.9968" style="stroke:#B38D22;stroke-width:1.0;"/><text fill="#000000" font-family="sans-serif" font-size="14" lengthAdjust="spacing" textLength="132" x="76" y="638.9288">generaId() : Integer</text></g><!--class ContattoEsteso--><g id="elem_ContattoEsteso"><rect codeLine="82" fill="#F1F1F1" height="295.8829" id="ContattoEsteso" rx="2.5" ry="2.5" style="stroke:#181818;stroke-width:0.5;" width="469" x="46.5" y="792.832"/><ellipse cx="226.75" cy="808.832" fill="#ADD1B2" rx="11" ry="11" style="stroke:#181818;stroke-width:1.0;"/><path d="M226.2188,815.7539 Q224.4688,815.7539 223.3281,815.0195 Q222.2031,814.2695 221.6406,812.9257 Q221.0938,811.5664 221.0938,809.7695 Q221.0938,807.7382 221.75,806.2851 Q222.4063,804.832 223.6875,804.0507 Q224.9688,803.2695 226.8438,803.2695 Q227.7344,803.2695 228.4063,803.457 Q229.0781,803.6289 229.7656,803.9726 L228.9531,805.9882 Q228.3281,805.6757 227.7813,805.5507 Q227.25,805.4257 226.7656,805.4257 Q225.5938,805.4257 224.8906,805.957 Q224.1875,806.4882 223.8906,807.4414 Q223.5938,808.3945 223.5938,809.6601 Q223.5938,811.6757 224.3125,812.6445 Q225.0313,813.5976 226.625,813.5976 Q227.2188,813.5976 227.8438,813.4414 Q228.4688,813.2851 229.2969,812.9101 L229.2969,815.1289 Q228.5625,815.4414 227.7656,815.5976 Q226.9844,815.7539 226.2188,815.7539 Z " fill="#000000"/><text fill="#000000" font-family="sans-serif" font-size="14" lengthAdjust="spacing" textLength="100" x="247.25" y="814.264">ContattoEsteso</text><line style="stroke:#181818;stroke-width:0.5;" x1="47.5" x2="514.5" y1="824.832" y2="824.832"/><rect fill="none" height="6" style="stroke:#C82930;stroke-width:1.0;" width="6" x="54.5" y="836.8659"/><text fill="#000000" font-family="sans-serif" font-size="14" lengthAdjust="spacing" textLength="94" x="66.5" y="843.7979">email1: String</text><rect fill="none" height="6" style="stroke:#C82930;stroke-width:1.0;" width="6" x="54.5" y="855.9339"/><text fill="#000000" font-family="sans-serif" font-size="14" lengthAdjust="spacing" textLength="94" x="66.5" y="862.8658">email2: String</text><rect fill="none" height="6" style="stroke:#C82930;stroke-width:1.0;" width="6" x="54.5" y="875.0018"/><text fill="#000000" font-family="sans-serif" font-size="14" lengthAdjust="spacing" textLength="94" x="66.5" y="881.9338">email3: String</text><rect fill="none" height="6" style="stroke:#C82930;stroke-width:1.0;" width="6" x="54.5" y="894.0697"/><text fill="#000000" font-family="sans-serif" font-size="14" lengthAdjust="spacing" textLength="176" x="66.5" y="901.0017">indirizzoResidenza: String</text><rect fill="none" height="6" style="stroke:#C82930;stroke-width:1.0;" width="6" x="54.5" y="913.1376"/><text fill="#000000" font-family="sans-serif" font-size="14" lengthAdjust="spacing" textLength="103" x="66.5" y="920.0696">sitoWeb: String</text><rect fill="none" height="6" style="stroke:#C82930;stroke-width:1.0;" width="6" x="54.5" y="932.2055"/><text fill="#000000" font-family="sans-serif" font-size="14" lengthAdjust="spacing" textLength="156" x="66.5" y="939.1375">compleanno: LocalDate</text><rect fill="none" height="6" style="stroke:#C82930;stroke-width:1.0;" width="6" x="54.5" y="951.2734"/><text fill="#000000" font-family="sans-serif" font-size="14" lengthAdjust="spacing" textLength="79" x="66.5" y="958.2054">note: String</text><line style="stroke:#181818;stroke-width:0.5;" x1="47.5" x2="514.5" y1="966.3074" y2="966.3074"/><ellipse cx="57.5" cy="981.3414" fill="#84BE84" rx="3" ry="3" style="stroke:#038048;stroke-width:1.0;"/><text fill="#000000" font-family="sans-serif" font-size="14" lengthAdjust="spacing" textLength="443" x="66.5" y="985.2733">ContattoEsteso(String, String, String, String, String, String, String,</text><text fill="#000000" font-family="sans-serif" font-size="14" lengthAdjust="spacing" textLength="389" x="66.5" y="1004.3413">String, LocalDate, String, String, String, Boolean, Boolean)</text><ellipse cx="57.5" cy="1019.4772" fill="#84BE84" rx="3" ry="3" style="stroke:#038048;stroke-width:1.0;"/><text fill="#000000" font-family="sans-serif" font-size="14" lengthAdjust="spacing" textLength="111" x="66.5" y="1023.4092">toString(): String</text><ellipse cx="57.5" cy="1038.5451" fill="#84BE84" rx="3" ry="3" style="stroke:#038048;stroke-width:1.0;"/><text fill="#000000" font-family="sans-serif" font-size="14" lengthAdjust="spacing" textLength="163" x="66.5" y="1042.4771">equals(Object) : boolean</text><ellipse cx="57.5" cy="1057.613" fill="#84BE84" rx="3" ry="3" style="stroke:#038048;stroke-width:1.0;"/><text fill="#000000" font-family="sans-serif" font-size="14" lengthAdjust="spacing" textLength="101" x="66.5" y="1061.545">hashCode(): int</text><polygon fill="#FFFF44" points="57.5,1071.6809,61.5,1075.6809,57.5,1079.6809,53.5,1075.6809" style="stroke:#B38D22;stroke-width:1.0;"/><text fill="#000000" font-family="sans-serif" font-size="14" lengthAdjust="spacing" textLength="128" x="66.5" y="1080.6129">generaId(): Integer</text></g><!--class Export--><g id="elem_Export"><rect codeLine="104" fill="#F1F1F1" height="105.2038" id="Export" rx="2.5" ry="2.5" style="stroke:#181818;stroke-width:0.5;" width="284" x="1330" y="427.412"/><ellipse cx="1446.25" cy="443.412" fill="#ADD1B2" rx="11" ry="11" style="stroke:#181818;stroke-width:1.0;"/><path d="M1445.7188,450.3339 Q1443.9688,450.3339 1442.8281,449.5995 Q1441.7031,448.8495 1441.1406,447.5057 Q1440.5938,446.1464 1440.5938,444.3495 Q1440.5938,442.3182 1441.25,440.8651 Q1441.9063,439.412 1443.1875,438.6307 Q1444.4688,437.8495 1446.3438,437.8495 Q1447.2344,437.8495 1447.9063,438.037 Q1448.5781,438.2089 1449.2656,438.5526 L1448.4531,440.5682 Q1447.8281,440.2557 1447.2813,440.1307 Q1446.75,440.0057 1446.2656,440.0057 Q1445.0938,440.0057 1444.3906,440.537 Q1443.6875,441.0682 1443.3906,442.0214 Q1443.0938,442.9745 1443.0938,444.2401 Q1443.0938,446.2557 1443.8125,447.2245 Q1444.5313,448.1776 1446.125,448.1776 Q1446.7188,448.1776 1447.3438,448.0214 Q1447.9688,447.8651 1448.7969,447.4901 L1448.7969,449.7089 Q1448.0625,450.0214 1447.2656,450.1776 Q1446.4844,450.3339 1445.7188,450.3339 Z " fill="#000000"/><text fill="#000000" font-family="sans-serif" font-size="14" lengthAdjust="spacing" textLength="43" x="1466.75" y="448.844">Export</text><line style="stroke:#181818;stroke-width:0.5;" x1="1331" x2="1613" y1="459.412" y2="459.412"/><line style="stroke:#181818;stroke-width:0.5;" x1="1331" x2="1613" y1="467.412" y2="467.412"/><ellipse cx="1341" cy="482.4459" fill="#84BE84" rx="3" ry="3" style="stroke:#038048;stroke-width:1.0;"/><text fill="#000000" font-family="sans-serif" font-size="14" lengthAdjust="spacing" textLength="174" x="1350" y="486.3779">getVcard(Contatto): String</text><ellipse cx="1341" cy="501.5139" fill="#84BE84" rx="3" ry="3" style="stroke:#038048;stroke-width:1.0;"/><text fill="#000000" font-family="sans-serif" font-size="14" lengthAdjust="spacing" textLength="248" x="1350" y="505.4458">esportaRubrica(Rubrica, String): void</text><ellipse cx="1341" cy="520.5818" fill="#84BE84" rx="3" ry="3" style="stroke:#038048;stroke-width:1.0;"/><text fill="#000000" font-family="sans-serif" font-size="14" lengthAdjust="spacing" textLength="258" x="1350" y="524.5138">esportaContatto(Contatto, String): void</text></g><!--class Import--><g id="elem_Import"><rect codeLine="110" fill="#F1F1F1" height="67.0679" id="Import" rx="2.5" ry="2.5" style="stroke:#181818;stroke-width:0.5;" width="362" x="1649" y="446.482"/><ellipse cx="1802.75" cy="462.482" fill="#ADD1B2" rx="11" ry="11" style="stroke:#181818;stroke-width:1.0;"/><path d="M1802.2188,469.4039 Q1800.4688,469.4039 1799.3281,468.6695 Q1798.2031,467.9195 1797.6406,466.5757 Q1797.0938,465.2164 1797.0938,463.4195 Q1797.0938,461.3882 1797.75,459.9351 Q1798.4063,458.482 1799.6875,457.7007 Q1800.9688,456.9195 1802.8438,456.9195 Q1803.7344,456.9195 1804.4063,457.107 Q1805.0781,457.2789 1805.7656,457.6226 L1804.9531,459.6382 Q1804.3281,459.3257 1803.7813,459.2007 Q1803.25,459.0757 1802.7656,459.0757 Q1801.5938,459.0757 1800.8906,459.607 Q1800.1875,460.1382 1799.8906,461.0914 Q1799.5938,462.0445 1799.5938,463.3101 Q1799.5938,465.3257 1800.3125,466.2945 Q1801.0313,467.2476 1802.625,467.2476 Q1803.2188,467.2476 1803.8438,467.0914 Q1804.4688,466.9351 1805.2969,466.5601 L1805.2969,468.7789 Q1804.5625,469.0914 1803.7656,469.2476 Q1802.9844,469.4039 1802.2188,469.4039 Z " fill="#000000"/><text fill="#000000" font-family="sans-serif" font-size="14" lengthAdjust="spacing" textLength="46" x="1823.25" y="467.914">Import</text><line style="stroke:#181818;stroke-width:0.5;" x1="1650" x2="2010" y1="478.482" y2="478.482"/><line style="stroke:#181818;stroke-width:0.5;" x1="1650" x2="2010" y1="486.482" y2="486.482"/><ellipse cx="1660" cy="501.5159" fill="#84BE84" rx="3" ry="3" style="stroke:#038048;stroke-width:1.0;"/><text fill="#000000" font-family="sans-serif" font-size="14" lengthAdjust="spacing" textLength="336" x="1669" y="505.4479">importVcard(Rubrica, ObservableList, String): void</text></g><!--reverse link Rubrica to Contatto--><g id="link_Rubrica_Contatto"><path codeLine="116" d="M316.8287,265.123 C313.9987,283.553 312.71,291.942 309.55,312.522 " fill="none" id="Rubrica-backto-Contatto" style="stroke:#181818;stroke-width:1.0;"/><polygon fill="none" points="318.65,253.262,313.7857,258.5854,316.8287,265.123,321.693,259.7996,318.65,253.262" style="stroke:#181818;stroke-width:1.0;"/><text fill="#000000" font-family="sans-serif" font-size="13" lengthAdjust="spacing" textLength="7" x="310.2879" y="274.9199">1</text><text fill="#000000" font-family="sans-serif" font-size="13" lengthAdjust="spacing" textLength="20" x="290.2546" y="301.46">0..*</text></g><!--reverse link Contatto to ContattoEsteso--><g id="link_Contatto_ContattoEsteso"><path codeLine="117" d="M282.7927,665.2916 C282.4827,712.8516 282.26,746.352 281.96,792.682 " fill="none" id="Contatto-backto-ContattoEsteso" style="stroke:#181818;stroke-width:1.0;"/><polygon fill="none" points="282.91,647.292,276.7928,665.2525,288.7925,665.3307,282.91,647.292" style="stroke:#181818;stroke-width:1.0;"/></g><!--reverse link GenericController to RubricaController--><g id="link_GenericController_RubricaController"><path codeLine="118" d="M827.7188,576.1576 C858.1088,617.0376 885.98,654.542 924.79,706.742 " fill="none" id="GenericController-backto-RubricaController" style="stroke:#181818;stroke-width:1.0;"/><polygon fill="none" points="816.98,561.712,822.9036,579.7373,832.5341,572.578,816.98,561.712" style="stroke:#181818;stroke-width:1.0;"/></g><!--reverse link GenericController to CreaContattoController--><g id="link_GenericController_CreaContattoController"><path codeLine="119" d="M751.1933,579.6809 C745.1833,681.8809 736.15,835.302 731.94,906.842 " fill="none" id="GenericController-backto-CreaContattoController" style="stroke:#181818;stroke-width:1.0;"/><polygon fill="none" points="752.25,561.712,745.2037,579.3287,757.183,580.0332,752.25,561.712" style="stroke:#181818;stroke-width:1.0;"/></g><!--link Rubrica to GenericController--><g id="link_Rubrica_GenericController"><path codeLine="120" d="M447.75,253.462 C475.47,272.822 504.86,293.542 532,313.012 C570.36,340.532 612.04,371.102 648.99,398.432 " fill="none" id="Rubrica-GenericController" style="stroke:#181818;stroke-width:1.0;"/></g><!--link Import to RubricaController--><g id="link_Import_RubricaController"><path codeLine="121" d="M1794.98,513.812 C1756.48,549.002 1691.95,605.442 1631,647.032 C1516.87,724.902 1380.13,799.662 1273.73,854.142 " fill="none" id="Import-RubricaController" style="stroke:#181818;stroke-width:1.0;"/></g><!--link Export to RubricaController--><g id="link_Export_RubricaController"><path codeLine="122" d="M1429.82,532.752 C1391.38,579.912 1331.89,652.882 1273.84,724.092 " fill="none" id="Export-RubricaController" style="stroke:#181818;stroke-width:1.0;"/></g><!--link App to RubricaController--><g id="link_App_RubricaController"><path codeLine="123" d="M2101.28,542.402 C2085.4,577.572 2060.92,619.962 2027,647.032 C1805.13,824.122 1480.7039,894.0235 1279.5339,921.7235 " fill="none" id="App-to-RubricaController" style="stroke:#181818;stroke-width:1.0;"/><polygon fill="#181818" points="1273.59,922.542,1283.0515,925.2769,1278.5433,921.8599,1281.9602,917.3517,1273.59,922.542" style="stroke:#181818;stroke-width:1.0;"/></g><!--SRC=[dLVFRzis5Bxhho3IYpF5nThUXA20ctf5WBG9acuz53rGqel2ZI8radPNP_dVzsXHj2XHYZlv84Bl9n-_zpsweSLVj0AYDhbY1IMFIKBmQTpdGWgZ9EUWzEDUW0_DjL6qCAJWL6lo0GIWwONNz8hxPqauquPQCJM6PUGwrw2sDETmXO9p9v1l1rOkeOpSjej0d99QsYJUCyfbjLXXLFFvHmDdvCue9ghkVPgHhMHbOFl2RufUqBfXrtdEMKMDL6mni2OPoQNaGCMKXy_0WTzB8HT7cwnhodX4VQ__b7YpjhfkzzFLBLpzxZ2J7PC2DvAHhgW3tNl63IWe3uVnc_ioUnGk1BFAYXfse-0UZ_n_swzhK1M87JtAFYLCO2pAsGuMlzzUdP5Rq7AZ2dYt4IM7s1cdv85QsQUDtChExU8q6ocsDL4Udejft2mxp84njE9CUfikGDnADY2-GDvWEyrwrs3M9JEsCLQSBnmivdQtvgncWlRsDwtxKPRitW5fKdb9Aj06GGHtb6-fitc0UENqW_pku3cjuB4ohUBX45SnigfmhySezODD7SK7Pc8kkZfTrerKPcPRllZ_X8ha6St9mZzrgq7dNoZmftLeVnBsVzg6M5KLsuYA-I2hmXxZUWl2nEEDY6RLDA5lf60fJKPkg48leKGNIFePkREl9DWoKhqoY7D4UwGcoDkK2TS6Nx-DKmk6JorBuDfDf80E-udsHiL7sfnV2WCLg3CIOvEKq66bUiqROSsKe6TGlRvvNhz6qZdUlqr8AX4Dy6uqIL94UbizYwDsbKIXb8mdTUVvCN3e0uV3R_hjilABqomu3JYm-pZ_9H6o1fzvE2MgIPd1uMQdxAjPwUjPwPkej76K8UFPiZ8Z3b7FdK8miNIVhphFDme9I9aVISWH-k42WMxrMD1dAO6_DvJhnNN-9nIsZ_C87fZkM4_EXtg1v8utDNfPBkorm-rgo3rj2uPuMMk34xVF3kb0TZHsXk-0pFpJIQzaGVbxQk0dm9W4KCIhLWGpJl9wKl8c9c6YP8hjTXBl7wni4JxMqdWGEEvZeaBMZSrH8DZyrfAWDqm4__De6w8aTW6TGLaV5Nsezm5n61WTCzjhWbHmUKq2TcudNGyeAMgQFmggoZwj3RQ0Ez3MZdR3rBsdBl5UVqIPCGlan0EYs-dk4yJksNzeC_HXmtyeGwTF-r_YjAsRarSdH2wNvEJNboz_ES4FdkYxnJxQ-R-eStZ23af6VwEymUWlm8nk_DBWaqMTaMtYYeAoSIHteb6PlJ4ibs_7aly0]--></g></svg>