<?xml version="1.0" encoding="us-ascii" standalone="no"?><svg xmlns="http://www.w3.org/2000/svg" xmlns:xlink="http://www.w3.org/1999/xlink" contentStyleType="text/css" height="726px" preserveAspectRatio="none" style="width:628px;height:726px;background:#FFFFFF;" version="1.1" viewBox="0 0 628 726" width="628px" zoomAndPan="magnify"><defs/><g><text fill="#000000" font-family="sans-serif" font-size="14" font-weight="bold" lengthAdjust="spacing" textLength="109" x="260.75" y="29.9659">Esporta Rubrica</text><rect fill="#FFFFFF" height="499.7481" style="stroke:#181818;stroke-width:1.0;" width="10" x="40.5" y="134.1358"/><rect fill="#FFFFFF" height="475.0421" style="stroke:#181818;stroke-width:1.0;" width="10" x="303.5" y="157.8419"/><rect fill="#3375E0" height="371.6481" style="stroke:#181818;stroke-width:1.0;" width="10" x="308.5" y="197.5479"/><rect fill="#3375E0" height="236.8241" style="stroke:#181818;stroke-width:1.0;" width="10" x="313.5" y="300.6659"/><rect fill="#3375E0" height="28" style="stroke:#181818;stroke-width:1.0;" width="10" x="318.5" y="433.784"/><rect fill="#FFFFFF" height="30" style="stroke:#181818;stroke-width:1.0;" width="10" x="472.5" y="337.3719"/><rect fill="#FFFFFF" height="30" style="stroke:#181818;stroke-width:1.0;" width="10" x="562" y="507.49"/><rect fill="none" height="376.63" style="stroke:#000000;stroke-width:1.5;" width="611.5" x="10" y="249.2539"/><rect fill="none" height="94.412" style="stroke:#000000;stroke-width:1.5;" width="206" x="216.5" y="382.3719"/><rect fill="#FFC0CB" height="48.6879" style="stroke:none;stroke-width:1.0;" width="611.5" x="10" y="577.196"/><line style="stroke:#181818;stroke-width:0.5;stroke-dasharray:5.0,5.0;" x1="45" x2="45" y1="124.1358" y2="642.8839"/><line style="stroke:#181818;stroke-width:0.5;stroke-dasharray:5.0,5.0;" x1="308.5" x2="308.5" y1="124.1358" y2="642.8839"/><line style="stroke:#181818;stroke-width:0.5;stroke-dasharray:5.0,5.0;" x1="477.5" x2="477.5" y1="124.1358" y2="642.8839"/><line style="stroke:#181818;stroke-width:0.5;stroke-dasharray:5.0,5.0;" x1="566.5" x2="566.5" y1="124.1358" y2="642.8839"/><text fill="#000000" font-family="sans-serif" font-size="14" lengthAdjust="spacing" textLength="45" x="20" y="120.0339">Utente</text><ellipse cx="45.5" cy="53.5679" fill="#E2E2F0" rx="8" ry="8" style="stroke:#181818;stroke-width:0.5;"/><path d="M45.5,61.5679 L45.5,88.5679 M32.5,69.5679 L58.5,69.5679 M45.5,88.5679 L32.5,103.5679 M45.5,88.5679 L58.5,103.5679 " fill="none" style="stroke:#181818;stroke-width:0.5;"/><text fill="#000000" font-family="sans-serif" font-size="14" lengthAdjust="spacing" textLength="45" x="20" y="656.8498">Utente</text><ellipse cx="45.5" cy="669.4518" fill="#E2E2F0" rx="8" ry="8" style="stroke:#181818;stroke-width:0.5;"/><path d="M45.5,677.4518 L45.5,704.4518 M32.5,685.4518 L58.5,685.4518 M45.5,704.4518 L32.5,719.4518 M45.5,704.4518 L58.5,719.4518 " fill="none" style="stroke:#181818;stroke-width:0.5;"/><rect fill="#E2E2F0" height="33.0679" rx="2.5" ry="2.5" style="stroke:#181818;stroke-width:0.5;" width="164" x="226.5" y="90.0679"/><text fill="#000000" font-family="sans-serif" font-size="14" lengthAdjust="spacing" textLength="150" x="233.5" y="112.0339">RubricaViewController</text><rect fill="#E2E2F0" height="33.0679" rx="2.5" ry="2.5" style="stroke:#181818;stroke-width:0.5;" width="164" x="226.5" y="641.8839"/><text fill="#000000" font-family="sans-serif" font-size="14" lengthAdjust="spacing" textLength="150" x="233.5" y="663.8498">RubricaViewController</text><rect fill="#E2E2F0" height="33.0679" style="stroke:#181818;stroke-width:0.5;" width="66" x="446.5" y="86.0679"/><rect fill="#E2E2F0" height="33.0679" style="stroke:#181818;stroke-width:0.5;" width="66" x="442.5" y="90.0679"/><text fill="#000000" font-family="sans-serif" font-size="14" lengthAdjust="spacing" textLength="52" x="449.5" y="112.0339">Rubrica</text><rect fill="#E2E2F0" height="33.0679" style="stroke:#181818;stroke-width:0.5;" width="66" x="446.5" y="641.8839"/><rect fill="#E2E2F0" height="33.0679" style="stroke:#181818;stroke-width:0.5;" width="66" x="442.5" y="645.8839"/><text fill="#000000" font-family="sans-serif" font-size="14" lengthAdjust="spacing" textLength="52" x="449.5" y="667.8498">Rubrica</text><rect fill="#E2E2F0" height="33.0679" style="stroke:#181818;stroke-width:0.5;" width="85" x="526.5" y="86.0679"/><rect fill="#E2E2F0" height="33.0679" style="stroke:#181818;stroke-width:0.5;" width="85" x="522.5" y="90.0679"/><text fill="#000000" font-family="sans-serif" font-size="14" lengthAdjust="spacing" textLength="71" x="529.5" y="112.0339">FileSystem</text><rect fill="#E2E2F0" height="33.0679" style="stroke:#181818;stroke-width:0.5;" width="85" x="526.5" y="641.8839"/><rect fill="#E2E2F0" height="33.0679" style="stroke:#181818;stroke-width:0.5;" width="85" x="522.5" y="645.8839"/><text fill="#000000" font-family="sans-serif" font-size="14" lengthAdjust="spacing" textLength="71" x="529.5" y="667.8498">FileSystem</text><rect fill="#FFFFFF" height="499.7481" style="stroke:#181818;stroke-width:1.0;" width="10" x="40.5" y="134.1358"/><rect fill="#FFFFFF" height="475.0421" style="stroke:#181818;stroke-width:1.0;" width="10" x="303.5" y="157.8419"/><rect fill="#3375E0" height="371.6481" style="stroke:#181818;stroke-width:1.0;" width="10" x="308.5" y="197.5479"/><rect fill="#3375E0" height="236.8241" style="stroke:#181818;stroke-width:1.0;" width="10" x="313.5" y="300.6659"/><rect fill="#3375E0" height="28" style="stroke:#181818;stroke-width:1.0;" width="10" x="318.5" y="433.784"/><rect fill="#FFFFFF" height="30" style="stroke:#181818;stroke-width:1.0;" width="10" x="472.5" y="337.3719"/><rect fill="#FFFFFF" height="30" style="stroke:#181818;stroke-width:1.0;" width="10" x="562" y="507.49"/><polygon fill="#181818" points="291.5,153.8419,301.5,157.8419,291.5,161.8419,295.5,157.8419" style="stroke:#181818;stroke-width:1.0;"/><line style="stroke:#181818;stroke-width:1.0;" x1="50.5" x2="297.5" y1="157.8419" y2="157.8419"/><text fill="#000000" font-family="sans-serif" font-size="13" font-weight="bold" lengthAdjust="spacing" textLength="7" x="57.5" y="152.0328">1</text><text fill="#000000" font-family="sans-serif" font-size="13" lengthAdjust="spacing" textLength="223" x="68.5" y="152.0328">[clicca il tasto "file -&gt; Esporta Rubrica"]</text><line style="stroke:#181818;stroke-width:1.0;" x1="313.5" x2="360.5" y1="184.5479" y2="184.5479"/><line style="stroke:#181818;stroke-width:1.0;" x1="360.5" x2="360.5" y1="184.5479" y2="197.5479"/><line style="stroke:#181818;stroke-width:1.0;" x1="319.5" x2="360.5" y1="197.5479" y2="197.5479"/><polygon fill="#181818" points="329.5,193.5479,319.5,197.5479,329.5,201.5479,325.5,197.5479" style="stroke:#181818;stroke-width:1.0;"/><text fill="#000000" font-family="sans-serif" font-size="13" font-weight="bold" lengthAdjust="spacing" textLength="7" x="325.5" y="178.7389">2</text><text fill="#000000" font-family="sans-serif" font-size="13" lengthAdjust="spacing" textLength="134" x="336.5" y="178.7389">handleExportRubrica()</text><polygon fill="#181818" points="61.5,230.2539,51.5,234.2539,61.5,238.2539,57.5,234.2539" style="stroke:#181818;stroke-width:1.0;"/><line style="stroke:#181818;stroke-width:1.0;stroke-dasharray:2.0,2.0;" x1="55.5" x2="307.5" y1="234.2539" y2="234.2539"/><text fill="#000000" font-family="sans-serif" font-size="13" font-weight="bold" lengthAdjust="spacing" textLength="7" x="67.5" y="228.4449">3</text><text fill="#000000" font-family="sans-serif" font-size="13" lengthAdjust="spacing" textLength="106" x="78.5" y="228.4449">showSaveDialog()</text><path d="M10,249.2539 L73,249.2539 L73,258.9599 L63,268.9599 L10,268.9599 L10,249.2539 " fill="#EEEEEE" style="stroke:#000000;stroke-width:1.5;"/><rect fill="none" height="376.63" style="stroke:#000000;stroke-width:1.5;" width="611.5" x="10" y="249.2539"/><text fill="#000000" font-family="sans-serif" font-size="13" font-weight="bold" lengthAdjust="spacing" textLength="18" x="25" y="264.1509">alt</text><a href="Conferma" target="_top" title="Conferma" xlink:actuate="onRequest" xlink:href="Conferma" xlink:show="new" xlink:title="Conferma" xlink:type="simple"><text fill="#0000FF" font-family="sans-serif" font-size="11" font-weight="bold" lengthAdjust="spacing" text-decoration="underline" textLength="55" x="88" y="263.0128">Conferma</text></a><line style="stroke:#181818;stroke-width:1.0;" x1="318.5" x2="365.5" y1="287.6659" y2="287.6659"/><line style="stroke:#181818;stroke-width:1.0;" x1="365.5" x2="365.5" y1="287.6659" y2="300.6659"/><line style="stroke:#181818;stroke-width:1.0;" x1="324.5" x2="365.5" y1="300.6659" y2="300.6659"/><polygon fill="#181818" points="334.5,296.6659,324.5,300.6659,334.5,304.6659,330.5,300.6659" style="stroke:#181818;stroke-width:1.0;"/><text fill="#000000" font-family="sans-serif" font-size="13" font-weight="bold" lengthAdjust="spacing" textLength="7" x="330.5" y="281.8569">4</text><text fill="#000000" font-family="sans-serif" font-size="13" lengthAdjust="spacing" textLength="99" x="341.5" y="281.8569">esportaRubrica()</text><polygon fill="#181818" points="460.5,333.3719,470.5,337.3719,460.5,341.3719,464.5,337.3719" style="stroke:#181818;stroke-width:1.0;"/><line style="stroke:#181818;stroke-width:1.0;" x1="323.5" x2="466.5" y1="337.3719" y2="337.3719"/><text fill="#000000" font-family="sans-serif" font-size="13" font-weight="bold" lengthAdjust="spacing" textLength="7" x="330.5" y="331.5629">5</text><text fill="#000000" font-family="sans-serif" font-size="13" lengthAdjust="spacing" textLength="77" x="341.5" y="331.5629">getContatti()</text><path d="M216.5,382.3719 L289.5,382.3719 L289.5,392.0779 L279.5,402.0779 L216.5,402.0779 L216.5,382.3719 " fill="#EEEEEE" style="stroke:#000000;stroke-width:1.5;"/><rect fill="none" height="94.412" style="stroke:#000000;stroke-width:1.5;" width="206" x="216.5" y="382.3719"/><text fill="#000000" font-family="sans-serif" font-size="13" font-weight="bold" lengthAdjust="spacing" textLength="28" x="231.5" y="397.2689">loop</text><text fill="#000000" font-family="sans-serif" font-size="11" font-weight="bold" lengthAdjust="spacing" textLength="66" x="304.5" y="396.1308">[n. contatti]</text><line style="stroke:#181818;stroke-width:1.0;" x1="328.5" x2="370.5" y1="425.784" y2="425.784"/><line style="stroke:#181818;stroke-width:1.0;" x1="370.5" x2="370.5" y1="425.784" y2="438.784"/><line style="stroke:#181818;stroke-width:1.0;" x1="329.5" x2="370.5" y1="438.784" y2="438.784"/><polygon fill="#181818" points="339.5,434.784,329.5,438.784,339.5,442.784,335.5,438.784" style="stroke:#181818;stroke-width:1.0;"/><text fill="#000000" font-family="sans-serif" font-size="13" font-weight="bold" lengthAdjust="spacing" textLength="7" x="335.5" y="419.975">6</text><text fill="#000000" font-family="sans-serif" font-size="13" lengthAdjust="spacing" textLength="64" x="346.5" y="419.975">getVCard()</text><polygon fill="#181818" points="550,503.49,560,507.49,550,511.49,554,507.49" style="stroke:#181818;stroke-width:1.0;"/><line style="stroke:#181818;stroke-width:1.0;" x1="323.5" x2="556" y1="507.49" y2="507.49"/><text fill="#000000" font-family="sans-serif" font-size="13" font-weight="bold" lengthAdjust="spacing" textLength="7" x="330.5" y="501.681">7</text><text fill="#000000" font-family="sans-serif" font-size="13" lengthAdjust="spacing" textLength="38" x="341.5" y="501.681">write()</text><polygon fill="#181818" points="61.5,565.196,51.5,569.196,61.5,573.196,57.5,569.196" style="stroke:#181818;stroke-width:1.0;"/><line style="stroke:#181818;stroke-width:1.0;stroke-dasharray:2.0,2.0;" x1="55.5" x2="302.5" y1="569.196" y2="569.196"/><text fill="#000000" font-family="sans-serif" font-size="13" font-weight="bold" lengthAdjust="spacing" textLength="7" x="67.5" y="563.387">8</text><text fill="#000000" font-family="sans-serif" font-size="13" lengthAdjust="spacing" textLength="143" x="78.5" y="563.387">mostraDialog(SUCCESS)</text><line style="stroke:#000000;stroke-width:1.0;stroke-dasharray:2.0,2.0;" x1="10" x2="621.5" y1="578.196" y2="578.196"/><a href="Annulla" target="_top" title="Annulla" xlink:actuate="onRequest" xlink:href="Annulla" xlink:show="new" xlink:title="Annulla" xlink:type="simple"><text fill="#0000FF" font-family="sans-serif" font-size="11" font-weight="bold" lengthAdjust="spacing" text-decoration="underline" textLength="42" x="15" y="589.9549">Annulla</text></a><polygon fill="#181818" points="61.5,613.8839,51.5,617.8839,61.5,621.8839,57.5,617.8839" style="stroke:#181818;stroke-width:1.0;"/><line style="stroke:#181818;stroke-width:1.0;stroke-dasharray:2.0,2.0;" x1="55.5" x2="302.5" y1="617.8839" y2="617.8839"/><text fill="#000000" font-family="sans-serif" font-size="13" font-weight="bold" lengthAdjust="spacing" textLength="7" x="67.5" y="612.0749">9</text><text fill="#000000" font-family="sans-serif" font-size="13" lengthAdjust="spacing" textLength="89" x="78.5" y="612.0749">[mostra home]</text><!--SRC=[dPF1ReCm38RlF8MrNjP3fqdLD8b3fOcn1nXgBsW7DxXjj92WODhjxHSQokW4fIkduD_szpjo001OiYA8oy9OHdYlrbOA39m0MB7HLRuc6_X_mSR2aaapmJ5Ie6KfP86QJvKhIOV8QBP6ALTOPudwA5WQNPxrxyRVfABaksJAeON9FJgGvnrZ_ZXRzAB2L2Wf189Km5YoWRkDQmgpnT_XxZxE2SFEUvMwOxyGmWvrfYZ-gdbDpltq2XfCvlFdf_Zn4jLXcxiFeToPGu9xUfMepFQ4K0ofgzYGpT7FUCC8v2_htFs__8z37MPBN4l8B0SPJJYZ0G506LE0Vd2hv5krmasZEq-h26tM6hfXz27BFTjLVwIpODHlvt64SB2IgUEm1Vrc1JqsBgkNJLwnaBafsMApZiaoYk8acLvFEcQIAWacXTIVaBveNIarjiLT1wct03kJaoyxtUqO7Nu0]--></g></svg>