<?xml version="1.0" encoding="us-ascii" standalone="no"?><svg xmlns="http://www.w3.org/2000/svg" xmlns:xlink="http://www.w3.org/1999/xlink" contentStyleType="text/css" height="782px" preserveAspectRatio="none" style="width:680px;height:782px;background:#FFFFFF;" version="1.1" viewBox="0 0 680 782" width="680px" zoomAndPan="magnify"><defs/><g><text fill="#000000" font-family="sans-serif" font-size="14" font-weight="bold" lengthAdjust="spacing" textLength="125" x="278.75" y="29.9659">Modifica Contatto</text><rect fill="#FFFFFF" height="554.7481" style="stroke:#181818;stroke-width:1.0;" width="10" x="40.5" y="134.1358"/><rect fill="#FFFFFF" height="531.0421" style="stroke:#181818;stroke-width:1.0;" width="10" x="416.5" y="157.8419"/><rect fill="#3375E0" height="28" style="stroke:#181818;stroke-width:1.0;" width="10" x="421.5" y="197.5479"/><rect fill="#3375E0" height="369.924" style="stroke:#181818;stroke-width:1.0;" width="10" x="421.5" y="303.9599"/><rect fill="#3375E0" height="28" style="stroke:#181818;stroke-width:1.0;" width="10" x="426.5" y="348.6659"/><rect fill="#3375E0" height="28" style="stroke:#181818;stroke-width:1.0;" width="10" x="426.5" y="450.0779"/><rect fill="#3375E0" height="28" style="stroke:#181818;stroke-width:1.0;" width="10" x="426.5" y="524.784"/><rect fill="#FFFFFF" height="48.6879" style="stroke:#181818;stroke-width:1.0;" width="10" x="623.5" y="625.196"/><rect fill="none" height="169.118" style="stroke:#000000;stroke-width:1.5;" width="250" x="329.5" y="398.6659"/><rect fill="none" height="100.0999" style="stroke:#000000;stroke-width:1.5;" width="663.5" x="10" y="581.784"/><rect fill="#FFC0CB" height="48.6879" style="stroke:none;stroke-width:1.0;" width="663.5" x="10" y="633.196"/><line style="stroke:#181818;stroke-width:0.5;stroke-dasharray:5.0,5.0;" x1="45" x2="45" y1="124.1358" y2="698.8839"/><line style="stroke:#181818;stroke-width:0.5;stroke-dasharray:5.0,5.0;" x1="421.5" x2="421.5" y1="124.1358" y2="698.8839"/><line style="stroke:#181818;stroke-width:0.5;stroke-dasharray:5.0,5.0;" x1="628.5" x2="628.5" y1="124.1358" y2="698.8839"/><text fill="#000000" font-family="sans-serif" font-size="14" lengthAdjust="spacing" textLength="45" x="20" y="120.0339">Utente</text><ellipse cx="45.5" cy="53.5679" fill="#E2E2F0" rx="8" ry="8" style="stroke:#181818;stroke-width:0.5;"/><path d="M45.5,61.5679 L45.5,88.5679 M32.5,69.5679 L58.5,69.5679 M45.5,88.5679 L32.5,103.5679 M45.5,88.5679 L58.5,103.5679 " fill="none" style="stroke:#181818;stroke-width:0.5;"/><text fill="#000000" font-family="sans-serif" font-size="14" lengthAdjust="spacing" textLength="45" x="20" y="712.8498">Utente</text><ellipse cx="45.5" cy="725.4518" fill="#E2E2F0" rx="8" ry="8" style="stroke:#181818;stroke-width:0.5;"/><path d="M45.5,733.4518 L45.5,760.4518 M32.5,741.4518 L58.5,741.4518 M45.5,760.4518 L32.5,775.4518 M45.5,760.4518 L58.5,775.4518 " fill="none" style="stroke:#181818;stroke-width:0.5;"/><rect fill="#E2E2F0" height="33.0679" rx="2.5" ry="2.5" style="stroke:#181818;stroke-width:0.5;" width="164" x="339.5" y="90.0679"/><text fill="#000000" font-family="sans-serif" font-size="14" lengthAdjust="spacing" textLength="150" x="346.5" y="112.0339">RubricaViewController</text><rect fill="#E2E2F0" height="33.0679" rx="2.5" ry="2.5" style="stroke:#181818;stroke-width:0.5;" width="164" x="339.5" y="697.8839"/><text fill="#000000" font-family="sans-serif" font-size="14" lengthAdjust="spacing" textLength="150" x="346.5" y="719.8498">RubricaViewController</text><rect fill="#E2E2F0" height="33.0679" style="stroke:#181818;stroke-width:0.5;" width="66" x="597.5" y="86.0679"/><rect fill="#E2E2F0" height="33.0679" style="stroke:#181818;stroke-width:0.5;" width="66" x="593.5" y="90.0679"/><text fill="#000000" font-family="sans-serif" font-size="14" lengthAdjust="spacing" textLength="52" x="600.5" y="112.0339">Rubrica</text><rect fill="#E2E2F0" height="33.0679" style="stroke:#181818;stroke-width:0.5;" width="66" x="597.5" y="697.8839"/><rect fill="#E2E2F0" height="33.0679" style="stroke:#181818;stroke-width:0.5;" width="66" x="593.5" y="701.8839"/><text fill="#000000" font-family="sans-serif" font-size="14" lengthAdjust="spacing" textLength="52" x="600.5" y="723.8498">Rubrica</text><rect fill="#FFFFFF" height="554.7481" style="stroke:#181818;stroke-width:1.0;" width="10" x="40.5" y="134.1358"/><rect fill="#FFFFFF" height="531.0421" style="stroke:#181818;stroke-width:1.0;" width="10" x="416.5" y="157.8419"/><rect fill="#3375E0" height="28" style="stroke:#181818;stroke-width:1.0;" width="10" x="421.5" y="197.5479"/><rect fill="#3375E0" height="369.924" style="stroke:#181818;stroke-width:1.0;" width="10" x="421.5" y="303.9599"/><rect fill="#3375E0" height="28" style="stroke:#181818;stroke-width:1.0;" width="10" x="426.5" y="348.6659"/><rect fill="#3375E0" height="28" style="stroke:#181818;stroke-width:1.0;" width="10" x="426.5" y="450.0779"/><rect fill="#3375E0" height="28" style="stroke:#181818;stroke-width:1.0;" width="10" x="426.5" y="524.784"/><rect fill="#FFFFFF" height="48.6879" style="stroke:#181818;stroke-width:1.0;" width="10" x="623.5" y="625.196"/><polygon fill="#181818" points="404.5,153.8419,414.5,157.8419,404.5,161.8419,408.5,157.8419" style="stroke:#181818;stroke-width:1.0;"/><line style="stroke:#181818;stroke-width:1.0;" x1="50.5" x2="410.5" y1="157.8419" y2="157.8419"/><text fill="#000000" font-family="sans-serif" font-size="13" font-weight="bold" lengthAdjust="spacing" textLength="7" x="57.5" y="152.0328">1</text><text fill="#000000" font-family="sans-serif" font-size="13" lengthAdjust="spacing" textLength="209" x="68.5" y="152.0328">[click pulsante "Modifica Contatto"]</text><line style="stroke:#181818;stroke-width:1.0;" x1="431.5" x2="473.5" y1="189.5479" y2="189.5479"/><line style="stroke:#181818;stroke-width:1.0;" x1="473.5" x2="473.5" y1="189.5479" y2="202.5479"/><line style="stroke:#181818;stroke-width:1.0;" x1="432.5" x2="473.5" y1="202.5479" y2="202.5479"/><polygon fill="#181818" points="442.5,198.5479,432.5,202.5479,442.5,206.5479,438.5,202.5479" style="stroke:#181818;stroke-width:1.0;"/><text fill="#000000" font-family="sans-serif" font-size="13" font-weight="bold" lengthAdjust="spacing" textLength="7" x="438.5" y="183.7389">2</text><text fill="#000000" font-family="sans-serif" font-size="13" lengthAdjust="spacing" textLength="154" x="449.5" y="183.7389">handleModificaContatto()</text><polygon fill="#181818" points="404.5,260.2539,414.5,264.2539,404.5,268.2539,408.5,264.2539" style="stroke:#181818;stroke-width:1.0;"/><line style="stroke:#181818;stroke-width:1.0;" x1="50.5" x2="410.5" y1="264.2539" y2="264.2539"/><text fill="#000000" font-family="sans-serif" font-size="13" font-weight="bold" lengthAdjust="spacing" textLength="7" x="57.5" y="258.4449">3</text><text fill="#000000" font-family="sans-serif" font-size="13" lengthAdjust="spacing" textLength="331" x="68.5" y="258.4449">[modifica le informazioni del contatto e clicca su "Salva"]</text><line style="stroke:#181818;stroke-width:1.0;" x1="426.5" x2="473.5" y1="290.9599" y2="290.9599"/><line style="stroke:#181818;stroke-width:1.0;" x1="473.5" x2="473.5" y1="290.9599" y2="303.9599"/><line style="stroke:#181818;stroke-width:1.0;" x1="432.5" x2="473.5" y1="303.9599" y2="303.9599"/><polygon fill="#181818" points="442.5,299.9599,432.5,303.9599,442.5,307.9599,438.5,303.9599" style="stroke:#181818;stroke-width:1.0;"/><text fill="#000000" font-family="sans-serif" font-size="13" font-weight="bold" lengthAdjust="spacing" textLength="7" x="438.5" y="285.1509">4</text><text fill="#000000" font-family="sans-serif" font-size="13" lengthAdjust="spacing" textLength="150" x="449.5" y="285.1509">gestioneSalvaModifiche()</text><line style="stroke:#181818;stroke-width:1.0;" x1="436.5" x2="478.5" y1="340.6659" y2="340.6659"/><line style="stroke:#181818;stroke-width:1.0;" x1="478.5" x2="478.5" y1="340.6659" y2="353.6659"/><line style="stroke:#181818;stroke-width:1.0;" x1="437.5" x2="478.5" y1="353.6659" y2="353.6659"/><polygon fill="#181818" points="447.5,349.6659,437.5,353.6659,447.5,357.6659,443.5,353.6659" style="stroke:#181818;stroke-width:1.0;"/><text fill="#000000" font-family="sans-serif" font-size="13" font-weight="bold" lengthAdjust="spacing" textLength="7" x="443.5" y="334.8569">5</text><text fill="#000000" font-family="sans-serif" font-size="13" lengthAdjust="spacing" textLength="167" x="454.5" y="334.8569">controllaCampiObbligatori()</text><path d="M329.5,398.6659 L402.5,398.6659 L402.5,408.3719 L392.5,418.3719 L329.5,418.3719 L329.5,398.6659 " fill="#EEEEEE" style="stroke:#000000;stroke-width:1.5;"/><rect fill="none" height="169.118" style="stroke:#000000;stroke-width:1.5;" width="250" x="329.5" y="398.6659"/><text fill="#000000" font-family="sans-serif" font-size="13" font-weight="bold" lengthAdjust="spacing" textLength="28" x="344.5" y="413.5629">loop</text><text fill="#000000" font-family="sans-serif" font-size="11" font-weight="bold" lengthAdjust="spacing" textLength="69" x="417.5" y="412.4248">[3 iterazioni]</text><line style="stroke:#181818;stroke-width:1.0;" x1="436.5" x2="478.5" y1="442.0779" y2="442.0779"/><line style="stroke:#181818;stroke-width:1.0;" x1="478.5" x2="478.5" y1="442.0779" y2="455.0779"/><line style="stroke:#181818;stroke-width:1.0;" x1="437.5" x2="478.5" y1="455.0779" y2="455.0779"/><polygon fill="#181818" points="447.5,451.0779,437.5,455.0779,447.5,459.0779,443.5,455.0779" style="stroke:#181818;stroke-width:1.0;"/><text fill="#000000" font-family="sans-serif" font-size="13" font-weight="bold" lengthAdjust="spacing" textLength="7" x="443.5" y="436.2689">6</text><text fill="#000000" font-family="sans-serif" font-size="13" lengthAdjust="spacing" textLength="113" x="454.5" y="436.2689">controllaTelefono()</text><line style="stroke:#181818;stroke-width:1.0;" x1="436.5" x2="478.5" y1="516.784" y2="516.784"/><line style="stroke:#181818;stroke-width:1.0;" x1="478.5" x2="478.5" y1="516.784" y2="529.784"/><line style="stroke:#181818;stroke-width:1.0;" x1="437.5" x2="478.5" y1="529.784" y2="529.784"/><polygon fill="#181818" points="447.5,525.784,437.5,529.784,447.5,533.784,443.5,529.784" style="stroke:#181818;stroke-width:1.0;"/><text fill="#000000" font-family="sans-serif" font-size="13" font-weight="bold" lengthAdjust="spacing" textLength="7" x="443.5" y="510.975">7</text><text fill="#000000" font-family="sans-serif" font-size="13" lengthAdjust="spacing" textLength="93" x="454.5" y="510.975">controllaEmail()</text><path d="M10,581.784 L73,581.784 L73,591.49 L63,601.49 L10,601.49 L10,581.784 " fill="#EEEEEE" style="stroke:#000000;stroke-width:1.5;"/><rect fill="none" height="100.0999" style="stroke:#000000;stroke-width:1.5;" width="663.5" x="10" y="581.784"/><text fill="#000000" font-family="sans-serif" font-size="13" font-weight="bold" lengthAdjust="spacing" textLength="18" x="25" y="596.681">alt</text><a href="vincoli" target="_top" title="vincoli" xlink:actuate="onRequest" xlink:href="vincoli" xlink:show="new" xlink:title="vincoli" xlink:type="simple"><text fill="#0000FF" font-family="sans-serif" font-size="11" font-weight="bold" lengthAdjust="spacing" text-decoration="underline" textLength="58" x="88" y="595.5429">soddisfatti</text></a><polygon fill="#181818" points="611.5,621.196,621.5,625.196,611.5,629.196,615.5,625.196" style="stroke:#181818;stroke-width:1.0;"/><line style="stroke:#181818;stroke-width:1.0;" x1="431.5" x2="617.5" y1="625.196" y2="625.196"/><text fill="#000000" font-family="sans-serif" font-size="13" font-weight="bold" lengthAdjust="spacing" textLength="7" x="438.5" y="619.387">8</text><text fill="#000000" font-family="sans-serif" font-size="13" lengthAdjust="spacing" textLength="116" x="449.5" y="619.387">aggiornaContatto()</text><line style="stroke:#000000;stroke-width:1.0;stroke-dasharray:2.0,2.0;" x1="10" x2="673.5" y1="634.196" y2="634.196"/><a href="vincoli" target="_top" title="vincoli" xlink:actuate="onRequest" xlink:href="vincoli" xlink:show="new" xlink:title="vincoli" xlink:type="simple"><text fill="#0000FF" font-family="sans-serif" font-size="11" font-weight="bold" lengthAdjust="spacing" text-decoration="underline" textLength="82" x="15" y="645.9549">non soddisfatti</text></a><polygon fill="#181818" points="61.5,669.8839,51.5,673.8839,61.5,677.8839,57.5,673.8839" style="stroke:#181818;stroke-width:1.0;"/><line style="stroke:#181818;stroke-width:1.0;stroke-dasharray:2.0,2.0;" x1="55.5" x2="415.5" y1="673.8839" y2="673.8839"/><text fill="#000000" font-family="sans-serif" font-size="13" font-weight="bold" lengthAdjust="spacing" textLength="7" x="67.5" y="668.0749">9</text><text fill="#000000" font-family="sans-serif" font-size="13" lengthAdjust="spacing" textLength="130" x="78.5" y="668.0749">mostraDialog(ERROR)</text><!--SRC=[jPHDRy8m38Rl_0eBBd10ceIcIHouC8uJKlTnGHpSr2qMQL8bAPFswvSsTB3niLQ8MnAxVf-yTWe0uDX9WXUTSCe2OQwLG-TqpuS0IwTLcSTambOuRU3TaN9K7nHe70ikK3c8ojZu0XzCdrKDewNSVoQgfN2ibMsowlEc9k_GqN7Pi1pFpfQSmaf85bieIcczC47_1Bw_FYDm6V1i1CQp2u4fR50baXhPHdKuQY48WydawN7nKAScr88kk74DPvKt1lXEiagroV7BsyrUG7hx0nuGLCRvB5j2_nNb3ezzwcn2HhRgATMLzbvigBi9dON5VeDpp0jUnh7a3FrayfqQ8BKkO0Bio0HRwzFRqDz8KgfLCpCTiLkZtmQvo97bdGb99Q5fqi5gnyh_B1YiJXAsgPzQNb-_n-4Q7XopZBLHVn_aEVIWBIt1e62rFKWhhNx9mp_wurbudrF8jNK6dncbpeQBA5f6e-xDEatySQbt9Twg_b5IOFu6]--></g></svg>