<?xml version="1.0" encoding="us-ascii" standalone="no"?><svg xmlns="http://www.w3.org/2000/svg" xmlns:xlink="http://www.w3.org/1999/xlink" contentStyleType="text/css" height="676px" preserveAspectRatio="none" style="width:622px;height:676px;background:#FFFFFF;" version="1.1" viewBox="0 0 622 676" width="622px" zoomAndPan="magnify"><defs/><g><text fill="#000000" font-family="sans-serif" font-size="14" font-weight="bold" lengthAdjust="spacing" textLength="129" x="247.75" y="29.9659">Aggiungi Contatto</text><rect fill="#FFFFFF" height="449.336" style="stroke:#181818;stroke-width:1.0;" width="10" x="40.5" y="134.1358"/><rect fill="#FFFFFF" height="409.63" style="stroke:#181818;stroke-width:1.0;" width="10" x="358.5" y="157.8419"/><rect fill="#3375E0" height="248.8241" style="stroke:#181818;stroke-width:1.0;" width="10" x="363.5" y="197.5479"/><rect fill="#3375E0" height="28" style="stroke:#181818;stroke-width:1.0;" width="10" x="368.5" y="242.2539"/><rect fill="#3375E0" height="28" style="stroke:#181818;stroke-width:1.0;" width="10" x="368.5" y="343.6659"/><rect fill="#3375E0" height="28" style="stroke:#181818;stroke-width:1.0;" width="10" x="368.5" y="418.3719"/><rect fill="#FFFFFF" height="48.6879" style="stroke:#181818;stroke-width:1.0;" width="10" x="565.5" y="518.784"/><rect fill="none" height="169.118" style="stroke:#000000;stroke-width:1.5;" width="268" x="253.5" y="292.2539"/><rect fill="none" height="100.0999" style="stroke:#000000;stroke-width:1.5;" width="605.5" x="10" y="475.3719"/><rect fill="#FFC0CB" height="48.6879" style="stroke:none;stroke-width:1.0;" width="605.5" x="10" y="526.784"/><line style="stroke:#181818;stroke-width:0.5;stroke-dasharray:5.0,5.0;" x1="45" x2="45" y1="124.1358" y2="592.4719"/><line style="stroke:#181818;stroke-width:0.5;stroke-dasharray:5.0,5.0;" x1="363.5" x2="363.5" y1="124.1358" y2="592.4719"/><line style="stroke:#181818;stroke-width:0.5;stroke-dasharray:5.0,5.0;" x1="570.5" x2="570.5" y1="124.1358" y2="592.4719"/><text fill="#000000" font-family="sans-serif" font-size="14" lengthAdjust="spacing" textLength="45" x="20" y="120.0339">Utente</text><ellipse cx="45.5" cy="53.5679" fill="#E2E2F0" rx="8" ry="8" style="stroke:#181818;stroke-width:0.5;"/><path d="M45.5,61.5679 L45.5,88.5679 M32.5,69.5679 L58.5,69.5679 M45.5,88.5679 L32.5,103.5679 M45.5,88.5679 L58.5,103.5679 " fill="none" style="stroke:#181818;stroke-width:0.5;"/><text fill="#000000" font-family="sans-serif" font-size="14" lengthAdjust="spacing" textLength="45" x="20" y="606.4378">Utente</text><ellipse cx="45.5" cy="619.0398" fill="#E2E2F0" rx="8" ry="8" style="stroke:#181818;stroke-width:0.5;"/><path d="M45.5,627.0398 L45.5,654.0398 M32.5,635.0398 L58.5,635.0398 M45.5,654.0398 L32.5,669.0398 M45.5,654.0398 L58.5,669.0398 " fill="none" style="stroke:#181818;stroke-width:0.5;"/><rect fill="#E2E2F0" height="33.0679" rx="2.5" ry="2.5" style="stroke:#181818;stroke-width:0.5;" width="200" x="263.5" y="90.0679"/><text fill="#000000" font-family="sans-serif" font-size="14" lengthAdjust="spacing" textLength="186" x="270.5" y="112.0339">CreaContattoViewController</text><rect fill="#E2E2F0" height="33.0679" rx="2.5" ry="2.5" style="stroke:#181818;stroke-width:0.5;" width="200" x="263.5" y="591.4719"/><text fill="#000000" font-family="sans-serif" font-size="14" lengthAdjust="spacing" textLength="186" x="270.5" y="613.4378">CreaContattoViewController</text><rect fill="#E2E2F0" height="33.0679" style="stroke:#181818;stroke-width:0.5;" width="66" x="539.5" y="86.0679"/><rect fill="#E2E2F0" height="33.0679" style="stroke:#181818;stroke-width:0.5;" width="66" x="535.5" y="90.0679"/><text fill="#000000" font-family="sans-serif" font-size="14" lengthAdjust="spacing" textLength="52" x="542.5" y="112.0339">Rubrica</text><rect fill="#E2E2F0" height="33.0679" style="stroke:#181818;stroke-width:0.5;" width="66" x="539.5" y="591.4719"/><rect fill="#E2E2F0" height="33.0679" style="stroke:#181818;stroke-width:0.5;" width="66" x="535.5" y="595.4719"/><text fill="#000000" font-family="sans-serif" font-size="14" lengthAdjust="spacing" textLength="52" x="542.5" y="617.4378">Rubrica</text><rect fill="#FFFFFF" height="449.336" style="stroke:#181818;stroke-width:1.0;" width="10" x="40.5" y="134.1358"/><rect fill="#FFFFFF" height="409.63" style="stroke:#181818;stroke-width:1.0;" width="10" x="358.5" y="157.8419"/><rect fill="#3375E0" height="248.8241" style="stroke:#181818;stroke-width:1.0;" width="10" x="363.5" y="197.5479"/><rect fill="#3375E0" height="28" style="stroke:#181818;stroke-width:1.0;" width="10" x="368.5" y="242.2539"/><rect fill="#3375E0" height="28" style="stroke:#181818;stroke-width:1.0;" width="10" x="368.5" y="343.6659"/><rect fill="#3375E0" height="28" style="stroke:#181818;stroke-width:1.0;" width="10" x="368.5" y="418.3719"/><rect fill="#FFFFFF" height="48.6879" style="stroke:#181818;stroke-width:1.0;" width="10" x="565.5" y="518.784"/><polygon fill="#181818" points="346.5,153.8419,356.5,157.8419,346.5,161.8419,350.5,157.8419" style="stroke:#181818;stroke-width:1.0;"/><line style="stroke:#181818;stroke-width:1.0;" x1="50.5" x2="352.5" y1="157.8419" y2="157.8419"/><text fill="#000000" font-family="sans-serif" font-size="13" font-weight="bold" lengthAdjust="spacing" textLength="7" x="57.5" y="152.0328">1</text><text fill="#000000" font-family="sans-serif" font-size="13" lengthAdjust="spacing" textLength="278" x="68.5" y="152.0328">[inserisce informazioni e clicca "Crea Contatto"]</text><line style="stroke:#181818;stroke-width:1.0;" x1="368.5" x2="415.5" y1="184.5479" y2="184.5479"/><line style="stroke:#181818;stroke-width:1.0;" x1="415.5" x2="415.5" y1="184.5479" y2="197.5479"/><line style="stroke:#181818;stroke-width:1.0;" x1="374.5" x2="415.5" y1="197.5479" y2="197.5479"/><polygon fill="#181818" points="384.5,193.5479,374.5,197.5479,384.5,201.5479,380.5,197.5479" style="stroke:#181818;stroke-width:1.0;"/><text fill="#000000" font-family="sans-serif" font-size="13" font-weight="bold" lengthAdjust="spacing" textLength="7" x="380.5" y="178.7389">2</text><text fill="#000000" font-family="sans-serif" font-size="13" lengthAdjust="spacing" textLength="157" x="391.5" y="178.7389">handleAggiungiContatto()</text><line style="stroke:#181818;stroke-width:1.0;" x1="378.5" x2="420.5" y1="234.2539" y2="234.2539"/><line style="stroke:#181818;stroke-width:1.0;" x1="420.5" x2="420.5" y1="234.2539" y2="247.2539"/><line style="stroke:#181818;stroke-width:1.0;" x1="379.5" x2="420.5" y1="247.2539" y2="247.2539"/><polygon fill="#181818" points="389.5,243.2539,379.5,247.2539,389.5,251.2539,385.5,247.2539" style="stroke:#181818;stroke-width:1.0;"/><text fill="#000000" font-family="sans-serif" font-size="13" font-weight="bold" lengthAdjust="spacing" textLength="7" x="385.5" y="228.4449">3</text><text fill="#000000" font-family="sans-serif" font-size="13" lengthAdjust="spacing" textLength="167" x="396.5" y="228.4449">controllaCampiObbligatori()</text><path d="M253.5,292.2539 L326.5,292.2539 L326.5,301.9599 L316.5,311.9599 L253.5,311.9599 L253.5,292.2539 " fill="#EEEEEE" style="stroke:#000000;stroke-width:1.5;"/><rect fill="none" height="169.118" style="stroke:#000000;stroke-width:1.5;" width="268" x="253.5" y="292.2539"/><text fill="#000000" font-family="sans-serif" font-size="13" font-weight="bold" lengthAdjust="spacing" textLength="28" x="268.5" y="307.1509">loop</text><text fill="#000000" font-family="sans-serif" font-size="11" font-weight="bold" lengthAdjust="spacing" textLength="69" x="341.5" y="306.0128">[3 iterazioni]</text><line style="stroke:#181818;stroke-width:1.0;" x1="378.5" x2="420.5" y1="335.6659" y2="335.6659"/><line style="stroke:#181818;stroke-width:1.0;" x1="420.5" x2="420.5" y1="335.6659" y2="348.6659"/><line style="stroke:#181818;stroke-width:1.0;" x1="379.5" x2="420.5" y1="348.6659" y2="348.6659"/><polygon fill="#181818" points="389.5,344.6659,379.5,348.6659,389.5,352.6659,385.5,348.6659" style="stroke:#181818;stroke-width:1.0;"/><text fill="#000000" font-family="sans-serif" font-size="13" font-weight="bold" lengthAdjust="spacing" textLength="7" x="385.5" y="329.8569">4</text><text fill="#000000" font-family="sans-serif" font-size="13" lengthAdjust="spacing" textLength="113" x="396.5" y="329.8569">controllaTelefono()</text><line style="stroke:#181818;stroke-width:1.0;" x1="378.5" x2="420.5" y1="410.3719" y2="410.3719"/><line style="stroke:#181818;stroke-width:1.0;" x1="420.5" x2="420.5" y1="410.3719" y2="423.3719"/><line style="stroke:#181818;stroke-width:1.0;" x1="379.5" x2="420.5" y1="423.3719" y2="423.3719"/><polygon fill="#181818" points="389.5,419.3719,379.5,423.3719,389.5,427.3719,385.5,423.3719" style="stroke:#181818;stroke-width:1.0;"/><text fill="#000000" font-family="sans-serif" font-size="13" font-weight="bold" lengthAdjust="spacing" textLength="7" x="385.5" y="404.5629">5</text><text fill="#000000" font-family="sans-serif" font-size="13" lengthAdjust="spacing" textLength="93" x="396.5" y="404.5629">controllaEmail()</text><path d="M10,475.3719 L73,475.3719 L73,485.0779 L63,495.0779 L10,495.0779 L10,475.3719 " fill="#EEEEEE" style="stroke:#000000;stroke-width:1.5;"/><rect fill="none" height="100.0999" style="stroke:#000000;stroke-width:1.5;" width="605.5" x="10" y="475.3719"/><text fill="#000000" font-family="sans-serif" font-size="13" font-weight="bold" lengthAdjust="spacing" textLength="18" x="25" y="490.2689">alt</text><a href="vincoli" target="_top" title="vincoli" xlink:actuate="onRequest" xlink:href="vincoli" xlink:show="new" xlink:title="vincoli" xlink:type="simple"><text fill="#0000FF" font-family="sans-serif" font-size="11" font-weight="bold" lengthAdjust="spacing" text-decoration="underline" textLength="58" x="88" y="489.1308">soddisfatti</text></a><polygon fill="#181818" points="553.5,514.784,563.5,518.784,553.5,522.784,557.5,518.784" style="stroke:#181818;stroke-width:1.0;"/><line style="stroke:#181818;stroke-width:1.0;" x1="368.5" x2="559.5" y1="518.784" y2="518.784"/><text fill="#000000" font-family="sans-serif" font-size="13" font-weight="bold" lengthAdjust="spacing" textLength="7" x="375.5" y="512.975">6</text><text fill="#000000" font-family="sans-serif" font-size="13" lengthAdjust="spacing" textLength="115" x="386.5" y="512.975">aggiungiContatto()</text><line style="stroke:#000000;stroke-width:1.0;stroke-dasharray:2.0,2.0;" x1="10" x2="615.5" y1="527.784" y2="527.784"/><a href="vincoli" target="_top" title="vincoli" xlink:actuate="onRequest" xlink:href="vincoli" xlink:show="new" xlink:title="vincoli" xlink:type="simple"><text fill="#0000FF" font-family="sans-serif" font-size="11" font-weight="bold" lengthAdjust="spacing" text-decoration="underline" textLength="82" x="15" y="539.5429">non soddisfatti</text></a><polygon fill="#181818" points="61.5,563.4719,51.5,567.4719,61.5,571.4719,57.5,567.4719" style="stroke:#181818;stroke-width:1.0;"/><line style="stroke:#181818;stroke-width:1.0;stroke-dasharray:2.0,2.0;" x1="55.5" x2="362.5" y1="567.4719" y2="567.4719"/><text fill="#000000" font-family="sans-serif" font-size="13" font-weight="bold" lengthAdjust="spacing" textLength="7" x="67.5" y="561.6629">7</text><text fill="#000000" font-family="sans-serif" font-size="13" lengthAdjust="spacing" textLength="130" x="78.5" y="561.6629">mostraDialog(ERROR)</text><!--SRC=[jPD1Qy9048Nl-oi6lUX1A4Wfv20KcxCGsbx4msGpfaCtis4piT1VtmID8iKOYyrbisJclMzVTfJL4JpdETUICoozAAfwWxLwgOkKWa6hFi2RaYYP4eEovH95OHa8kuPtfg_sFNZdcXxRBbRPImL9dGQsQ5eXtg5IfxLVPelBEX6iMIeAN5a2bgqF1NuteWm4rh6r2AEs-yWzsfnSUl3CvMymM_HqGWGVA9cZBh6kR38TOWpZ-VpfCNxeyU-rZm3iOODBB4fUfQdZ79iVn3SIP3GaAETz2NDWfR0Fta3pt87-bHnjlRIvjOgtaBVrm-Zln1eNoExVGOTLacG6dS9wnz8C6KFbiuohRLFAc-i7FinYSutnzmK-ErytjUGgWd79yddo52zdld3DUBROpte4XQyqu0kZy_aaJf9LClrxJaT6oNu0]--></g></svg>