<?xml version="1.0" encoding="us-ascii" standalone="no"?><svg xmlns="http://www.w3.org/2000/svg" xmlns:xlink="http://www.w3.org/1999/xlink" contentStyleType="text/css" height="631px" preserveAspectRatio="none" style="width:557px;height:631px;background:#FFFFFF;" version="1.1" viewBox="0 0 557 631" width="557px" zoomAndPan="magnify"><defs/><g><text fill="#000000" font-family="sans-serif" font-size="14" font-weight="bold" lengthAdjust="spacing" textLength="119" x="220" y="29.9659">Esporta Contatto</text><rect fill="#FFFFFF" height="404.336" style="stroke:#181818;stroke-width:1.0;" width="10" x="40.5" y="134.1358"/><rect fill="#FFFFFF" height="379.63" style="stroke:#181818;stroke-width:1.0;" width="10" x="312.5" y="157.8419"/><rect fill="#3375E0" height="276.2361" style="stroke:#181818;stroke-width:1.0;" width="10" x="317.5" y="197.5479"/><rect fill="#3375E0" height="141.412" style="stroke:#181818;stroke-width:1.0;" width="10" x="322.5" y="300.6659"/><rect fill="#3375E0" height="28" style="stroke:#181818;stroke-width:1.0;" width="10" x="327.5" y="345.3719"/><rect fill="#FFFFFF" height="30" style="stroke:#181818;stroke-width:1.0;" width="10" x="490.5" y="412.0779"/><rect fill="none" height="281.218" style="stroke:#000000;stroke-width:1.5;" width="540" x="10" y="249.2539"/><rect fill="#FFC0CB" height="48.6879" style="stroke:none;stroke-width:1.0;" width="540" x="10" y="481.784"/><line style="stroke:#181818;stroke-width:0.5;stroke-dasharray:5.0,5.0;" x1="45" x2="45" y1="124.1358" y2="547.4719"/><line style="stroke:#181818;stroke-width:0.5;stroke-dasharray:5.0,5.0;" x1="317.5" x2="317.5" y1="124.1358" y2="547.4719"/><line style="stroke:#181818;stroke-width:0.5;stroke-dasharray:5.0,5.0;" x1="495" x2="495" y1="124.1358" y2="547.4719"/><text fill="#000000" font-family="sans-serif" font-size="14" lengthAdjust="spacing" textLength="45" x="20" y="120.0339">Utente</text><ellipse cx="45.5" cy="53.5679" fill="#E2E2F0" rx="8" ry="8" style="stroke:#181818;stroke-width:0.5;"/><path d="M45.5,61.5679 L45.5,88.5679 M32.5,69.5679 L58.5,69.5679 M45.5,88.5679 L32.5,103.5679 M45.5,88.5679 L58.5,103.5679 " fill="none" style="stroke:#181818;stroke-width:0.5;"/><text fill="#000000" font-family="sans-serif" font-size="14" lengthAdjust="spacing" textLength="45" x="20" y="561.4378">Utente</text><ellipse cx="45.5" cy="574.0398" fill="#E2E2F0" rx="8" ry="8" style="stroke:#181818;stroke-width:0.5;"/><path d="M45.5,582.0398 L45.5,609.0398 M32.5,590.0398 L58.5,590.0398 M45.5,609.0398 L32.5,624.0398 M45.5,609.0398 L58.5,624.0398 " fill="none" style="stroke:#181818;stroke-width:0.5;"/><rect fill="#E2E2F0" height="33.0679" rx="2.5" ry="2.5" style="stroke:#181818;stroke-width:0.5;" width="164" x="235.5" y="90.0679"/><text fill="#000000" font-family="sans-serif" font-size="14" lengthAdjust="spacing" textLength="150" x="242.5" y="112.0339">RubricaViewController</text><rect fill="#E2E2F0" height="33.0679" rx="2.5" ry="2.5" style="stroke:#181818;stroke-width:0.5;" width="164" x="235.5" y="546.4719"/><text fill="#000000" font-family="sans-serif" font-size="14" lengthAdjust="spacing" textLength="150" x="242.5" y="568.4378">RubricaViewController</text><rect fill="#E2E2F0" height="33.0679" style="stroke:#181818;stroke-width:0.5;" width="85" x="455" y="86.0679"/><rect fill="#E2E2F0" height="33.0679" style="stroke:#181818;stroke-width:0.5;" width="85" x="451" y="90.0679"/><text fill="#000000" font-family="sans-serif" font-size="14" lengthAdjust="spacing" textLength="71" x="458" y="112.0339">FileSystem</text><rect fill="#E2E2F0" height="33.0679" style="stroke:#181818;stroke-width:0.5;" width="85" x="455" y="546.4719"/><rect fill="#E2E2F0" height="33.0679" style="stroke:#181818;stroke-width:0.5;" width="85" x="451" y="550.4719"/><text fill="#000000" font-family="sans-serif" font-size="14" lengthAdjust="spacing" textLength="71" x="458" y="572.4378">FileSystem</text><rect fill="#FFFFFF" height="404.336" style="stroke:#181818;stroke-width:1.0;" width="10" x="40.5" y="134.1358"/><rect fill="#FFFFFF" height="379.63" style="stroke:#181818;stroke-width:1.0;" width="10" x="312.5" y="157.8419"/><rect fill="#3375E0" height="276.2361" style="stroke:#181818;stroke-width:1.0;" width="10" x="317.5" y="197.5479"/><rect fill="#3375E0" height="141.412" style="stroke:#181818;stroke-width:1.0;" width="10" x="322.5" y="300.6659"/><rect fill="#3375E0" height="28" style="stroke:#181818;stroke-width:1.0;" width="10" x="327.5" y="345.3719"/><rect fill="#FFFFFF" height="30" style="stroke:#181818;stroke-width:1.0;" width="10" x="490.5" y="412.0779"/><polygon fill="#181818" points="300.5,153.8419,310.5,157.8419,300.5,161.8419,304.5,157.8419" style="stroke:#181818;stroke-width:1.0;"/><line style="stroke:#181818;stroke-width:1.0;" x1="50.5" x2="306.5" y1="157.8419" y2="157.8419"/><text fill="#000000" font-family="sans-serif" font-size="13" font-weight="bold" lengthAdjust="spacing" textLength="7" x="57.5" y="152.0328">1</text><text fill="#000000" font-family="sans-serif" font-size="13" lengthAdjust="spacing" textLength="232" x="68.5" y="152.0328">[clicca il tasto "file -&gt; Esporta Contatto"]</text><line style="stroke:#181818;stroke-width:1.0;" x1="322.5" x2="369.5" y1="184.5479" y2="184.5479"/><line style="stroke:#181818;stroke-width:1.0;" x1="369.5" x2="369.5" y1="184.5479" y2="197.5479"/><line style="stroke:#181818;stroke-width:1.0;" x1="328.5" x2="369.5" y1="197.5479" y2="197.5479"/><polygon fill="#181818" points="338.5,193.5479,328.5,197.5479,338.5,201.5479,334.5,197.5479" style="stroke:#181818;stroke-width:1.0;"/><text fill="#000000" font-family="sans-serif" font-size="13" font-weight="bold" lengthAdjust="spacing" textLength="7" x="334.5" y="178.7389">2</text><text fill="#000000" font-family="sans-serif" font-size="13" lengthAdjust="spacing" textLength="143" x="345.5" y="178.7389">handleExportContatto()</text><polygon fill="#181818" points="61.5,230.2539,51.5,234.2539,61.5,238.2539,57.5,234.2539" style="stroke:#181818;stroke-width:1.0;"/><line style="stroke:#181818;stroke-width:1.0;stroke-dasharray:2.0,2.0;" x1="55.5" x2="316.5" y1="234.2539" y2="234.2539"/><text fill="#000000" font-family="sans-serif" font-size="13" font-weight="bold" lengthAdjust="spacing" textLength="7" x="67.5" y="228.4449">3</text><text fill="#000000" font-family="sans-serif" font-size="13" lengthAdjust="spacing" textLength="106" x="78.5" y="228.4449">showSaveDialog()</text><path d="M10,249.2539 L73,249.2539 L73,258.9599 L63,268.9599 L10,268.9599 L10,249.2539 " fill="#EEEEEE" style="stroke:#000000;stroke-width:1.5;"/><rect fill="none" height="281.218" style="stroke:#000000;stroke-width:1.5;" width="540" x="10" y="249.2539"/><text fill="#000000" font-family="sans-serif" font-size="13" font-weight="bold" lengthAdjust="spacing" textLength="18" x="25" y="264.1509">alt</text><a href="Conferma" target="_top" title="Conferma" xlink:actuate="onRequest" xlink:href="Conferma" xlink:show="new" xlink:title="Conferma" xlink:type="simple"><text fill="#0000FF" font-family="sans-serif" font-size="11" font-weight="bold" lengthAdjust="spacing" text-decoration="underline" textLength="55" x="88" y="263.0128">Conferma</text></a><line style="stroke:#181818;stroke-width:1.0;" x1="327.5" x2="374.5" y1="287.6659" y2="287.6659"/><line style="stroke:#181818;stroke-width:1.0;" x1="374.5" x2="374.5" y1="287.6659" y2="300.6659"/><line style="stroke:#181818;stroke-width:1.0;" x1="333.5" x2="374.5" y1="300.6659" y2="300.6659"/><polygon fill="#181818" points="343.5,296.6659,333.5,300.6659,343.5,304.6659,339.5,300.6659" style="stroke:#181818;stroke-width:1.0;"/><text fill="#000000" font-family="sans-serif" font-size="13" font-weight="bold" lengthAdjust="spacing" textLength="7" x="339.5" y="281.8569">4</text><text fill="#000000" font-family="sans-serif" font-size="13" lengthAdjust="spacing" textLength="108" x="350.5" y="281.8569">esportaContatto()</text><line style="stroke:#181818;stroke-width:1.0;" x1="337.5" x2="379.5" y1="337.3719" y2="337.3719"/><line style="stroke:#181818;stroke-width:1.0;" x1="379.5" x2="379.5" y1="337.3719" y2="350.3719"/><line style="stroke:#181818;stroke-width:1.0;" x1="338.5" x2="379.5" y1="350.3719" y2="350.3719"/><polygon fill="#181818" points="348.5,346.3719,338.5,350.3719,348.5,354.3719,344.5,350.3719" style="stroke:#181818;stroke-width:1.0;"/><text fill="#000000" font-family="sans-serif" font-size="13" font-weight="bold" lengthAdjust="spacing" textLength="7" x="344.5" y="331.5629">5</text><text fill="#000000" font-family="sans-serif" font-size="13" lengthAdjust="spacing" textLength="64" x="355.5" y="331.5629">getVCard()</text><polygon fill="#181818" points="478.5,408.0779,488.5,412.0779,478.5,416.0779,482.5,412.0779" style="stroke:#181818;stroke-width:1.0;"/><line style="stroke:#181818;stroke-width:1.0;" x1="332.5" x2="484.5" y1="412.0779" y2="412.0779"/><text fill="#000000" font-family="sans-serif" font-size="13" font-weight="bold" lengthAdjust="spacing" textLength="7" x="339.5" y="406.2689">6</text><text fill="#000000" font-family="sans-serif" font-size="13" lengthAdjust="spacing" textLength="38" x="350.5" y="406.2689">write()</text><polygon fill="#181818" points="61.5,469.784,51.5,473.784,61.5,477.784,57.5,473.784" style="stroke:#181818;stroke-width:1.0;"/><line style="stroke:#181818;stroke-width:1.0;stroke-dasharray:2.0,2.0;" x1="55.5" x2="311.5" y1="473.784" y2="473.784"/><text fill="#000000" font-family="sans-serif" font-size="13" font-weight="bold" lengthAdjust="spacing" textLength="7" x="67.5" y="467.975">7</text><text fill="#000000" font-family="sans-serif" font-size="13" lengthAdjust="spacing" textLength="143" x="78.5" y="467.975">mostraDialog(SUCCESS)</text><line style="stroke:#000000;stroke-width:1.0;stroke-dasharray:2.0,2.0;" x1="10" x2="550" y1="482.784" y2="482.784"/><a href="Annulla" target="_top" title="Annulla" xlink:actuate="onRequest" xlink:href="Annulla" xlink:show="new" xlink:title="Annulla" xlink:type="simple"><text fill="#0000FF" font-family="sans-serif" font-size="11" font-weight="bold" lengthAdjust="spacing" text-decoration="underline" textLength="42" x="15" y="494.5429">Annulla</text></a><polygon fill="#181818" points="61.5,518.4719,51.5,522.4719,61.5,526.4719,57.5,522.4719" style="stroke:#181818;stroke-width:1.0;"/><line style="stroke:#181818;stroke-width:1.0;stroke-dasharray:2.0,2.0;" x1="55.5" x2="311.5" y1="522.4719" y2="522.4719"/><text fill="#000000" font-family="sans-serif" font-size="13" font-weight="bold" lengthAdjust="spacing" textLength="7" x="67.5" y="516.6629">8</text><text fill="#000000" font-family="sans-serif" font-size="13" lengthAdjust="spacing" textLength="89" x="78.5" y="516.6629">[mostra home]</text><!--SRC=[dPB1Ri8m38RlF8K5bt50ceIcIJqWJLtt0AlWKkrWKaEjfKcLkB2z_Le2hDiOwtfBOll_Vji1010MJP3uoZf1YAqH5B6Z9W9OYpLrkIOt2dSbri5Io0Z1uQL29wouGYFmNAyTArmnxLiLPxLk2jiirHwLi3KUdbXJ-kw5IZYByWuRmQ1xU0l7sUAYP9GfpKeXi0P1BnR6cqOKPeiVNOnVlY9-jtWnqafU3aHGeCar9Myjy8IxcVR0mMG-lxzBRgzX6-vnoX7umkvJtD4ZexRR4q8BP4t5Xbo9eSa1FL0OrpVx_sfW07LBiehHvSDmEVNOvbLVdHyOmTwnqDb9nyjdrZdMGL-F3ZBMtNbflJWyRZnTnd6IfjF-f4CcQKymgTYyGlPWJAtrNn-bwo0B5g2m9OKoClce3nq-0000]--></g></svg>