<?xml version="1.0" encoding="us-ascii" standalone="no"?><svg xmlns="http://www.w3.org/2000/svg" xmlns:xlink="http://www.w3.org/1999/xlink" contentStyleType="text/css" height="653px" preserveAspectRatio="none" style="width:681px;height:653px;background:#FFFFFF;" version="1.1" viewBox="0 0 681 653" width="681px" zoomAndPan="magnify"><defs/><g><text fill="#000000" font-family="sans-serif" font-size="14" font-weight="bold" lengthAdjust="spacing" textLength="181" x="249.25" y="29.9659">Importa Rubrica/Contatto</text><rect fill="#FFFFFF" height="426.7481" style="stroke:#181818;stroke-width:1.0;" width="10" x="40.5" y="134.1358"/><rect fill="#FFFFFF" height="402.0421" style="stroke:#181818;stroke-width:1.0;" width="10" x="365.5" y="157.8419"/><rect fill="#3375E0" height="274.9421" style="stroke:#181818;stroke-width:1.0;" width="10" x="370.5" y="197.5479"/><rect fill="#3375E0" height="93.412" style="stroke:#181818;stroke-width:1.0;" width="10" x="375.5" y="364.0779"/><rect fill="#FFFFFF" height="30" style="stroke:#181818;stroke-width:1.0;" width="10" x="536.5" y="427.49"/><rect fill="none" height="271.924" style="stroke:#000000;stroke-width:1.5;" width="586.5" x="10" y="280.9599"/><rect fill="none" height="81.412" style="stroke:#000000;stroke-width:1.5;" width="308" x="278.5" y="384.0779"/><rect fill="#FFC0CB" height="80.3939" style="stroke:none;stroke-width:1.0;" width="586.5" x="10" y="472.49"/><line style="stroke:#181818;stroke-width:0.5;stroke-dasharray:5.0,5.0;" x1="45" x2="45" y1="124.1358" y2="569.8839"/><line style="stroke:#181818;stroke-width:0.5;stroke-dasharray:5.0,5.0;" x1="370.5" x2="370.5" y1="124.1358" y2="569.8839"/><line style="stroke:#181818;stroke-width:0.5;stroke-dasharray:5.0,5.0;" x1="541.5" x2="541.5" y1="124.1358" y2="569.8839"/><line style="stroke:#181818;stroke-width:0.5;stroke-dasharray:5.0,5.0;" x1="630.5" x2="630.5" y1="124.1358" y2="569.8839"/><text fill="#000000" font-family="sans-serif" font-size="14" lengthAdjust="spacing" textLength="45" x="20" y="120.0339">Utente</text><ellipse cx="45.5" cy="53.5679" fill="#E2E2F0" rx="8" ry="8" style="stroke:#181818;stroke-width:0.5;"/><path d="M45.5,61.5679 L45.5,88.5679 M32.5,69.5679 L58.5,69.5679 M45.5,88.5679 L32.5,103.5679 M45.5,88.5679 L58.5,103.5679 " fill="none" style="stroke:#181818;stroke-width:0.5;"/><text fill="#000000" font-family="sans-serif" font-size="14" lengthAdjust="spacing" textLength="45" x="20" y="583.8498">Utente</text><ellipse cx="45.5" cy="596.4518" fill="#E2E2F0" rx="8" ry="8" style="stroke:#181818;stroke-width:0.5;"/><path d="M45.5,604.4518 L45.5,631.4518 M32.5,612.4518 L58.5,612.4518 M45.5,631.4518 L32.5,646.4518 M45.5,631.4518 L58.5,646.4518 " fill="none" style="stroke:#181818;stroke-width:0.5;"/><rect fill="#E2E2F0" height="33.0679" rx="2.5" ry="2.5" style="stroke:#181818;stroke-width:0.5;" width="164" x="288.5" y="90.0679"/><text fill="#000000" font-family="sans-serif" font-size="14" lengthAdjust="spacing" textLength="150" x="295.5" y="112.0339">RubricaViewController</text><rect fill="#E2E2F0" height="33.0679" rx="2.5" ry="2.5" style="stroke:#181818;stroke-width:0.5;" width="164" x="288.5" y="568.8839"/><text fill="#000000" font-family="sans-serif" font-size="14" lengthAdjust="spacing" textLength="150" x="295.5" y="590.8498">RubricaViewController</text><rect fill="#E2E2F0" height="33.0679" style="stroke:#181818;stroke-width:0.5;" width="66" x="510.5" y="86.0679"/><rect fill="#E2E2F0" height="33.0679" style="stroke:#181818;stroke-width:0.5;" width="66" x="506.5" y="90.0679"/><text fill="#000000" font-family="sans-serif" font-size="14" lengthAdjust="spacing" textLength="52" x="513.5" y="112.0339">Rubrica</text><rect fill="#E2E2F0" height="33.0679" style="stroke:#181818;stroke-width:0.5;" width="66" x="510.5" y="568.8839"/><rect fill="#E2E2F0" height="33.0679" style="stroke:#181818;stroke-width:0.5;" width="66" x="506.5" y="572.8839"/><text fill="#000000" font-family="sans-serif" font-size="14" lengthAdjust="spacing" textLength="52" x="513.5" y="594.8498">Rubrica</text><rect fill="#E2E2F0" height="33.0679" style="stroke:#181818;stroke-width:0.5;" width="85" x="590.5" y="86.0679"/><rect fill="#E2E2F0" height="33.0679" style="stroke:#181818;stroke-width:0.5;" width="85" x="586.5" y="90.0679"/><text fill="#000000" font-family="sans-serif" font-size="14" lengthAdjust="spacing" textLength="71" x="593.5" y="112.0339">FileSystem</text><rect fill="#E2E2F0" height="33.0679" style="stroke:#181818;stroke-width:0.5;" width="85" x="590.5" y="568.8839"/><rect fill="#E2E2F0" height="33.0679" style="stroke:#181818;stroke-width:0.5;" width="85" x="586.5" y="572.8839"/><text fill="#000000" font-family="sans-serif" font-size="14" lengthAdjust="spacing" textLength="71" x="593.5" y="594.8498">FileSystem</text><rect fill="#FFFFFF" height="426.7481" style="stroke:#181818;stroke-width:1.0;" width="10" x="40.5" y="134.1358"/><rect fill="#FFFFFF" height="402.0421" style="stroke:#181818;stroke-width:1.0;" width="10" x="365.5" y="157.8419"/><rect fill="#3375E0" height="274.9421" style="stroke:#181818;stroke-width:1.0;" width="10" x="370.5" y="197.5479"/><rect fill="#3375E0" height="93.412" style="stroke:#181818;stroke-width:1.0;" width="10" x="375.5" y="364.0779"/><rect fill="#FFFFFF" height="30" style="stroke:#181818;stroke-width:1.0;" width="10" x="536.5" y="427.49"/><polygon fill="#181818" points="353.5,153.8419,363.5,157.8419,353.5,161.8419,357.5,157.8419" style="stroke:#181818;stroke-width:1.0;"/><line style="stroke:#181818;stroke-width:1.0;" x1="50.5" x2="359.5" y1="157.8419" y2="157.8419"/><text fill="#000000" font-family="sans-serif" font-size="13" font-weight="bold" lengthAdjust="spacing" textLength="7" x="57.5" y="152.0328">1</text><text fill="#000000" font-family="sans-serif" font-size="13" lengthAdjust="spacing" textLength="285" x="68.5" y="152.0328">[clicca il tasto "file -&gt; Importa Rubrica/Contatto"]</text><line style="stroke:#181818;stroke-width:1.0;" x1="375.5" x2="422.5" y1="184.5479" y2="184.5479"/><line style="stroke:#181818;stroke-width:1.0;" x1="422.5" x2="422.5" y1="184.5479" y2="197.5479"/><line style="stroke:#181818;stroke-width:1.0;" x1="381.5" x2="422.5" y1="197.5479" y2="197.5479"/><polygon fill="#181818" points="391.5,193.5479,381.5,197.5479,391.5,201.5479,387.5,197.5479" style="stroke:#181818;stroke-width:1.0;"/><text fill="#000000" font-family="sans-serif" font-size="13" font-weight="bold" lengthAdjust="spacing" textLength="7" x="387.5" y="178.7389">2</text><text fill="#000000" font-family="sans-serif" font-size="13" lengthAdjust="spacing" textLength="136" x="398.5" y="178.7389">handleImportRubrica()</text><polygon fill="#181818" points="61.5,230.2539,51.5,234.2539,61.5,238.2539,57.5,234.2539" style="stroke:#181818;stroke-width:1.0;"/><line style="stroke:#181818;stroke-width:1.0;stroke-dasharray:2.0,2.0;" x1="55.5" x2="369.5" y1="234.2539" y2="234.2539"/><text fill="#000000" font-family="sans-serif" font-size="13" font-weight="bold" lengthAdjust="spacing" textLength="7" x="67.5" y="228.4449">3</text><text fill="#000000" font-family="sans-serif" font-size="13" lengthAdjust="spacing" textLength="111" x="78.5" y="228.4449">showOpenDialog()</text><polygon fill="#181818" points="619,261.9599,629,265.9599,619,269.9599,623,265.9599" style="stroke:#181818;stroke-width:1.0;"/><line style="stroke:#181818;stroke-width:1.0;" x1="50.5" x2="625" y1="265.9599" y2="265.9599"/><text fill="#000000" font-family="sans-serif" font-size="13" font-weight="bold" lengthAdjust="spacing" textLength="7" x="57.5" y="260.1509">4</text><text fill="#000000" font-family="sans-serif" font-size="13" lengthAdjust="spacing" textLength="226" x="68.5" y="260.1509">[Sceglie un file presente sul computer]</text><path d="M10,280.9599 L73,280.9599 L73,290.6659 L63,300.6659 L10,300.6659 L10,280.9599 " fill="#EEEEEE" style="stroke:#000000;stroke-width:1.5;"/><rect fill="none" height="271.924" style="stroke:#000000;stroke-width:1.5;" width="586.5" x="10" y="280.9599"/><text fill="#000000" font-family="sans-serif" font-size="13" font-weight="bold" lengthAdjust="spacing" textLength="18" x="25" y="295.8569">alt</text><a href="Conferma" target="_top" title="Conferma" xlink:actuate="onRequest" xlink:href="Conferma" xlink:show="new" xlink:title="Conferma" xlink:type="simple"><text fill="#0000FF" font-family="sans-serif" font-size="11" font-weight="bold" lengthAdjust="spacing" text-decoration="underline" textLength="55" x="88" y="294.7188">Conferma</text></a><polygon fill="#181818" points="358.5,320.3719,368.5,324.3719,358.5,328.3719,362.5,324.3719" style="stroke:#181818;stroke-width:1.0;"/><line style="stroke:#181818;stroke-width:1.0;" x1="50.5" x2="364.5" y1="324.3719" y2="324.3719"/><text fill="#000000" font-family="sans-serif" font-size="13" font-weight="bold" lengthAdjust="spacing" textLength="7" x="57.5" y="318.5629">5</text><text fill="#000000" font-family="sans-serif" font-size="13" lengthAdjust="spacing" textLength="177" x="68.5" y="318.5629">[Conferma di voler importare]</text><line style="stroke:#181818;stroke-width:1.0;" x1="380.5" x2="427.5" y1="351.0779" y2="351.0779"/><line style="stroke:#181818;stroke-width:1.0;" x1="427.5" x2="427.5" y1="351.0779" y2="364.0779"/><line style="stroke:#181818;stroke-width:1.0;" x1="386.5" x2="427.5" y1="364.0779" y2="364.0779"/><polygon fill="#181818" points="396.5,360.0779,386.5,364.0779,396.5,368.0779,392.5,364.0779" style="stroke:#181818;stroke-width:1.0;"/><text fill="#000000" font-family="sans-serif" font-size="13" font-weight="bold" lengthAdjust="spacing" textLength="7" x="392.5" y="345.2689">6</text><text fill="#000000" font-family="sans-serif" font-size="13" lengthAdjust="spacing" textLength="85" x="403.5" y="345.2689">importVCard()</text><path d="M278.5,384.0779 L351.5,384.0779 L351.5,393.784 L341.5,403.784 L278.5,403.784 L278.5,384.0779 " fill="#EEEEEE" style="stroke:#000000;stroke-width:1.5;"/><rect fill="none" height="81.412" style="stroke:#000000;stroke-width:1.5;" width="308" x="278.5" y="384.0779"/><text fill="#000000" font-family="sans-serif" font-size="13" font-weight="bold" lengthAdjust="spacing" textLength="28" x="293.5" y="398.975">loop</text><text fill="#000000" font-family="sans-serif" font-size="11" font-weight="bold" lengthAdjust="spacing" textLength="29" x="366.5" y="397.8369">[EOF]</text><polygon fill="#181818" points="524.5,423.49,534.5,427.49,524.5,431.49,528.5,427.49" style="stroke:#181818;stroke-width:1.0;"/><line style="stroke:#181818;stroke-width:1.0;" x1="385.5" x2="530.5" y1="427.49" y2="427.49"/><text fill="#000000" font-family="sans-serif" font-size="13" font-weight="bold" lengthAdjust="spacing" textLength="7" x="392.5" y="421.681">7</text><text fill="#000000" font-family="sans-serif" font-size="13" lengthAdjust="spacing" textLength="115" x="403.5" y="421.681">aggiungiContatto()</text><line style="stroke:#000000;stroke-width:1.0;stroke-dasharray:2.0,2.0;" x1="10" x2="596.5" y1="473.49" y2="473.49"/><a href="Annulla" target="_top" title="Annulla" xlink:actuate="onRequest" xlink:href="Annulla" xlink:show="new" xlink:title="Annulla" xlink:type="simple"><text fill="#0000FF" font-family="sans-serif" font-size="11" font-weight="bold" lengthAdjust="spacing" text-decoration="underline" textLength="42" x="15" y="485.2489">Annulla</text></a><polygon fill="#181818" points="353.5,509.1779,363.5,513.1779,353.5,517.1779,357.5,513.1779" style="stroke:#181818;stroke-width:1.0;"/><line style="stroke:#181818;stroke-width:1.0;" x1="50.5" x2="359.5" y1="513.1779" y2="513.1779"/><text fill="#000000" font-family="sans-serif" font-size="13" font-weight="bold" lengthAdjust="spacing" textLength="7" x="57.5" y="507.3689">8</text><text fill="#000000" font-family="sans-serif" font-size="13" lengthAdjust="spacing" textLength="97" x="68.5" y="507.3689">[clicca "Annulla"]</text><polygon fill="#181818" points="61.5,540.8839,51.5,544.8839,61.5,548.8839,57.5,544.8839" style="stroke:#181818;stroke-width:1.0;"/><line style="stroke:#181818;stroke-width:1.0;stroke-dasharray:2.0,2.0;" x1="55.5" x2="364.5" y1="544.8839" y2="544.8839"/><text fill="#000000" font-family="sans-serif" font-size="13" font-weight="bold" lengthAdjust="spacing" textLength="7" x="67.5" y="539.0749">9</text><text fill="#000000" font-family="sans-serif" font-size="13" lengthAdjust="spacing" textLength="89" x="78.5" y="539.0749">[mostra home]</text><!--SRC=[dPDDQyCm38Rl-nKYlMo7ia4PWnuAesjXfyBAUWazk8wQYZbsiEMM_VivYPjs8_rQJhRrwdraoG5WOeNmNfJ6ie0Flx8anUFOQ1RCvWv0U3RQ5okqOLFj9HiBduoQCMnBOPaabKBpFdj1kAiCh56gpfBLGZ8PxVQQFwTJKZZ_Ten52w6jO3nm82xxeqxAC9MAf1H02bWuDf2iWoVqHoVlbYnhsnPrgdheZbJMtO4XR8JE53RWgBb_k886lS7WvNdoT8uQi4qd0iTjp6vMeduZeKmU4J4QT8Uk1cqwbvWhGl0QwjQK5bsjT5w5OHIbPxHBg3sQMXL36j1hj8LecdNiVkhoRGfa15jJ7L8p0elH_XyjRImMOs6pUC-RcbbzofWI9hDfUt1D8G4jyfoypcd_S5f-TnM_WXbUAFA2kWsZpkwkjQo5g1n2hoJz1UchrbwfMsOO_wOaPYRBytCxVfHfOHnR0HjJO9DsG-q_]--></g></svg>