<?xml version="1.0" encoding="us-ascii" standalone="no"?><svg xmlns="http://www.w3.org/2000/svg" xmlns:xlink="http://www.w3.org/1999/xlink" contentStyleType="text/css" height="432px" preserveAspectRatio="none" style="width:593px;height:432px;background:#FFFFFF;" version="1.1" viewBox="0 0 593 432" width="593px" zoomAndPan="magnify"><defs/><g><text fill="#000000" font-family="sans-serif" font-size="14" font-weight="bold" lengthAdjust="spacing" textLength="115" x="240.75" y="29.9659">Ricerca Contatto</text><rect fill="#FFFFFF" height="205.2361" style="stroke:#181818;stroke-width:1.0;" width="10" x="40.5" y="134.1358"/><rect fill="#FFFFFF" height="182.5301" style="stroke:#181818;stroke-width:1.0;" width="10" x="373.5" y="157.8419"/><rect fill="#3375E0" height="95.118" style="stroke:#181818;stroke-width:1.0;" width="10" x="378.5" y="197.5479"/><rect fill="#FFFFFF" height="31.706" style="stroke:#181818;stroke-width:1.0;" width="10" x="537.5" y="260.9599"/><rect fill="none" height="114.8241" style="stroke:#000000;stroke-width:1.5;" width="577.5" x="10" y="217.5479"/><line style="stroke:#181818;stroke-width:0.5;stroke-dasharray:5.0,5.0;" x1="45" x2="45" y1="124.1358" y2="349.3719"/><line style="stroke:#181818;stroke-width:0.5;stroke-dasharray:5.0,5.0;" x1="378.5" x2="378.5" y1="124.1358" y2="349.3719"/><line style="stroke:#181818;stroke-width:0.5;stroke-dasharray:5.0,5.0;" x1="542.5" x2="542.5" y1="124.1358" y2="349.3719"/><text fill="#000000" font-family="sans-serif" font-size="14" lengthAdjust="spacing" textLength="45" x="20" y="120.0339">Utente</text><ellipse cx="45.5" cy="53.5679" fill="#E2E2F0" rx="8" ry="8" style="stroke:#181818;stroke-width:0.5;"/><path d="M45.5,61.5679 L45.5,88.5679 M32.5,69.5679 L58.5,69.5679 M45.5,88.5679 L32.5,103.5679 M45.5,88.5679 L58.5,103.5679 " fill="none" style="stroke:#181818;stroke-width:0.5;"/><text fill="#000000" font-family="sans-serif" font-size="14" lengthAdjust="spacing" textLength="45" x="20" y="363.3379">Utente</text><ellipse cx="45.5" cy="375.9398" fill="#E2E2F0" rx="8" ry="8" style="stroke:#181818;stroke-width:0.5;"/><path d="M45.5,383.9398 L45.5,410.9398 M32.5,391.9398 L58.5,391.9398 M45.5,410.9398 L32.5,425.9398 M45.5,410.9398 L58.5,425.9398 " fill="none" style="stroke:#181818;stroke-width:0.5;"/><rect fill="#E2E2F0" height="33.0679" rx="2.5" ry="2.5" style="stroke:#181818;stroke-width:0.5;" width="164" x="296.5" y="90.0679"/><text fill="#000000" font-family="sans-serif" font-size="14" lengthAdjust="spacing" textLength="150" x="303.5" y="112.0339">RubricaViewController</text><rect fill="#E2E2F0" height="33.0679" rx="2.5" ry="2.5" style="stroke:#181818;stroke-width:0.5;" width="164" x="296.5" y="348.3719"/><text fill="#000000" font-family="sans-serif" font-size="14" lengthAdjust="spacing" textLength="150" x="303.5" y="370.3379">RubricaViewController</text><rect fill="#E2E2F0" height="33.0679" style="stroke:#181818;stroke-width:0.5;" width="66" x="511.5" y="86.0679"/><rect fill="#E2E2F0" height="33.0679" style="stroke:#181818;stroke-width:0.5;" width="66" x="507.5" y="90.0679"/><text fill="#000000" font-family="sans-serif" font-size="14" lengthAdjust="spacing" textLength="52" x="514.5" y="112.0339">Rubrica</text><rect fill="#E2E2F0" height="33.0679" style="stroke:#181818;stroke-width:0.5;" width="66" x="511.5" y="348.3719"/><rect fill="#E2E2F0" height="33.0679" style="stroke:#181818;stroke-width:0.5;" width="66" x="507.5" y="352.3719"/><text fill="#000000" font-family="sans-serif" font-size="14" lengthAdjust="spacing" textLength="52" x="514.5" y="374.3379">Rubrica</text><rect fill="#FFFFFF" height="205.2361" style="stroke:#181818;stroke-width:1.0;" width="10" x="40.5" y="134.1358"/><rect fill="#FFFFFF" height="182.5301" style="stroke:#181818;stroke-width:1.0;" width="10" x="373.5" y="157.8419"/><rect fill="#3375E0" height="95.118" style="stroke:#181818;stroke-width:1.0;" width="10" x="378.5" y="197.5479"/><rect fill="#FFFFFF" height="31.706" style="stroke:#181818;stroke-width:1.0;" width="10" x="537.5" y="260.9599"/><polygon fill="#181818" points="361.5,153.8419,371.5,157.8419,361.5,161.8419,365.5,157.8419" style="stroke:#181818;stroke-width:1.0;"/><line style="stroke:#181818;stroke-width:1.0;" x1="50.5" x2="367.5" y1="157.8419" y2="157.8419"/><text fill="#000000" font-family="sans-serif" font-size="13" font-weight="bold" lengthAdjust="spacing" textLength="7" x="57.5" y="152.0328">1</text><text fill="#000000" font-family="sans-serif" font-size="13" lengthAdjust="spacing" textLength="293" x="68.5" y="152.0328">[Seleziona la casella di ricerca e digita una stringa]</text><line style="stroke:#181818;stroke-width:1.0;" x1="383.5" x2="430.5" y1="184.5479" y2="184.5479"/><line style="stroke:#181818;stroke-width:1.0;" x1="430.5" x2="430.5" y1="184.5479" y2="197.5479"/><line style="stroke:#181818;stroke-width:1.0;" x1="389.5" x2="430.5" y1="197.5479" y2="197.5479"/><polygon fill="#181818" points="399.5,193.5479,389.5,197.5479,399.5,201.5479,395.5,197.5479" style="stroke:#181818;stroke-width:1.0;"/><text fill="#000000" font-family="sans-serif" font-size="13" font-weight="bold" lengthAdjust="spacing" textLength="7" x="395.5" y="178.7389">2</text><text fill="#000000" font-family="sans-serif" font-size="13" lengthAdjust="spacing" textLength="84" x="406.5" y="178.7389">filtraContatti()</text><path d="M10,217.5479 L77,217.5479 L77,227.2539 L67,237.2539 L10,237.2539 L10,217.5479 " fill="#EEEEEE" style="stroke:#000000;stroke-width:1.5;"/><rect fill="none" height="114.8241" style="stroke:#000000;stroke-width:1.5;" width="577.5" x="10" y="217.5479"/><text fill="#000000" font-family="sans-serif" font-size="13" font-weight="bold" lengthAdjust="spacing" textLength="22" x="25" y="232.4449">opt</text><text fill="#000000" font-family="sans-serif" font-size="11" font-weight="bold" lengthAdjust="spacing" textLength="82" x="92" y="231.3068">[stringa != null]</text><polygon fill="#181818" points="525.5,256.9599,535.5,260.9599,525.5,264.9599,529.5,260.9599" style="stroke:#181818;stroke-width:1.0;"/><line style="stroke:#181818;stroke-width:1.0;" x1="388.5" x2="531.5" y1="260.9599" y2="260.9599"/><text fill="#000000" font-family="sans-serif" font-size="13" font-weight="bold" lengthAdjust="spacing" textLength="7" x="395.5" y="255.1509">3</text><text fill="#000000" font-family="sans-serif" font-size="13" lengthAdjust="spacing" textLength="82" x="406.5" y="255.1509">getContatto()</text><polygon fill="#181818" points="394.5,288.6659,384.5,292.6659,394.5,296.6659,390.5,292.6659" style="stroke:#181818;stroke-width:1.0;"/><line style="stroke:#181818;stroke-width:1.0;stroke-dasharray:2.0,2.0;" x1="388.5" x2="541.5" y1="292.6659" y2="292.6659"/><text fill="#000000" font-family="sans-serif" font-size="13" font-weight="bold" lengthAdjust="spacing" textLength="7" x="400.5" y="286.8569">4</text><text fill="#000000" font-family="sans-serif" font-size="13" lengthAdjust="spacing" textLength="114" x="411.5" y="286.8569">return listaContatti</text><polygon fill="#181818" points="61.5,320.3719,51.5,324.3719,61.5,328.3719,57.5,324.3719" style="stroke:#181818;stroke-width:1.0;"/><line style="stroke:#181818;stroke-width:1.0;stroke-dasharray:2.0,2.0;" x1="55.5" x2="372.5" y1="324.3719" y2="324.3719"/><text fill="#000000" font-family="sans-serif" font-size="13" font-weight="bold" lengthAdjust="spacing" textLength="7" x="67.5" y="318.5629">5</text><text fill="#000000" font-family="sans-serif" font-size="13" lengthAdjust="spacing" textLength="131" x="78.5" y="318.5629">[Aggiora la TableView]</text><!--SRC=[ZL5DImD13BtlhtZIYnuAGX6Xe235Fr2h5-aXEnkNm3YpP3CA_dfdlwJAjlOqoUJbvRq404pCCxRYM1rX4uEHMIno1PGiXlHUiWwfiwXuDWx6_KT3QkAaeM3OfbB5qOlmPyUXqVknpNMXCucXdL35n2SVP7n8EOHOtiyJhl7wn9w_CXd14norxFDR2NHqm3cfnGWfGrfJ2JNjVy-RrzfZPaidvBo9DwLnQt9vTSOWB5Qhsvl7wnuQ6vj4uk8E8Nb_bWwiKRDDrpeozv09osCcCfMo9GtmqjgFbxwvud-MDWywPI7B68wSR_bGrnArl-IEIiyTTbzmgFxo3XtV]--></g></svg>