<?xml version="1.0" encoding="us-ascii" standalone="no"?><svg xmlns="http://www.w3.org/2000/svg" xmlns:xlink="http://www.w3.org/1999/xlink" contentStyleType="text/css" height="481px" preserveAspectRatio="none" style="width:559px;height:481px;background:#FFFFFF;" version="1.1" viewBox="0 0 559 481" width="559px" zoomAndPan="magnify"><defs/><g><text fill="#000000" font-family="sans-serif" font-size="14" font-weight="bold" lengthAdjust="spacing" textLength="205" x="178" y="29.9659">Imposta Contatto Emergenza</text><rect fill="#FFFFFF" height="254.924" style="stroke:#181818;stroke-width:1.0;" width="10" x="40.5" y="134.1358"/><rect fill="#FFFFFF" height="231.218" style="stroke:#181818;stroke-width:1.0;" width="10" x="336.5" y="157.8419"/><rect fill="#3375E0" height="175.512" style="stroke:#181818;stroke-width:1.0;" width="10" x="341.5" y="197.5479"/><rect fill="none" height="163.512" style="stroke:#000000;stroke-width:1.5;" width="542" x="10" y="217.5479"/><rect fill="#FFC0CB" height="80.3939" style="stroke:none;stroke-width:1.0;" width="542" x="10" y="300.6659"/><line style="stroke:#181818;stroke-width:0.5;stroke-dasharray:5.0,5.0;" x1="45" x2="45" y1="124.1358" y2="398.0598"/><line style="stroke:#181818;stroke-width:0.5;stroke-dasharray:5.0,5.0;" x1="341.5" x2="341.5" y1="124.1358" y2="398.0598"/><line style="stroke:#181818;stroke-width:0.5;stroke-dasharray:5.0,5.0;" x1="506" x2="506" y1="124.1358" y2="398.0598"/><text fill="#000000" font-family="sans-serif" font-size="14" lengthAdjust="spacing" textLength="45" x="20" y="120.0339">Utente</text><ellipse cx="45.5" cy="53.5679" fill="#E2E2F0" rx="8" ry="8" style="stroke:#181818;stroke-width:0.5;"/><path d="M45.5,61.5679 L45.5,88.5679 M32.5,69.5679 L58.5,69.5679 M45.5,88.5679 L32.5,103.5679 M45.5,88.5679 L58.5,103.5679 " fill="none" style="stroke:#181818;stroke-width:0.5;"/><text fill="#000000" font-family="sans-serif" font-size="14" lengthAdjust="spacing" textLength="45" x="20" y="412.0258">Utente</text><ellipse cx="45.5" cy="424.6278" fill="#E2E2F0" rx="8" ry="8" style="stroke:#181818;stroke-width:0.5;"/><path d="M45.5,432.6278 L45.5,459.6278 M32.5,440.6278 L58.5,440.6278 M45.5,459.6278 L32.5,474.6278 M45.5,459.6278 L58.5,474.6278 " fill="none" style="stroke:#181818;stroke-width:0.5;"/><rect fill="#E2E2F0" height="33.0679" rx="2.5" ry="2.5" style="stroke:#181818;stroke-width:0.5;" width="164" x="259.5" y="90.0679"/><text fill="#000000" font-family="sans-serif" font-size="14" lengthAdjust="spacing" textLength="150" x="266.5" y="112.0339">RubricaControllerView</text><rect fill="#E2E2F0" height="33.0679" rx="2.5" ry="2.5" style="stroke:#181818;stroke-width:0.5;" width="164" x="259.5" y="397.0598"/><text fill="#000000" font-family="sans-serif" font-size="14" lengthAdjust="spacing" textLength="150" x="266.5" y="419.0258">RubricaControllerView</text><rect fill="#E2E2F0" height="33.0679" rx="2.5" ry="2.5" style="stroke:#181818;stroke-width:0.5;" width="71" x="471" y="90.0679"/><text fill="#000000" font-family="sans-serif" font-size="14" lengthAdjust="spacing" textLength="57" x="478" y="112.0339">Contatto</text><rect fill="#E2E2F0" height="33.0679" rx="2.5" ry="2.5" style="stroke:#181818;stroke-width:0.5;" width="71" x="471" y="397.0598"/><text fill="#000000" font-family="sans-serif" font-size="14" lengthAdjust="spacing" textLength="57" x="478" y="419.0258">Contatto</text><rect fill="#FFFFFF" height="254.924" style="stroke:#181818;stroke-width:1.0;" width="10" x="40.5" y="134.1358"/><rect fill="#FFFFFF" height="231.218" style="stroke:#181818;stroke-width:1.0;" width="10" x="336.5" y="157.8419"/><rect fill="#3375E0" height="175.512" style="stroke:#181818;stroke-width:1.0;" width="10" x="341.5" y="197.5479"/><polygon fill="#181818" points="324.5,153.8419,334.5,157.8419,324.5,161.8419,328.5,157.8419" style="stroke:#181818;stroke-width:1.0;"/><line style="stroke:#181818;stroke-width:1.0;" x1="50.5" x2="330.5" y1="157.8419" y2="157.8419"/><text fill="#000000" font-family="sans-serif" font-size="13" font-weight="bold" lengthAdjust="spacing" textLength="7" x="57.5" y="152.0328">1</text><text fill="#000000" font-family="sans-serif" font-size="13" lengthAdjust="spacing" textLength="177" x="68.5" y="152.0328">[clicca sull'icona "Emergenza"]</text><line style="stroke:#181818;stroke-width:1.0;" x1="346.5" x2="393.5" y1="184.5479" y2="184.5479"/><line style="stroke:#181818;stroke-width:1.0;" x1="393.5" x2="393.5" y1="184.5479" y2="197.5479"/><line style="stroke:#181818;stroke-width:1.0;" x1="352.5" x2="393.5" y1="197.5479" y2="197.5479"/><polygon fill="#181818" points="362.5,193.5479,352.5,197.5479,362.5,201.5479,358.5,197.5479" style="stroke:#181818;stroke-width:1.0;"/><text fill="#000000" font-family="sans-serif" font-size="13" font-weight="bold" lengthAdjust="spacing" textLength="7" x="358.5" y="178.7389">2</text><text fill="#000000" font-family="sans-serif" font-size="13" lengthAdjust="spacing" textLength="114" x="369.5" y="178.7389">toggleEmergenza()</text><path d="M10,217.5479 L73,217.5479 L73,227.2539 L63,237.2539 L10,237.2539 L10,217.5479 " fill="#EEEEEE" style="stroke:#000000;stroke-width:1.5;"/><rect fill="none" height="163.512" style="stroke:#000000;stroke-width:1.5;" width="542" x="10" y="217.5479"/><text fill="#000000" font-family="sans-serif" font-size="13" font-weight="bold" lengthAdjust="spacing" textLength="18" x="25" y="232.4449">alt</text><text fill="#000000" font-family="sans-serif" font-size="11" font-weight="bold" lengthAdjust="spacing" textLength="196" x="88" y="231.3068">[Il contatto &#233; gi&#225; tra le emergenze]</text><polygon fill="#181818" points="494.5,256.9599,504.5,260.9599,494.5,264.9599,498.5,260.9599" style="stroke:#181818;stroke-width:1.0;"/><line style="stroke:#181818;stroke-width:1.0;" x1="351.5" x2="500.5" y1="260.9599" y2="260.9599"/><text fill="#000000" font-family="sans-serif" font-size="13" font-weight="bold" lengthAdjust="spacing" textLength="7" x="358.5" y="255.1509">3</text><text fill="#000000" font-family="sans-serif" font-size="13" lengthAdjust="spacing" textLength="120" x="369.5" y="255.1509">setEmergenza(false)</text><polygon fill="#181818" points="61.5,288.6659,51.5,292.6659,61.5,296.6659,57.5,292.6659" style="stroke:#181818;stroke-width:1.0;"/><line style="stroke:#181818;stroke-width:1.0;stroke-dasharray:2.0,2.0;" x1="55.5" x2="340.5" y1="292.6659" y2="292.6659"/><text fill="#000000" font-family="sans-serif" font-size="13" font-weight="bold" lengthAdjust="spacing" textLength="7" x="67.5" y="286.8569">4</text><text fill="#000000" font-family="sans-serif" font-size="13" lengthAdjust="spacing" textLength="251" x="78.5" y="286.8569">mostraDialog("Rimosso dalle emergenze")</text><line style="stroke:#000000;stroke-width:1.0;stroke-dasharray:2.0,2.0;" x1="10" x2="552" y1="301.6659" y2="301.6659"/><text fill="#000000" font-family="sans-serif" font-size="11" font-weight="bold" lengthAdjust="spacing" textLength="199" x="15" y="313.4248">[il contatto non &#233; tra le emergenze]</text><polygon fill="#181818" points="494.5,337.3538,504.5,341.3538,494.5,345.3538,498.5,341.3538" style="stroke:#181818;stroke-width:1.0;"/><line style="stroke:#181818;stroke-width:1.0;" x1="351.5" x2="500.5" y1="341.3538" y2="341.3538"/><text fill="#000000" font-family="sans-serif" font-size="13" font-weight="bold" lengthAdjust="spacing" textLength="7" x="358.5" y="335.5448">5</text><text fill="#000000" font-family="sans-serif" font-size="13" lengthAdjust="spacing" textLength="118" x="369.5" y="335.5448">setEmergenza(true)</text><polygon fill="#181818" points="61.5,369.0598,51.5,373.0598,61.5,377.0598,57.5,373.0598" style="stroke:#181818;stroke-width:1.0;"/><line style="stroke:#181818;stroke-width:1.0;stroke-dasharray:2.0,2.0;" x1="55.5" x2="335.5" y1="373.0598" y2="373.0598"/><text fill="#000000" font-family="sans-serif" font-size="13" font-weight="bold" lengthAdjust="spacing" textLength="7" x="67.5" y="367.2508">6</text><text fill="#000000" font-family="sans-serif" font-size="13" lengthAdjust="spacing" textLength="248" x="78.5" y="367.2508">mostraDialog("Aggiunto alle emergenze")</text><!--SRC=[hP71IiD048Rl-nH3Uh0z18GYGWu5qHvwBUX5F4mtup8usGsRYO9luz7dw8kv8IQj6kt5lIoxpF_Dnuoo2i6cgaEZ2DV1Awe6M5SK7VbNDDXgy6sresZGQeXmg-ILJ8rHsNADNc7RxY9RxD8nY52yOthvKZ60JGVXPrGQEFsLhoOP1TnROMiHcbRaZ6tm2DaebpqSSDCEPl8RyjLqFHIWmJcXiSLySQ85p9RBoulrkK5Hs0ZOOOJxTt2yVmED26d4z4aa0-bCefBLk8026jA3nIDAGulVev2dS3_A5AtICYFUC4fmyspBwTq4A56EFRA5eGI5MSt-2VZ8t0VVsV-BkCRsB- -atLj_bxvoZbkVU3-aErP99_PEllm0]--></g></svg>