<?xml version="1.0" encoding="us-ascii" standalone="no"?><svg xmlns="http://www.w3.org/2000/svg" xmlns:xlink="http://www.w3.org/1999/xlink" contentStyleType="text/css" height="481px" preserveAspectRatio="none" style="width:514px;height:481px;background:#FFFFFF;" version="1.1" viewBox="0 0 514 481" width="514px" zoomAndPan="magnify"><defs/><g><text fill="#000000" font-family="sans-serif" font-size="14" font-weight="bold" lengthAdjust="spacing" textLength="189" x="163.5" y="29.9659">Imposta Contatto Preferito</text><rect fill="#FFFFFF" height="254.924" style="stroke:#181818;stroke-width:1.0;" width="10" x="40.5" y="134.1358"/><rect fill="#FFFFFF" height="231.218" style="stroke:#181818;stroke-width:1.0;" width="10" x="306.5" y="157.8419"/><rect fill="#3375E0" height="175.512" style="stroke:#181818;stroke-width:1.0;" width="10" x="311.5" y="197.5479"/><rect fill="none" height="163.512" style="stroke:#000000;stroke-width:1.5;" width="497" x="10" y="217.5479"/><rect fill="#FFC0CB" height="80.3939" style="stroke:none;stroke-width:1.0;" width="497" x="10" y="300.6659"/><line style="stroke:#181818;stroke-width:0.5;stroke-dasharray:5.0,5.0;" x1="45" x2="45" y1="124.1358" y2="398.0598"/><line style="stroke:#181818;stroke-width:0.5;stroke-dasharray:5.0,5.0;" x1="311.5" x2="311.5" y1="124.1358" y2="398.0598"/><line style="stroke:#181818;stroke-width:0.5;stroke-dasharray:5.0,5.0;" x1="461" x2="461" y1="124.1358" y2="398.0598"/><text fill="#000000" font-family="sans-serif" font-size="14" lengthAdjust="spacing" textLength="45" x="20" y="120.0339">Utente</text><ellipse cx="45.5" cy="53.5679" fill="#E2E2F0" rx="8" ry="8" style="stroke:#181818;stroke-width:0.5;"/><path d="M45.5,61.5679 L45.5,88.5679 M32.5,69.5679 L58.5,69.5679 M45.5,88.5679 L32.5,103.5679 M45.5,88.5679 L58.5,103.5679 " fill="none" style="stroke:#181818;stroke-width:0.5;"/><text fill="#000000" font-family="sans-serif" font-size="14" lengthAdjust="spacing" textLength="45" x="20" y="412.0258">Utente</text><ellipse cx="45.5" cy="424.6278" fill="#E2E2F0" rx="8" ry="8" style="stroke:#181818;stroke-width:0.5;"/><path d="M45.5,432.6278 L45.5,459.6278 M32.5,440.6278 L58.5,440.6278 M45.5,459.6278 L32.5,474.6278 M45.5,459.6278 L58.5,474.6278 " fill="none" style="stroke:#181818;stroke-width:0.5;"/><rect fill="#E2E2F0" height="33.0679" rx="2.5" ry="2.5" style="stroke:#181818;stroke-width:0.5;" width="164" x="229.5" y="90.0679"/><text fill="#000000" font-family="sans-serif" font-size="14" lengthAdjust="spacing" textLength="150" x="236.5" y="112.0339">RubricaControllerView</text><rect fill="#E2E2F0" height="33.0679" rx="2.5" ry="2.5" style="stroke:#181818;stroke-width:0.5;" width="164" x="229.5" y="397.0598"/><text fill="#000000" font-family="sans-serif" font-size="14" lengthAdjust="spacing" textLength="150" x="236.5" y="419.0258">RubricaControllerView</text><rect fill="#E2E2F0" height="33.0679" rx="2.5" ry="2.5" style="stroke:#181818;stroke-width:0.5;" width="71" x="426" y="90.0679"/><text fill="#000000" font-family="sans-serif" font-size="14" lengthAdjust="spacing" textLength="57" x="433" y="112.0339">Contatto</text><rect fill="#E2E2F0" height="33.0679" rx="2.5" ry="2.5" style="stroke:#181818;stroke-width:0.5;" width="71" x="426" y="397.0598"/><text fill="#000000" font-family="sans-serif" font-size="14" lengthAdjust="spacing" textLength="57" x="433" y="419.0258">Contatto</text><rect fill="#FFFFFF" height="254.924" style="stroke:#181818;stroke-width:1.0;" width="10" x="40.5" y="134.1358"/><rect fill="#FFFFFF" height="231.218" style="stroke:#181818;stroke-width:1.0;" width="10" x="306.5" y="157.8419"/><rect fill="#3375E0" height="175.512" style="stroke:#181818;stroke-width:1.0;" width="10" x="311.5" y="197.5479"/><polygon fill="#181818" points="294.5,153.8419,304.5,157.8419,294.5,161.8419,298.5,157.8419" style="stroke:#181818;stroke-width:1.0;"/><line style="stroke:#181818;stroke-width:1.0;" x1="50.5" x2="300.5" y1="157.8419" y2="157.8419"/><text fill="#000000" font-family="sans-serif" font-size="13" font-weight="bold" lengthAdjust="spacing" textLength="7" x="57.5" y="152.0328">1</text><text fill="#000000" font-family="sans-serif" font-size="13" lengthAdjust="spacing" textLength="162" x="68.5" y="152.0328">[clicca sull'icona "Preferito"]</text><line style="stroke:#181818;stroke-width:1.0;" x1="316.5" x2="363.5" y1="184.5479" y2="184.5479"/><line style="stroke:#181818;stroke-width:1.0;" x1="363.5" x2="363.5" y1="184.5479" y2="197.5479"/><line style="stroke:#181818;stroke-width:1.0;" x1="322.5" x2="363.5" y1="197.5479" y2="197.5479"/><polygon fill="#181818" points="332.5,193.5479,322.5,197.5479,332.5,201.5479,328.5,197.5479" style="stroke:#181818;stroke-width:1.0;"/><text fill="#000000" font-family="sans-serif" font-size="13" font-weight="bold" lengthAdjust="spacing" textLength="7" x="328.5" y="178.7389">2</text><text fill="#000000" font-family="sans-serif" font-size="13" lengthAdjust="spacing" textLength="94" x="339.5" y="178.7389">togglePreferiti()</text><path d="M10,217.5479 L73,217.5479 L73,227.2539 L63,237.2539 L10,237.2539 L10,217.5479 " fill="#EEEEEE" style="stroke:#000000;stroke-width:1.5;"/><rect fill="none" height="163.512" style="stroke:#000000;stroke-width:1.5;" width="497" x="10" y="217.5479"/><text fill="#000000" font-family="sans-serif" font-size="13" font-weight="bold" lengthAdjust="spacing" textLength="18" x="25" y="232.4449">alt</text><text fill="#000000" font-family="sans-serif" font-size="11" font-weight="bold" lengthAdjust="spacing" textLength="172" x="88" y="231.3068">[Il contatto &#233; gi&#225; tra i preferiti]</text><polygon fill="#181818" points="449.5,256.9599,459.5,260.9599,449.5,264.9599,453.5,260.9599" style="stroke:#181818;stroke-width:1.0;"/><line style="stroke:#181818;stroke-width:1.0;" x1="321.5" x2="455.5" y1="260.9599" y2="260.9599"/><text fill="#000000" font-family="sans-serif" font-size="13" font-weight="bold" lengthAdjust="spacing" textLength="7" x="328.5" y="255.1509">3</text><text fill="#000000" font-family="sans-serif" font-size="13" lengthAdjust="spacing" textLength="105" x="339.5" y="255.1509">setPreferito(false)</text><polygon fill="#181818" points="61.5,288.6659,51.5,292.6659,61.5,296.6659,57.5,292.6659" style="stroke:#181818;stroke-width:1.0;"/><line style="stroke:#181818;stroke-width:1.0;stroke-dasharray:2.0,2.0;" x1="55.5" x2="310.5" y1="292.6659" y2="292.6659"/><text fill="#000000" font-family="sans-serif" font-size="13" font-weight="bold" lengthAdjust="spacing" textLength="7" x="67.5" y="286.8569">4</text><text fill="#000000" font-family="sans-serif" font-size="13" lengthAdjust="spacing" textLength="221" x="78.5" y="286.8569">mostraDialog("Rimosso dai preferiti")</text><line style="stroke:#000000;stroke-width:1.0;stroke-dasharray:2.0,2.0;" x1="10" x2="507" y1="301.6659" y2="301.6659"/><text fill="#000000" font-family="sans-serif" font-size="11" font-weight="bold" lengthAdjust="spacing" textLength="175" x="15" y="313.4248">[il contatto non &#233; tra i preferiti]</text><polygon fill="#181818" points="449.5,337.3538,459.5,341.3538,449.5,345.3538,453.5,341.3538" style="stroke:#181818;stroke-width:1.0;"/><line style="stroke:#181818;stroke-width:1.0;" x1="321.5" x2="455.5" y1="341.3538" y2="341.3538"/><text fill="#000000" font-family="sans-serif" font-size="13" font-weight="bold" lengthAdjust="spacing" textLength="7" x="328.5" y="335.5448">5</text><text fill="#000000" font-family="sans-serif" font-size="13" lengthAdjust="spacing" textLength="103" x="339.5" y="335.5448">setPreferito(true)</text><polygon fill="#181818" points="61.5,369.0598,51.5,373.0598,61.5,377.0598,57.5,373.0598" style="stroke:#181818;stroke-width:1.0;"/><line style="stroke:#181818;stroke-width:1.0;stroke-dasharray:2.0,2.0;" x1="55.5" x2="305.5" y1="373.0598" y2="373.0598"/><text fill="#000000" font-family="sans-serif" font-size="13" font-weight="bold" lengthAdjust="spacing" textLength="7" x="67.5" y="367.2508">6</text><text fill="#000000" font-family="sans-serif" font-size="13" lengthAdjust="spacing" textLength="218" x="78.5" y="367.2508">mostraDialog("Aggiunto ai preferiti")</text><!--SRC=[hP71IiGm48RlUOgXUx0z58H5X1uMH3tiJHRq8XvcixDXCCsKTAhFuz7ds1SpfRIkItKlvX8Ivl_coqHPFS6wRgHLX5i9Yge23v7s55d5OASIkdfBqQ1LYV2e59HCWr7PSeD1OTDj8rliqr6yf_Z4zFwZOWIR7i9lg3HoXgrSpJ8gUBQUhKLeE-yls4f0o2QvxEKRD-zWPg-XNCtNGmKgpdaQMt1Ud6a1Y-No-kh-qg1NM7kmumWFd-3uy04Q4HYQ4MWWhLbIafhcNq5BEhqptwDlgVWz2cKA3vDCqJhzPSGxHYykppQSpgt03eyiii9GGiAYuV0AVAGT9FJg_s6jiVjBEZaFogV6Dyvn5nBlnBWdxUZCZrFOVG40]--></g></svg>