<?xml version="1.0" encoding="us-ascii" standalone="no"?><svg xmlns="http://www.w3.org/2000/svg" xmlns:xlink="http://www.w3.org/1999/xlink" contentStyleType="text/css" height="235px" preserveAspectRatio="none" style="width:417px;height:235px;background:#FFFFFF;" version="1.1" viewBox="0 0 417 235" width="417px" zoomAndPan="magnify"><defs/><g><text fill="#000000" font-family="sans-serif" font-size="14" font-weight="bold" lengthAdjust="spacing" textLength="168" x="117.5" y="24.9659">Diagramma dei package</text><!--cluster it.unisa.diem.swe.group07--><g id="cluster_it.unisa.diem.swe.group07"><path d="M8.5,46.6699 L192.5,46.6699 A3.75,3.75 0 0 1 195,49.1699 L202,71.7378 L407.5,71.7378 A2.5,2.5 0 0 1 410,74.2378 L410,226.3099 A2.5,2.5 0 0 1 407.5,228.8099 L8.5,228.8099 A2.5,2.5 0 0 1 6,226.3099 L6,49.1699 A2.5,2.5 0 0 1 8.5,46.6699 " fill="none" style="stroke:#000000;stroke-width:1.5;"/><line style="stroke:#000000;stroke-width:1.5;" x1="6" x2="202" y1="71.7378" y2="71.7378"/><text fill="#000000" font-family="sans-serif" font-size="14" font-weight="bold" lengthAdjust="spacing" textLength="183" x="10" y="63.6358">it.unisa.diem.swe.group07</text></g><!--cluster rubrica--><g id="cluster_rubrica"><path d="M32.5,92.6699 L82.5,92.6699 A3.75,3.75 0 0 1 85,95.1699 L92,117.7378 L383.5,117.7378 A2.5,2.5 0 0 1 386,120.2378 L386,202.3099 A2.5,2.5 0 0 1 383.5,204.8099 L32.5,204.8099 A2.5,2.5 0 0 1 30,202.3099 L30,95.1699 A2.5,2.5 0 0 1 32.5,92.6699 " fill="none" style="stroke:#000000;stroke-width:1.5;"/><line style="stroke:#000000;stroke-width:1.5;" x1="30" x2="92" y1="117.7378" y2="117.7378"/><text fill="#000000" font-family="sans-serif" font-size="14" font-weight="bold" lengthAdjust="spacing" textLength="49" x="34" y="109.6358">rubrica</text></g><path d="M48,130.6699 L124,130.6699 A3.75,3.75 0 0 1 126.5,133.1699 L133.5,155.7378 L138,155.7378 A2.5,2.5 0 0 1 140.5,158.2378 L140.5,186.3057 A2.5,2.5 0 0 1 138,188.8057 L48,188.8057 A2.5,2.5 0 0 1 45.5,186.3057 L45.5,133.1699 A2.5,2.5 0 0 1 48,130.6699 " fill="#F1F1F1" style="stroke:#181818;stroke-width:0.5;"/><line style="stroke:#181818;stroke-width:0.5;" x1="45.5" x2="133.5" y1="155.7378" y2="155.7378"/><text fill="#000000" font-family="sans-serif" font-size="14" font-weight="bold" lengthAdjust="spacing" textLength="75" x="49.5" y="147.6358">controllers</text><path d="M178,130.6699 L230,130.6699 A3.75,3.75 0 0 1 232.5,133.1699 L239.5,155.7378 L244,155.7378 A2.5,2.5 0 0 1 246.5,158.2378 L246.5,186.3057 A2.5,2.5 0 0 1 244,188.8057 L178,188.8057 A2.5,2.5 0 0 1 175.5,186.3057 L175.5,133.1699 A2.5,2.5 0 0 1 178,130.6699 " fill="#F1F1F1" style="stroke:#181818;stroke-width:0.5;"/><line style="stroke:#181818;stroke-width:0.5;" x1="175.5" x2="239.5" y1="155.7378" y2="155.7378"/><text fill="#000000" font-family="sans-serif" font-size="14" font-weight="bold" lengthAdjust="spacing" textLength="51" x="179.5" y="147.6358">models</text><path d="M284,130.6699 L354,130.6699 A3.75,3.75 0 0 1 356.5,133.1699 L363.5,155.7378 L368,155.7378 A2.5,2.5 0 0 1 370.5,158.2378 L370.5,186.3057 A2.5,2.5 0 0 1 368,188.8057 L284,188.8057 A2.5,2.5 0 0 1 281.5,186.3057 L281.5,133.1699 A2.5,2.5 0 0 1 284,130.6699 " fill="#F1F1F1" style="stroke:#181818;stroke-width:0.5;"/><line style="stroke:#181818;stroke-width:0.5;" x1="281.5" x2="363.5" y1="155.7378" y2="155.7378"/><text fill="#000000" font-family="sans-serif" font-size="14" font-weight="bold" lengthAdjust="spacing" textLength="69" x="285.5" y="147.6358">gestoreIO</text><!--SRC=[ROun3i8m34LtJc7r014R5s1XuWmciIAB98viHmnLxqvLG6NeyFMb_zxm0G2SlH1CLyQiM2j28eQEyOcPfjCgW96lwQZeej2aqJP_7M0Fex5XI4mrs8j2LXdzV9atRHTrF9GZmc__Pr6QgvH2QlDomAiaAWQ7B9Ejn-Xst_6dbpS0]--></g></svg>